{"glyphs":{"0":{"ha":865,"x_min":41,"x_max":824,"o":"m 347 -15 q 205 5 267 -15 q 106 68 144 24 q 54 181 68 111 q 55 351 41 251 l 65 422 q 122 645 83 549 q 218 805 161 741 q 348 901 275 869 q 506 932 420 932 q 659 912 595 932 q 761 848 723 892 q 812 734 800 804 q 810 566 824 665 l 800 496 q 742 266 780 362 q 646 106 703 169 q 514 15 589 44 q 347 -15 439 -15 m 598 530 q 608 693 612 630 q 587 791 604 755 q 545 839 571 826 q 487 852 518 852 q 412 832 444 852 q 354 768 379 812 q 311 653 330 724 q 279 483 293 583 l 267 388 q 257 237 254 298 q 275 137 260 176 q 316 82 290 99 q 376 66 342 66 q 448 84 416 66 q 506 145 480 102 q 551 259 532 188 q 585 435 571 330 l 598 530 z "},"1":{"ha":552,"x_min":58,"x_max":468,"o":"m 426 0 l 62 0 l 58 71 l 146 85 l 248 804 l 96 804 l 96 871 l 311 918 l 468 918 l 350 85 l 439 71 l 426 0 z "},"2":{"ha":735,"x_min":-11,"x_max":711,"o":"m 497 710 q 497 777 503 749 q 475 821 491 804 q 436 845 460 838 q 384 852 413 852 q 336 847 359 852 q 293 837 313 843 q 254 823 273 831 l 195 671 l 96 671 l 120 861 q 205 896 161 881 q 304 921 250 910 q 420 932 359 932 q 549 920 492 932 q 642 882 605 907 q 695 818 679 857 q 703 726 711 779 q 649 586 692 656 q 539 445 606 517 q 385 299 472 374 q 200 142 298 224 l 202 136 l 485 136 l 559 280 l 654 271 l 606 0 l -11 0 l -11 92 q 203 294 111 203 q 357 460 294 385 q 454 595 420 534 q 497 710 489 656 z "},"3":{"ha":707,"x_min":-4,"x_max":679,"o":"m 244 -15 q 148 -5 193 -15 q 65 18 102 5 q -4 49 28 31 l 21 237 l 120 237 l 137 94 q 171 80 153 86 q 211 70 189 75 q 261 66 234 66 q 319 76 292 66 q 368 108 347 86 q 406 165 390 130 q 429 250 421 200 q 429 337 436 300 q 403 399 422 374 q 357 437 385 425 q 296 449 330 449 l 222 449 l 233 530 l 310 530 q 370 543 345 530 q 414 579 396 556 q 443 634 432 603 q 459 703 454 666 q 441 814 469 777 q 355 852 413 852 q 318 849 336 852 q 287 843 301 846 q 259 835 272 840 l 203 687 l 106 687 l 131 882 q 205 906 166 896 q 293 925 244 917 q 393 932 341 932 q 609 876 540 932 q 663 703 679 819 q 637 628 656 661 q 593 570 618 595 q 538 527 567 545 q 482 497 509 509 q 548 469 517 488 q 600 422 578 451 q 630 355 621 394 q 633 264 640 315 q 591 143 623 195 q 508 56 559 91 q 390 3 457 20 q 244 -15 323 -15 z "},"4":{"ha":747,"x_min":-4,"x_max":681,"o":"m 648 0 l 256 0 l 253 71 l 368 85 l 387 232 l 2 232 l -4 283 l 477 918 l 656 918 l 201 319 l 203 313 l 401 313 l 433 540 l 636 540 l 604 313 l 677 313 l 681 241 l 592 228 l 572 85 l 661 71 l 648 0 z "},"5":{"ha":768,"x_min":21,"x_max":718,"o":"m 280 -15 q 175 -6 222 -15 q 91 16 128 3 q 21 45 54 28 l 45 233 l 151 233 l 174 86 q 207 76 190 80 q 244 69 223 72 q 288 66 264 66 q 355 78 323 66 q 412 115 387 90 q 455 176 437 139 q 479 264 472 214 q 477 349 486 313 q 450 411 469 386 q 399 449 430 436 q 331 461 369 461 q 270 456 298 461 q 220 444 242 450 q 178 428 198 437 l 97 496 l 180 918 l 718 918 l 705 782 l 269 782 l 218 525 q 281 540 240 532 q 372 547 322 547 q 505 533 443 547 q 610 488 566 519 q 674 404 653 456 q 684 277 695 352 q 639 151 674 205 q 551 59 604 96 q 428 4 497 22 q 280 -15 359 -15 z "},"6":{"ha":790,"x_min":42,"x_max":751,"o":"m 59 388 q 130 618 77 517 q 259 789 182 719 q 431 896 336 859 q 627 932 526 932 q 675 930 653 932 q 716 925 698 928 q 751 918 734 922 l 744 846 q 707 848 726 847 q 668 851 689 850 q 625 852 646 852 q 508 826 565 852 q 404 750 451 800 q 324 630 357 701 q 277 471 291 559 l 283 468 q 361 507 311 490 q 477 524 412 524 q 590 507 541 524 q 670 457 639 490 q 715 377 702 425 q 720 271 728 330 q 682 154 711 207 q 606 64 653 102 q 495 6 559 26 q 349 -15 430 -15 q 191 12 253 -15 q 95 86 129 39 q 51 200 60 134 q 53 345 42 267 l 59 388 m 514 251 q 515 338 521 302 q 494 398 510 374 q 453 432 478 421 q 397 443 429 443 q 347 436 371 443 q 304 420 323 429 q 267 400 285 412 l 261 353 q 255 223 251 278 q 273 134 258 169 q 311 82 287 99 q 366 66 334 66 q 467 113 433 66 q 514 251 502 161 z "},"7":{"ha":705,"x_min":72,"x_max":762,"o":"m 163 629 l 72 629 l 113 918 l 762 918 l 762 854 l 297 0 l 108 0 l 579 775 l 576 782 l 218 782 l 163 629 z "},"8":{"ha":762,"x_min":7,"x_max":727,"o":"m 118 688 q 151 782 125 738 q 220 860 176 827 q 326 913 264 894 q 466 932 387 932 q 584 920 533 932 q 667 884 634 908 q 713 825 699 861 q 720 741 727 789 q 693 667 714 701 q 643 605 673 633 q 575 557 612 578 q 501 522 538 536 q 584 470 547 499 q 646 406 621 441 q 680 328 670 370 q 684 236 690 286 q 648 138 676 184 q 571 58 619 92 q 454 5 522 24 q 301 -15 387 -15 q 170 -1 227 -15 q 76 40 113 13 q 23 109 39 68 q 15 206 7 151 q 42 284 21 248 q 96 350 64 320 q 168 402 127 379 q 252 440 208 425 q 192 485 219 460 q 146 540 164 509 q 120 607 127 570 q 118 688 112 644 m 222 235 q 240 107 211 148 q 334 66 269 66 q 387 76 363 66 q 429 104 411 85 q 460 148 448 122 q 476 205 472 173 q 443 318 485 269 q 315 408 401 367 q 256 337 282 380 q 222 235 231 295 m 513 711 q 503 818 523 784 q 439 852 483 852 q 362 815 391 852 q 324 720 333 779 q 340 616 315 657 q 433 550 366 576 q 485 618 464 578 q 513 711 505 659 z "},"9":{"ha":773,"x_min":24,"x_max":739,"o":"m 290 657 q 289 568 283 605 q 308 506 294 530 q 342 471 321 482 q 389 459 363 459 q 434 465 412 459 q 475 477 456 470 q 512 496 494 485 l 518 541 q 516 771 538 690 q 429 852 494 852 q 373 838 397 852 q 333 800 350 825 q 307 739 317 774 q 290 657 296 703 m 153 -15 q 102 -13 125 -15 q 60 -7 79 -11 q 24 1 41 -4 l 31 73 q 63 69 47 71 q 100 67 80 68 q 141 66 119 66 q 274 92 212 66 q 382 166 335 119 q 460 280 429 214 q 503 425 492 346 l 496 428 q 463 412 482 420 q 419 396 444 404 q 361 384 393 389 q 288 378 328 378 q 197 396 238 378 q 128 448 156 414 q 88 529 100 481 q 83 635 75 576 q 121 761 93 705 q 196 854 150 816 q 306 912 243 892 q 446 932 368 932 q 595 909 535 932 q 688 840 654 886 q 730 727 721 794 q 726 572 739 660 l 719 519 q 648 280 699 381 q 521 114 596 179 q 351 17 446 48 q 153 -15 257 -15 z "}," ":{"ha":373,"x_min":0,"x_max":0,"o":""},"m":{"ha":1367,"x_min":90,"x_max":1280,"o":"m 820 0 l 596 -15 l 541 38 l 604 496 q 612 623 616 583 q 576 664 608 664 q 477 615 534 664 q 351 469 419 567 l 283 -15 l 90 0 l 179 651 l 90 665 l 104 736 l 328 751 l 383 698 l 367 583 q 509 708 433 665 q 661 751 586 751 q 783 708 746 751 q 812 581 819 666 q 951 707 876 664 q 1104 751 1027 751 q 1234 703 1198 751 q 1255 555 1270 655 l 1191 85 l 1280 71 l 1266 0 l 1042 -15 l 987 38 l 1050 496 q 1059 622 1062 580 q 1023 664 1055 664 q 925 616 982 664 q 797 469 867 568 l 745 85 l 833 71 l 820 0 z "},"b":{"ha":825,"x_min":65,"x_max":793,"o":"m 118 1044 l 342 1059 l 397 1006 l 338 586 q 466 709 397 667 q 603 751 534 751 q 750 686 707 751 q 774 483 793 621 l 756 355 q 624 84 730 182 q 363 -15 517 -15 q 212 0 293 -15 q 65 38 130 16 l 193 960 l 104 973 l 118 1044 m 569 423 q 577 604 586 544 q 524 664 569 664 q 430 611 484 664 q 322 470 377 559 l 266 68 q 320 59 292 62 q 373 56 348 56 q 431 61 400 56 q 486 76 463 67 q 527 190 508 124 q 557 334 546 256 l 569 423 z "},"h":{"ha":913,"x_min":77,"x_max":826,"o":"m 568 664 q 464 612 524 664 q 340 469 404 560 l 273 -15 l 77 0 l 211 960 l 122 973 l 136 1044 l 359 1059 l 414 1006 l 355 583 q 494 708 418 665 q 646 751 569 751 q 779 701 744 751 q 800 545 814 650 l 736 85 l 826 71 l 812 0 l 589 -15 l 533 38 l 596 496 q 604 630 610 597 q 568 664 597 664 z "},"l":{"ha":452,"x_min":79,"x_max":411,"o":"m 132 1044 l 356 1059 l 411 1006 l 282 85 l 371 71 l 357 0 l 134 -15 l 79 38 l 207 960 l 118 973 l 132 1044 z "},"d":{"ha":836,"x_min":33,"x_max":802,"o":"m 524 1044 l 747 1059 l 802 1006 l 673 85 l 763 71 l 749 0 l 526 -15 l 471 38 l 487 154 q 364 28 431 71 q 229 -15 297 -15 q 79 53 125 -15 q 50 253 33 120 l 68 380 q 202 652 94 554 q 467 751 310 751 q 515 749 490 751 q 569 743 541 747 l 599 960 l 510 973 l 524 1044 m 256 313 q 249 126 238 180 q 301 72 259 72 q 391 120 339 72 q 503 267 442 168 l 559 669 q 514 677 542 673 q 454 680 486 680 q 396 674 426 680 q 344 658 367 668 q 298 542 318 608 q 268 401 279 476 l 256 313 z "},"c":{"ha":654,"x_min":26,"x_max":668,"o":"m 630 541 l 545 534 l 545 667 q 497 674 522 671 q 450 676 473 676 q 400 671 427 676 q 342 652 372 665 q 291 528 312 596 q 258 381 269 459 l 247 300 q 254 122 230 185 q 378 60 278 60 q 475 77 422 60 q 573 121 527 94 l 573 49 q 452 1 519 18 q 319 -15 386 -15 q 94 61 162 -15 q 49 291 26 137 l 58 354 q 197 647 85 544 q 465 751 309 751 q 576 741 522 751 q 668 715 631 732 l 630 541 z "},"e":{"ha":694,"x_min":29,"x_max":696,"o":"m 683 559 q 579 388 667 450 q 352 327 492 327 q 298 329 325 327 q 253 335 272 332 l 248 300 q 262 121 231 183 q 383 60 293 60 q 478 75 425 60 q 589 121 532 91 l 589 49 q 465 2 534 18 q 324 -15 395 -15 q 95 63 161 -15 q 50 291 29 140 l 59 354 q 191 646 86 542 q 450 751 296 751 q 636 703 576 751 q 683 559 696 656 m 338 656 q 295 542 315 606 q 263 404 276 477 q 315 399 288 401 q 362 397 341 397 q 399 400 382 397 q 430 406 417 402 q 463 469 449 434 q 483 544 477 503 q 477 645 492 614 q 417 676 461 676 q 377 671 397 676 q 338 656 357 667 z "},"a":{"ha":844,"x_min":33,"x_max":765,"o":"m 751 0 l 528 -15 l 473 38 l 488 153 q 366 30 433 74 q 231 -15 298 -15 q 78 51 123 -15 q 52 253 33 116 l 70 380 q 202 651 95 551 q 467 751 309 751 q 611 736 531 751 q 761 698 690 722 l 675 85 l 765 71 l 751 0 m 258 313 q 248 136 241 199 q 304 72 255 72 q 392 126 338 72 q 504 267 446 180 l 559 666 q 513 676 541 671 q 453 680 484 680 q 400 675 428 680 q 347 660 373 669 q 300 541 319 609 q 270 401 280 473 l 258 313 z "},"q":{"ha":796,"x_min":32,"x_max":760,"o":"m 348 -224 l 436 -210 l 486 152 q 367 29 434 73 q 230 -15 299 -15 q 74 51 116 -15 q 51 253 32 116 l 68 380 q 201 650 96 550 q 462 751 307 751 q 603 737 525 751 q 760 698 682 724 l 633 -210 l 722 -224 l 709 -295 l 351 -295 l 348 -224 m 256 313 q 248 130 237 187 q 299 72 258 72 q 391 119 340 72 q 503 267 443 167 l 558 669 q 507 677 534 675 q 452 680 480 680 q 393 674 424 680 q 340 659 363 667 q 294 525 311 590 q 269 401 277 460 l 256 313 z "},"p":{"ha":844,"x_min":-37,"x_max":815,"o":"m 96 736 l 320 751 l 375 698 l 359 583 q 483 706 414 662 q 621 751 552 751 q 775 684 736 751 q 795 483 815 616 l 778 355 q 646 85 753 184 q 385 -15 540 -15 q 331 -13 359 -15 q 277 -6 302 -10 l 248 -210 l 338 -224 l 324 -295 l -33 -295 l -37 -224 l 52 -210 l 172 651 l 83 665 l 96 736 m 591 423 q 600 606 608 548 q 550 664 592 664 q 451 611 507 664 q 342 467 396 557 l 287 64 q 342 58 315 60 q 394 56 369 56 q 452 61 422 56 q 506 76 481 66 q 546 182 526 115 q 578 334 566 250 l 591 423 z "},"u":{"ha":911,"x_min":84,"x_max":830,"o":"m 547 736 l 772 751 l 827 698 l 741 85 l 830 71 l 817 0 l 593 -15 l 538 38 l 553 151 q 416 30 494 74 q 258 -15 339 -15 q 130 34 165 -15 q 109 180 95 83 l 174 651 l 84 665 l 98 736 l 322 751 l 375 684 l 313 230 q 307 111 302 149 q 348 72 313 72 q 449 122 391 72 q 569 264 507 172 l 623 651 l 534 665 l 547 736 z "},"r":{"ha":663,"x_min":23,"x_max":685,"o":"m 115 736 l 339 751 l 394 698 l 377 578 q 467 706 414 661 q 582 751 520 751 q 637 743 610 751 q 685 721 665 734 l 646 534 l 547 526 l 547 647 q 533 650 539 649 q 520 650 526 650 q 446 594 488 650 q 355 418 404 538 l 309 85 l 398 71 l 385 0 l 26 0 l 23 71 l 111 85 l 190 651 l 101 665 l 115 736 z "},"g":{"ha":791,"x_min":-14,"x_max":756,"o":"m 15 -127 q 211 -193 125 -172 q 357 -215 298 -215 q 426 -110 397 -180 q 471 60 456 -40 l 483 151 q 361 28 431 71 q 216 -15 291 -15 q 70 53 110 -15 q 47 253 29 121 l 65 380 q 197 650 90 549 q 463 751 304 751 q 604 737 528 751 q 756 698 680 723 l 671 87 q 538 -201 644 -92 q 282 -310 432 -310 q 136 -294 214 -310 q -14 -249 58 -278 l 15 -127 m 253 313 q 246 133 237 194 q 298 72 255 72 q 395 124 342 72 q 499 267 449 177 l 555 666 q 506 676 534 672 q 449 680 477 680 q 391 673 422 680 q 337 656 361 667 q 297 549 315 610 q 265 401 278 487 l 253 313 z "},"j":{"ha":448,"x_min":-190,"x_max":417,"o":"m 107 736 l 332 751 l 387 698 l 283 -32 q 197 -241 264 -172 q -1 -310 130 -310 q -99 -301 -48 -310 q -190 -278 -149 -292 l -157 -183 q -59 -213 -109 -201 q 26 -224 -10 -224 q 60 -157 44 -201 q 85 -58 77 -113 l 182 651 l 94 665 l 107 736 m 227 948 q 247 1035 227 998 q 294 1072 267 1072 q 380 1052 343 1072 q 417 1005 417 1031 q 397 918 417 954 q 351 882 378 882 q 263 901 299 882 q 227 948 227 920 z "},"t":{"ha":557,"x_min":52,"x_max":566,"o":"m 62 736 l 181 736 l 201 876 l 406 932 l 378 736 l 566 736 l 556 665 l 369 665 l 309 236 q 307 106 296 153 q 362 60 317 60 q 431 74 397 60 q 496 107 465 87 l 496 35 q 407 -1 460 12 q 297 -15 354 -15 q 137 48 180 -15 q 113 239 94 111 l 172 665 l 52 665 l 62 736 z "},"s":{"ha":694,"x_min":49,"x_max":649,"o":"m 422 447 q 595 309 557 366 q 621 178 632 252 q 516 36 608 86 q 279 -15 425 -15 q 153 -2 214 -15 q 49 33 93 11 l 65 209 l 148 209 l 169 75 q 220 64 189 68 q 285 60 250 60 q 339 63 312 60 q 391 72 367 66 q 409 106 401 86 q 420 149 417 126 q 403 226 427 193 q 271 328 379 259 q 123 450 157 399 q 98 562 90 501 q 196 700 111 649 q 427 751 282 751 q 551 738 492 751 q 649 705 610 725 l 632 528 l 550 528 l 528 663 q 477 672 505 669 q 420 676 448 676 q 371 673 396 676 q 328 664 346 669 q 310 634 318 652 q 299 598 302 616 q 313 529 292 558 q 422 447 334 500 z "},"v":{"ha":721,"x_min":22,"x_max":714,"o":"m 215 0 l 110 651 l 22 665 l 31 736 l 224 751 l 279 698 l 370 119 q 443 243 408 177 q 506 379 477 309 q 555 518 534 448 q 585 652 576 587 l 500 665 l 510 736 l 659 751 l 714 698 q 701 584 714 644 q 664 460 687 524 q 609 334 640 397 q 542 209 578 270 q 468 91 506 147 q 392 -15 429 34 l 215 0 z "},"w":{"ha":1183,"x_min":22,"x_max":1177,"o":"m 31 736 l 224 751 l 279 698 l 363 165 l 637 751 l 736 736 l 833 122 q 905 245 870 180 q 969 380 940 311 q 1018 519 998 450 q 1048 652 1038 588 l 963 665 l 972 736 l 1122 751 l 1177 698 q 1163 584 1177 644 q 1127 459 1150 523 q 1073 332 1104 396 q 1006 206 1042 267 q 931 89 970 145 q 854 -15 892 33 l 677 0 l 604 450 l 392 -15 l 214 0 l 110 651 l 22 665 l 31 736 z "},"k":{"ha":830,"x_min":76,"x_max":826,"o":"m 794 0 l 595 -15 l 541 38 l 386 349 q 353 336 370 342 q 318 323 336 330 l 271 -15 l 76 0 l 210 960 l 121 973 l 134 1044 l 359 1059 l 414 1006 l 332 427 q 519 532 439 471 q 659 658 600 593 l 592 665 l 606 736 l 733 751 l 826 671 q 710 551 781 616 q 541 427 640 487 l 709 85 l 804 71 l 794 0 z "},"y":{"ha":870,"x_min":58,"x_max":828,"o":"m 99 736 l 323 751 l 378 698 l 314 227 q 307 109 303 146 q 345 72 311 72 q 440 121 382 72 q 571 265 498 170 l 625 651 l 535 665 l 549 736 l 773 751 l 828 698 l 743 87 q 606 -205 713 -100 q 354 -310 499 -310 q 207 -294 285 -310 q 58 -249 130 -278 l 87 -127 q 278 -192 189 -169 q 429 -215 367 -215 q 496 -115 465 -184 q 543 60 527 -45 l 555 151 q 425 31 502 77 q 265 -15 349 -15 q 132 34 168 -15 q 111 180 96 82 l 175 651 l 85 665 l 99 736 z "},"x":{"ha":772,"x_min":-3,"x_max":781,"o":"m 725 0 l 521 -15 l 466 38 l 338 307 q 237 199 286 259 q 149 79 188 139 l 218 71 l 209 0 l 95 -15 l -3 52 q 46 130 16 87 q 116 217 77 172 q 201 307 155 262 q 297 395 247 353 l 176 650 l 83 665 l 93 736 l 297 751 l 352 698 l 465 460 q 553 556 512 507 q 627 656 594 606 l 559 665 l 569 736 l 683 751 l 781 684 q 733 614 761 652 q 671 536 706 576 q 595 453 637 495 q 507 370 553 411 l 642 85 l 734 71 l 725 0 z "},"z":{"ha":724,"x_min":26,"x_max":726,"o":"m 492 661 l 250 661 l 195 543 l 98 561 l 132 736 l 726 736 l 720 680 l 254 75 l 502 75 l 557 193 l 654 175 l 621 0 l 26 0 l 33 64 l 492 661 z "},"f":{"ha":506,"x_min":-190,"x_max":658,"o":"m 391 736 l 536 736 l 527 665 l 381 665 l 285 -32 q 199 -241 266 -173 q 3 -310 133 -310 q -97 -302 -47 -310 q -190 -278 -147 -294 l -157 -183 q -62 -213 -111 -202 q 23 -224 -14 -224 q 63 -149 47 -194 q 86 -50 79 -103 l 184 665 l 56 665 l 66 736 l 195 736 q 301 980 226 901 q 496 1059 376 1059 q 583 1050 540 1059 q 658 1027 627 1042 l 629 932 q 553 962 593 951 q 476 973 512 973 q 425 879 446 938 q 393 751 403 819 l 391 736 z "},"A":{"ha":866,"x_min":-62,"x_max":836,"o":"m 217 0 l -57 0 l -62 71 l 12 85 l 428 918 l 590 918 l 764 84 l 836 71 l 825 0 l 474 0 l 469 71 l 562 84 l 525 269 l 229 269 l 138 83 l 229 71 l 217 0 m 431 683 l 268 349 l 509 349 l 442 683 l 431 683 z "},"B":{"ha":825,"x_min":-1,"x_max":799,"o":"m 2 0 l -1 71 l 87 85 l 193 833 l 104 846 l 117 918 l 486 918 q 724 865 648 918 q 783 700 799 813 q 723 576 773 630 q 578 488 672 522 l 578 477 q 722 404 672 460 q 760 262 772 349 q 651 72 743 143 q 409 0 560 0 l 2 0 m 351 81 q 434 84 394 81 q 505 96 475 87 q 534 163 519 121 q 556 256 549 206 q 533 390 568 343 q 410 436 498 436 l 340 436 l 290 81 l 351 81 m 407 517 q 468 520 436 517 q 524 530 499 524 q 557 605 543 562 q 577 687 572 648 q 553 801 588 765 q 439 837 519 837 l 397 837 l 352 517 l 407 517 z "},"C":{"ha":826,"x_min":15,"x_max":819,"o":"m 47 410 q 217 800 83 668 q 568 932 350 932 q 713 921 646 932 q 819 892 781 909 l 808 696 l 694 696 l 663 838 q 609 848 641 845 q 549 852 576 852 q 447 839 496 852 q 364 806 398 825 q 303 641 329 728 q 265 463 278 553 l 253 373 q 291 145 233 224 q 471 66 349 66 q 605 85 534 66 q 737 136 676 105 l 727 71 q 573 8 659 32 q 404 -15 488 -15 q 105 78 195 -15 q 39 349 15 171 l 47 410 z "},"D":{"ha":975,"x_min":0,"x_max":946,"o":"m 3 0 l 0 71 l 88 85 l 194 833 l 105 846 l 119 918 l 523 918 q 850 813 753 918 q 917 503 946 709 l 909 444 q 752 116 879 231 q 426 0 625 0 l 3 0 m 402 81 q 497 87 451 81 q 581 107 544 93 q 654 240 620 158 q 703 422 688 322 l 711 486 q 683 751 736 665 q 491 837 629 837 l 398 837 l 292 81 l 402 81 z "},"E":{"ha":845,"x_min":-1,"x_max":825,"o":"m 340 439 l 290 81 l 581 81 l 652 218 l 760 210 l 715 0 l 2 0 l -1 71 l 87 85 l 193 833 l 104 846 l 117 918 l 825 918 l 812 701 l 699 701 l 672 837 l 397 837 l 352 520 l 567 520 l 594 606 l 664 593 l 626 352 l 553 349 l 553 439 l 340 439 z "},"F":{"ha":741,"x_min":-3,"x_max":776,"o":"m 116 918 l 776 918 l 763 701 l 650 701 l 623 837 l 395 837 l 351 520 l 518 520 l 545 606 l 615 593 l 577 352 l 505 349 l 505 439 l 339 439 l 289 85 l 412 71 l 399 0 l 1 0 l -3 71 l 85 85 l 191 833 l 102 846 l 116 918 z "},"G":{"ha":920,"x_min":18,"x_max":879,"o":"m 511 438 l 876 438 l 879 367 l 790 353 l 751 71 q 582 9 675 33 q 399 -15 488 -15 q 114 75 210 -15 q 43 342 18 164 l 52 403 q 227 796 90 659 q 582 932 364 932 q 726 922 656 932 q 850 894 795 912 l 838 697 l 724 697 l 693 837 q 630 848 665 844 q 566 852 596 852 q 461 838 515 852 q 369 802 408 824 q 305 647 334 735 q 263 463 277 558 l 251 373 q 287 146 231 227 q 453 66 343 66 q 547 75 501 66 l 587 353 l 498 367 l 511 438 z "},"H":{"ha":1037,"x_min":-3,"x_max":1042,"o":"m 116 918 l 480 918 l 484 846 l 395 833 l 352 528 l 707 528 l 750 833 l 661 846 l 675 918 l 1039 918 l 1042 846 l 954 833 l 848 85 l 937 71 l 924 0 l 559 0 l 556 71 l 644 85 l 696 447 l 340 447 l 289 85 l 378 71 l 365 0 l 1 0 l -3 71 l 85 85 l 191 833 l 102 846 l 116 918 z "},"I":{"ha":478,"x_min":-3,"x_max":484,"o":"m -3 71 l 85 85 l 191 833 l 102 846 l 116 918 l 480 918 l 484 846 l 395 833 l 289 85 l 378 71 l 365 0 l 1 0 l -3 71 z "},"J":{"ha":635,"x_min":-4,"x_max":664,"o":"m 262 918 l 661 918 l 664 846 l 575 833 l 494 256 q 399 52 475 119 q 195 -15 324 -15 q 86 -5 140 -15 q -4 21 33 5 l 7 211 l 106 211 l 138 71 q 161 67 147 68 q 187 65 175 65 q 215 67 202 65 q 235 73 229 70 q 268 148 253 100 q 290 250 283 195 l 372 833 l 249 846 l 262 918 z "},"K":{"ha":913,"x_min":-5,"x_max":943,"o":"m 362 0 l -2 0 l -5 71 l 83 85 l 189 833 l 100 846 l 113 918 l 477 918 l 481 846 l 392 833 l 344 490 l 353 486 l 720 835 l 663 846 l 677 918 l 940 918 l 943 846 l 866 829 l 554 540 l 808 85 l 882 71 l 872 0 l 650 0 l 420 414 l 320 322 l 286 85 l 376 71 l 362 0 z "},"L":{"ha":701,"x_min":-4,"x_max":660,"o":"m 614 0 l -1 0 l -4 71 l 84 85 l 190 833 l 101 846 l 115 918 l 499 918 l 503 846 l 393 833 l 288 81 l 490 81 l 564 225 l 660 217 l 614 0 z "},"M":{"ha":1380,"x_min":-3,"x_max":1385,"o":"m 290 0 l 1 0 l -3 71 l 85 85 l 191 833 l 102 846 l 116 918 l 485 918 l 648 264 l 659 264 l 1007 918 l 1382 918 l 1385 846 l 1297 833 l 1191 85 l 1280 71 l 1267 0 l 903 0 l 899 71 l 987 85 l 1087 788 l 1076 788 l 652 0 l 526 0 l 325 788 l 314 788 l 214 85 l 304 71 l 290 0 z "},"N":{"ha":1050,"x_min":-5,"x_max":1079,"o":"m 785 918 l 1076 918 l 1079 846 l 990 833 l 873 0 l 620 0 l 318 760 l 307 760 l 212 85 l 301 71 l 288 0 l -2 0 l -5 71 l 83 85 l 189 833 l 100 846 l 113 918 l 454 918 l 755 159 l 766 159 l 861 833 l 772 846 l 785 918 z "},"O":{"ha":970,"x_min":17,"x_max":954,"o":"m 407 -15 q 105 78 193 -15 q 43 356 17 171 l 50 410 q 214 799 85 666 q 566 932 343 932 q 864 839 774 932 q 927 561 954 745 l 920 508 q 753 118 884 251 q 407 -15 623 -15 m 719 531 q 693 772 741 693 q 532 852 646 852 q 440 840 486 852 q 360 812 394 829 q 303 657 330 745 q 263 477 277 569 l 251 387 q 282 150 231 235 q 435 66 334 66 q 528 77 481 66 q 610 106 575 87 q 665 255 637 164 q 707 441 693 345 l 719 531 z "},"P":{"ha":798,"x_min":-1,"x_max":828,"o":"m 400 0 l 2 0 l -1 71 l 87 85 l 193 833 l 104 846 l 117 918 l 505 918 q 753 859 679 918 q 811 675 828 800 q 695 481 792 551 q 467 411 597 411 l 336 411 l 290 85 l 414 71 l 400 0 m 423 492 q 488 495 455 492 q 549 504 522 498 q 580 570 564 528 q 602 656 596 613 q 578 793 616 750 q 450 837 541 837 l 397 837 l 348 492 l 423 492 z "},"Q":{"ha":977,"x_min":14,"x_max":951,"o":"m 404 -15 q 102 78 191 -15 q 40 356 14 170 l 47 410 q 213 800 83 667 q 564 932 342 932 q 860 840 769 932 q 924 561 951 748 l 917 508 q 836 236 895 347 q 682 61 777 124 q 728 -23 703 4 q 790 -51 753 -51 q 832 -46 810 -51 q 872 -34 854 -41 l 863 -95 q 799 -122 834 -113 q 728 -132 764 -132 q 600 -99 651 -132 q 523 -3 548 -66 q 465 -12 494 -9 q 404 -15 436 -15 m 716 531 q 692 770 739 688 q 529 852 646 852 q 439 841 484 852 q 357 812 394 830 q 298 649 323 734 q 260 477 273 563 l 248 387 q 243 326 244 357 q 304 388 262 366 q 401 410 346 410 q 548 360 497 410 q 627 219 598 309 l 639 185 q 675 299 656 233 q 704 441 694 366 l 716 531 m 469 151 q 434 245 450 206 q 399 307 418 285 q 342 330 380 330 q 281 303 303 330 q 258 231 258 277 q 261 199 258 216 q 271 165 264 182 q 339 90 296 115 q 433 66 381 66 q 466 67 450 66 q 497 71 481 68 l 469 151 z "},"R":{"ha":867,"x_min":-3,"x_max":828,"o":"m 365 0 l 1 0 l -3 71 l 85 85 l 191 833 l 102 846 l 116 918 l 499 918 q 729 858 656 918 q 785 680 802 799 q 723 536 772 595 q 594 450 673 477 l 589 437 l 742 86 l 828 71 l 814 0 l 585 0 l 412 411 l 335 411 l 289 85 l 378 71 l 365 0 m 397 492 q 462 496 428 492 q 529 509 496 500 q 557 580 544 538 q 576 663 571 623 q 556 795 590 754 q 435 837 522 837 l 395 837 l 347 492 l 397 492 z "},"S":{"ha":816,"x_min":41,"x_max":775,"o":"m 501 543 q 699 380 658 445 q 727 231 739 315 q 602 51 710 116 q 328 -15 494 -15 q 164 -3 239 -15 q 41 28 89 9 l 52 217 l 167 217 l 197 82 q 259 70 222 75 q 339 66 297 66 q 414 71 376 66 q 478 85 451 77 q 502 133 491 105 q 517 191 513 160 q 491 288 525 243 q 343 407 458 332 q 155 555 201 496 q 122 705 109 614 q 243 869 137 805 q 515 932 349 932 q 654 924 585 932 q 775 897 724 915 l 764 701 l 656 701 l 626 837 q 559 848 593 845 q 496 852 525 852 q 422 846 458 852 q 361 833 385 840 q 343 792 352 817 q 332 746 334 766 q 367 642 323 686 q 501 543 412 598 z "},"T":{"ha":779,"x_min":41,"x_max":833,"o":"m 151 71 l 239 85 l 346 837 l 192 837 l 141 707 l 41 707 l 79 918 l 833 918 l 814 707 l 720 707 l 700 837 l 549 837 l 443 85 l 532 71 l 519 0 l 155 0 l 151 71 z "},"U":{"ha":985,"x_min":83,"x_max":1019,"o":"m 469 846 l 380 833 l 316 370 q 335 144 295 222 q 479 66 374 66 q 586 80 536 66 q 666 117 635 94 q 703 215 684 151 q 733 353 722 278 l 800 833 l 711 846 l 725 918 l 1015 918 l 1019 846 l 930 833 l 863 351 q 733 75 837 165 q 431 -15 629 -15 q 161 71 239 -15 q 107 333 83 157 l 177 833 l 88 846 l 102 918 l 466 918 l 469 846 z "},"V":{"ha":889,"x_min":52,"x_max":968,"o":"m 680 918 l 960 918 l 968 846 l 890 831 l 481 0 l 297 0 l 121 832 l 52 846 l 61 918 l 398 918 l 406 846 l 311 833 l 437 184 l 448 184 l 758 833 l 670 846 l 680 918 z "},"W":{"ha":1432,"x_min":41,"x_max":1516,"o":"m 111 833 l 41 846 l 50 918 l 387 918 l 395 846 l 302 833 l 434 220 l 445 220 l 735 918 l 905 918 l 1035 220 l 1046 220 l 1308 833 l 1218 846 l 1227 918 l 1508 918 l 1516 846 l 1440 831 l 1073 0 l 887 0 l 764 661 l 753 661 l 476 0 l 292 0 l 111 833 z "},"X":{"ha":874,"x_min":-38,"x_max":904,"o":"m 811 0 l 482 0 l 479 71 l 548 81 l 404 359 l 393 359 l 176 81 l 245 71 l 232 0 l -35 0 l -38 71 l 40 86 l 346 469 l 158 832 l 83 846 l 93 918 l 418 918 l 426 846 l 357 836 l 484 593 l 495 593 l 687 837 l 622 846 l 631 918 l 897 918 l 904 846 l 822 830 l 540 482 l 745 86 l 825 71 l 811 0 z "},"Y":{"ha":788,"x_min":19,"x_max":909,"o":"m 28 918 l 355 918 l 362 846 l 291 836 l 446 522 l 457 522 l 691 837 l 623 846 l 633 918 l 901 918 l 909 846 l 826 830 l 517 418 l 470 85 l 559 71 l 546 0 l 182 0 l 178 71 l 267 85 l 311 397 l 94 831 l 19 846 l 28 918 z "},"Z":{"ha":842,"x_min":9,"x_max":827,"o":"m 827 918 l 827 854 l 259 90 l 261 81 l 598 81 l 665 225 l 767 217 l 722 0 l 9 0 l 9 64 l 577 827 l 575 837 l 266 837 l 199 692 l 96 701 l 142 918 l 827 918 z "},"i":{"ha":477,"x_min":92,"x_max":415,"o":"m 106 736 l 330 751 l 385 698 l 300 85 l 389 71 l 375 0 l 151 -15 l 96 38 l 181 651 l 92 665 l 106 736 m 225 948 q 245 1035 225 998 q 292 1072 264 1072 q 378 1052 341 1072 q 415 1005 415 1031 q 395 918 415 954 q 349 882 376 882 q 261 901 297 882 q 225 948 225 920 z "},"`":{"ha":562,"x_min":136,"x_max":426,"o":"m 422 865 l 321 858 l 136 1081 l 142 1126 l 336 1133 l 426 886 l 422 865 z "},"´":{"ha":617,"x_min":136,"x_max":481,"o":"m 139 886 l 298 1133 l 481 1126 l 475 1081 l 227 858 l 136 865 l 139 886 z "},"˜":{"ha":802,"x_min":102,"x_max":701,"o":"m 106 886 q 166 1016 119 972 q 287 1059 214 1059 q 365 1045 326 1059 q 438 1014 404 1031 q 502 983 473 997 q 553 969 532 969 q 596 989 578 969 q 621 1050 614 1009 l 701 1057 l 694 1008 q 638 882 682 928 q 522 836 593 836 q 446 850 486 836 q 368 881 406 864 q 298 912 330 898 q 245 926 265 926 q 200 913 218 926 q 176 859 182 900 l 102 852 l 106 886 z "},",":{"ha":425,"x_min":19,"x_max":276,"o":"m 35 66 q 41 120 35 95 q 59 165 48 146 q 85 196 71 184 q 117 207 100 207 q 150 204 133 207 q 183 197 167 202 q 214 183 199 192 q 239 163 228 175 q 253 145 246 156 q 265 120 260 135 q 273 83 270 104 q 276 34 276 62 q 269 -45 276 -7 q 241 -123 262 -83 q 180 -204 220 -162 q 75 -296 140 -247 l 19 -231 q 91 -176 62 -201 q 137 -128 119 -151 q 161 -86 154 -105 q 169 -50 169 -66 q 156 -24 169 -33 q 124 -11 144 -16 q 59 20 84 0 q 35 66 35 41 z "},"-":{"ha":694,"x_min":102,"x_max":599,"o":"m 102 473 l 599 473 l 599 332 l 102 332 l 102 473 z "},".":{"ha":382,"x_min":19,"x_max":240,"o":"m 19 67 q 25 120 19 95 q 43 165 32 146 q 69 196 54 184 q 101 207 84 207 q 156 200 130 207 q 200 182 181 194 q 229 156 218 171 q 240 123 240 140 q 234 71 240 96 q 216 27 227 46 q 190 -4 205 7 q 157 -15 174 -15 q 103 -8 128 -15 q 59 9 78 -2 q 30 35 41 20 q 19 67 19 50 z "},"?":{"ha":747,"x_min":126,"x_max":741,"o":"m 387 481 q 360 458 371 469 q 343 437 350 447 q 333 417 336 427 q 329 397 330 408 q 331 371 328 382 q 341 352 334 359 q 359 340 349 345 q 380 336 369 336 q 406 339 392 336 q 434 347 420 342 q 461 357 447 351 l 450 289 q 406 272 429 279 q 352 260 382 265 q 288 255 322 255 q 217 263 248 255 q 165 288 186 271 q 135 330 144 305 q 131 390 126 355 q 146 444 135 418 q 177 493 157 469 q 225 545 197 518 q 294 603 254 571 l 433 717 q 480 759 461 740 q 511 794 499 777 q 529 830 523 812 q 538 869 536 848 q 536 910 541 890 q 517 945 531 930 q 479 969 503 960 q 420 978 455 978 q 371 975 393 978 q 333 968 349 972 q 302 960 316 964 l 231 804 l 130 815 l 158 1003 q 241 1030 197 1019 q 341 1050 286 1042 q 463 1059 397 1059 q 586 1046 533 1059 q 675 1009 640 1034 q 725 947 710 984 q 734 863 741 910 q 716 795 730 827 q 676 732 702 764 q 609 664 650 700 q 511 581 568 627 l 387 481 m 130 67 q 136 120 130 95 q 154 165 142 146 q 180 196 165 184 q 212 207 195 207 q 266 200 241 207 q 310 182 292 193 q 340 156 329 171 q 351 123 351 140 q 344 71 351 96 q 327 27 338 46 q 300 -4 315 7 q 268 -15 285 -15 q 214 -8 239 -15 q 170 9 189 -2 q 140 35 151 20 q 130 67 130 50 z "},"!":{"ha":437,"x_min":73,"x_max":423,"o":"m 73 67 q 80 120 73 95 q 97 165 86 146 q 123 196 109 184 q 155 207 138 207 q 210 200 184 207 q 254 182 235 193 q 283 156 273 171 q 294 123 294 140 q 288 71 294 96 q 270 27 281 46 q 244 -4 259 7 q 212 -15 229 -15 q 157 -8 182 -15 q 114 9 132 -2 q 84 35 95 20 q 73 67 73 50 m 201 1044 l 412 1059 l 423 1044 l 267 278 l 144 278 l 201 1044 z "},"'":{"ha":294,"x_min":47,"x_max":233,"o":"m 86 1044 l 233 1044 l 229 1016 l 144 771 l 47 771 l 86 1044 z "},"¡":{"ha":428,"x_min":3,"x_max":352,"o":"m 352 669 q 346 615 352 641 q 328 571 339 590 q 302 540 317 551 q 270 529 287 529 q 215 536 241 529 q 171 554 190 543 q 142 580 153 565 q 131 612 131 595 q 137 665 131 640 q 155 709 144 690 q 181 740 166 728 q 214 751 196 751 q 268 744 243 751 q 312 727 293 738 q 341 701 330 715 q 352 669 352 686 m 224 -295 l 15 -310 l 3 -295 l 158 458 l 281 458 l 224 -295 z "},"¿":{"ha":699,"x_min":-35,"x_max":581,"o":"m 320 261 q 364 306 351 286 q 380 350 377 326 q 368 387 382 374 q 330 399 354 399 q 303 396 318 399 q 275 388 289 393 q 246 378 261 384 l 258 447 q 302 463 278 456 q 355 475 326 470 q 420 481 385 481 q 491 472 460 481 q 543 446 522 463 q 572 404 563 429 q 576 346 581 378 q 562 296 573 319 q 532 249 551 273 q 484 199 513 225 q 414 140 454 172 l 274 26 q 228 -15 246 3 q 197 -50 209 -33 q 178 -82 184 -66 q 170 -115 172 -98 q 171 -159 166 -138 q 191 -195 176 -179 q 229 -219 205 -210 q 287 -229 252 -229 q 336 -226 314 -229 q 375 -219 358 -223 q 406 -210 391 -216 l 476 -54 l 578 -66 l 549 -254 q 466 -281 510 -270 q 366 -301 422 -293 q 244 -310 310 -310 q 122 -299 176 -310 q 33 -264 68 -288 q -19 -205 -3 -241 q -28 -120 -35 -169 q -9 -51 -23 -83 q 32 13 5 -20 q 99 80 58 45 q 197 162 139 116 l 320 261 m 578 669 q 571 615 578 641 q 554 571 565 590 q 528 540 543 551 q 496 529 513 529 q 441 536 467 529 q 397 554 416 543 q 368 580 378 565 q 357 612 357 595 q 363 665 357 640 q 381 709 370 690 q 407 740 392 728 q 439 751 422 751 q 494 744 469 751 q 537 727 519 738 q 567 701 556 715 q 578 669 578 686 z "},"\"":{"ha":489,"x_min":102,"x_max":469,"o":"m 140 1044 l 287 1044 l 283 1016 l 199 771 l 102 771 l 140 1044 m 322 1044 l 469 1044 l 465 1016 l 380 771 l 283 771 l 322 1044 z "},"@":{"ha":1303,"x_min":53,"x_max":1260,"o":"m 541 332 q 532 237 533 273 q 535 180 530 200 q 549 153 539 160 q 572 146 558 146 q 613 166 591 146 q 659 214 636 185 q 704 277 682 243 q 741 341 725 311 l 782 642 q 760 645 771 644 q 735 649 748 647 q 706 650 722 650 q 672 648 687 650 q 645 644 657 646 q 623 637 633 641 q 594 574 607 609 q 568 490 581 538 q 547 379 555 442 l 541 332 m 972 -112 q 863 -161 924 -140 q 740 -195 811 -180 q 582 -210 669 -210 q 376 -189 472 -210 q 208 -116 279 -167 q 94 16 136 -66 q 53 218 53 98 q 77 413 53 321 q 145 585 101 506 q 253 729 190 665 q 396 839 317 793 q 569 908 475 884 q 766 932 662 932 q 969 907 878 932 q 1125 831 1061 881 q 1225 709 1190 782 q 1260 541 1260 635 q 1243 395 1260 460 q 1198 277 1226 329 q 1133 188 1170 226 q 1056 124 1096 150 q 974 85 1015 99 q 897 69 932 72 l 764 60 l 709 113 l 724 228 q 685 166 705 197 q 638 113 665 136 q 575 74 611 89 q 490 60 539 60 q 416 73 448 60 q 365 114 385 85 q 337 186 345 142 q 338 295 330 231 l 347 358 q 385 500 357 434 q 460 616 414 567 q 570 693 507 665 q 712 721 633 721 q 809 712 761 721 q 899 693 857 704 q 983 668 941 682 l 909 142 q 963 163 936 144 q 1013 223 991 181 q 1049 334 1035 264 q 1063 509 1063 404 q 1041 656 1063 594 q 976 759 1019 718 q 872 818 933 799 q 733 838 810 838 q 595 817 659 838 q 477 757 530 795 q 381 665 423 719 q 309 545 338 611 q 265 402 280 479 q 250 243 250 326 q 280 74 250 142 q 365 -37 311 5 q 490 -97 418 -79 q 642 -115 561 -115 q 771 -104 711 -115 q 876 -78 831 -92 q 972 -40 928 -61 l 972 -112 z "},"à":{"ha":844,"x_min":33,"x_max":765,"o":"m 751 0 l 528 -15 l 473 38 l 488 153 q 366 30 433 74 q 231 -15 298 -15 q 78 51 123 -15 q 52 253 33 116 l 70 380 q 202 651 95 551 q 467 751 309 751 q 611 736 531 751 q 761 698 690 722 l 675 85 l 765 71 l 751 0 m 258 313 q 248 136 241 199 q 304 72 255 72 q 392 126 338 72 q 504 267 446 180 l 559 666 q 513 676 541 671 q 453 680 484 680 q 400 675 428 680 q 347 660 373 669 q 300 541 319 609 q 270 401 280 473 l 258 313 m 551 865 l 450 858 l 264 1081 l 271 1126 l 465 1133 l 554 886 l 551 865 z "},"á":{"ha":844,"x_min":33,"x_max":800,"o":"m 751 0 l 528 -15 l 473 38 l 488 153 q 366 30 433 74 q 231 -15 298 -15 q 78 51 123 -15 q 52 253 33 116 l 70 380 q 202 651 95 551 q 467 751 309 751 q 611 736 531 751 q 761 698 690 722 l 675 85 l 765 71 l 751 0 m 258 313 q 248 136 241 199 q 304 72 255 72 q 392 126 338 72 q 504 267 446 180 l 559 666 q 513 676 541 671 q 453 680 484 680 q 400 675 428 680 q 347 660 373 669 q 300 541 319 609 q 270 401 280 473 l 258 313 m 458 886 l 616 1133 l 800 1126 l 793 1081 l 545 858 l 454 865 l 458 886 z "},"è":{"ha":694,"x_min":29,"x_max":696,"o":"m 683 559 q 579 388 667 450 q 352 327 492 327 q 298 329 325 327 q 253 335 272 332 l 248 300 q 262 121 231 183 q 383 60 293 60 q 478 75 425 60 q 589 121 532 91 l 589 49 q 465 2 534 18 q 324 -15 395 -15 q 95 63 161 -15 q 50 291 29 140 l 59 354 q 191 646 86 542 q 450 751 296 751 q 636 703 576 751 q 683 559 696 656 m 338 656 q 295 542 315 606 q 263 404 276 477 q 315 399 288 401 q 362 397 341 397 q 399 400 382 397 q 430 406 417 402 q 463 469 449 434 q 483 544 477 503 q 477 645 492 614 q 417 676 461 676 q 377 671 397 676 q 338 656 357 667 m 526 865 l 425 858 l 239 1081 l 245 1126 l 439 1133 l 529 886 l 526 865 z "},"é":{"ha":694,"x_min":29,"x_max":775,"o":"m 683 559 q 579 388 667 450 q 352 327 492 327 q 298 329 325 327 q 253 335 272 332 l 248 300 q 262 121 231 183 q 383 60 293 60 q 478 75 425 60 q 589 121 532 91 l 589 49 q 465 2 534 18 q 324 -15 395 -15 q 95 63 161 -15 q 50 291 29 140 l 59 354 q 191 646 86 542 q 450 751 296 751 q 636 703 576 751 q 683 559 696 656 m 338 656 q 295 542 315 606 q 263 404 276 477 q 315 399 288 401 q 362 397 341 397 q 399 400 382 397 q 430 406 417 402 q 463 469 449 434 q 483 544 477 503 q 477 645 492 614 q 417 676 461 676 q 377 671 397 676 q 338 656 357 667 m 433 886 l 591 1133 l 775 1126 l 768 1081 l 520 858 l 429 865 l 433 886 z "},"ı":{"ha":477,"x_min":92,"x_max":389,"o":"m 106 736 l 330 751 l 385 698 l 300 85 l 389 71 l 375 0 l 151 -15 l 96 38 l 181 651 l 92 665 l 106 736 z "},"ì":{"ha":477,"x_min":35,"x_max":389,"o":"m 106 736 l 330 751 l 385 698 l 300 85 l 389 71 l 375 0 l 151 -15 l 96 38 l 181 651 l 92 665 l 106 736 m 322 865 l 221 858 l 35 1081 l 42 1126 l 236 1133 l 326 886 l 322 865 z "},"í":{"ha":477,"x_min":92,"x_max":571,"o":"m 106 736 l 330 751 l 385 698 l 300 85 l 389 71 l 375 0 l 151 -15 l 96 38 l 181 651 l 92 665 l 106 736 m 229 886 l 387 1133 l 571 1126 l 564 1081 l 316 858 l 225 865 l 229 886 z "},"#":{"ha":887,"x_min":4,"x_max":876,"o":"m 465 194 l 271 194 l 216 0 l 84 0 l 86 14 l 137 194 l 4 194 l 20 314 l 171 314 l 252 603 l 106 603 l 123 723 l 286 723 l 342 918 l 474 918 l 472 904 l 420 723 l 614 723 l 670 918 l 802 918 l 800 904 l 749 723 l 876 723 l 859 603 l 715 603 l 633 314 l 774 314 l 758 194 l 600 194 l 545 0 l 412 0 l 414 14 l 465 194 m 305 314 l 499 314 l 581 603 l 387 603 l 305 314 z "},"$":{"ha":749,"x_min":-4,"x_max":730,"o":"m 456 543 q 654 380 613 445 q 682 231 694 315 q 557 50 665 116 q 364 -10 477 1 l 345 -153 l 246 -153 l 265 -15 q 119 -3 186 -14 q -4 28 44 9 l 7 217 l 122 217 l 153 82 q 214 70 177 75 q 277 66 244 66 l 322 391 q 298 407 311 399 q 111 555 157 496 q 77 705 64 614 q 198 869 92 805 q 398 929 280 918 l 416 1059 l 515 1059 l 496 932 q 610 924 553 930 q 730 897 679 915 l 719 701 l 612 701 l 581 837 q 514 848 548 845 q 485 850 499 850 l 443 551 q 456 543 450 547 m 433 85 q 457 133 446 105 q 473 191 468 160 q 446 288 480 243 q 411 323 434 303 l 376 72 q 433 85 409 77 m 377 846 q 316 833 340 840 q 298 792 307 817 q 287 746 290 766 q 322 642 278 686 q 353 614 336 629 l 387 847 l 377 846 z "},"%":{"ha":1103,"x_min":63,"x_max":1036,"o":"m 869 918 l 1015 918 l 1013 904 l 230 0 l 84 0 l 86 14 l 869 918 m 69 718 q 98 801 75 762 q 153 869 120 840 q 228 916 186 899 q 314 932 269 932 q 395 916 358 932 q 456 869 431 899 q 493 801 481 840 q 498 718 504 762 q 469 634 492 673 q 414 567 447 595 q 339 521 380 538 q 254 504 298 504 q 172 521 209 504 q 111 567 136 538 q 75 634 86 595 q 69 718 63 673 m 197 718 q 210 638 190 662 q 269 614 229 614 q 303 620 286 614 q 333 638 319 626 q 355 670 346 650 q 369 718 365 690 q 369 766 373 747 q 355 798 365 786 q 330 816 345 810 q 298 822 315 822 q 232 798 258 822 q 197 718 205 774 m 601 199 q 629 282 607 243 q 685 351 652 321 q 759 397 718 380 q 845 414 800 414 q 926 397 889 414 q 987 351 962 380 q 1024 282 1013 321 q 1029 199 1036 243 q 1001 116 1023 155 q 945 48 978 77 q 870 2 911 19 q 785 -15 829 -15 q 703 2 740 -15 q 642 48 667 19 q 606 116 617 77 q 601 199 595 155 m 729 199 q 741 119 721 143 q 800 96 760 96 q 834 101 817 96 q 864 119 850 107 q 887 151 877 132 q 901 199 897 171 q 900 248 905 228 q 886 279 896 267 q 861 297 876 292 q 829 303 846 303 q 763 279 789 303 q 729 199 736 256 z "},"&":{"ha":1010,"x_min":-39,"x_max":999,"o":"m 871 359 q 827 237 861 295 q 737 131 793 179 q 810 83 774 100 q 880 66 845 66 q 923 69 901 66 q 961 77 944 73 q 999 89 981 82 l 988 31 q 945 7 969 18 q 897 -8 925 -1 q 832 -15 868 -15 q 723 2 777 -15 q 616 52 669 20 q 474 3 551 20 q 311 -15 397 -15 q 48 39 136 -15 q -25 199 -39 92 l -24 207 q 4 287 -18 250 q 60 358 26 325 q 138 420 94 391 q 229 475 181 450 q 166 599 182 546 q 157 699 150 652 l 159 711 q 194 793 166 753 q 269 864 222 833 q 381 913 316 895 q 526 932 446 932 q 640 920 592 932 q 717 883 687 907 q 759 827 747 860 q 766 755 771 795 l 764 740 q 738 665 758 699 q 680 598 718 631 q 588 532 643 565 q 459 460 534 498 q 550 338 506 397 q 636 231 593 280 q 665 293 653 260 q 682 363 676 326 l 685 389 l 594 411 l 613 471 l 888 486 l 871 359 m 342 66 q 438 79 391 66 q 526 118 485 92 q 407 237 465 170 q 294 380 349 303 q 249 350 268 367 q 216 314 229 332 q 194 276 202 295 q 184 238 186 256 l 182 231 q 186 166 177 196 q 216 114 195 136 q 269 79 237 92 q 342 66 301 66 m 559 731 q 543 822 568 792 q 470 852 517 852 q 441 849 454 852 q 419 843 429 846 q 398 835 408 840 q 383 805 390 822 q 372 770 378 791 q 364 724 366 749 l 363 716 q 361 675 361 696 q 365 634 361 655 q 375 593 368 614 q 395 550 382 572 q 461 593 433 572 q 510 633 490 613 q 542 675 530 654 q 557 722 553 697 l 559 731 z "},"(":{"ha":498,"x_min":56,"x_max":559,"o":"m 267 368 q 255 220 256 290 q 258 87 253 149 q 273 -29 263 24 q 296 -127 283 -83 q 368 -309 324 -230 l 286 -350 q 153 -165 208 -273 q 109 -64 129 -120 q 75 59 88 -7 q 59 203 62 126 q 68 368 56 281 q 105 530 81 454 q 161 672 129 606 q 229 795 193 739 q 302 898 265 852 q 488 1086 387 1006 l 559 1045 q 435 863 492 966 q 385 765 410 819 q 337 649 359 711 q 296 517 315 587 q 267 368 278 446 z "},")":{"ha":513,"x_min":-61,"x_max":441,"o":"m 231 368 q 243 519 241 448 q 240 652 245 590 q 224 768 235 715 q 202 865 214 821 q 129 1045 173 967 l 211 1086 q 345 900 289 1007 q 389 798 368 854 q 422 675 410 742 q 438 531 435 608 q 429 368 441 454 q 393 209 417 285 q 337 67 369 134 q 269 -55 305 1 q 196 -158 233 -112 q 10 -350 111 -267 l -61 -309 q 62 -127 5 -231 q 112 -30 87 -83 q 160 86 137 24 q 201 219 182 148 q 231 368 219 290 z "},"*":{"ha":523,"x_min":27,"x_max":600,"o":"m 345 731 l 352 562 l 347 524 l 202 524 l 208 562 l 262 730 l 115 619 l 80 600 l 27 724 l 58 742 l 231 801 l 77 859 l 49 879 l 136 1003 l 166 984 l 282 872 l 275 1041 l 280 1080 l 425 1080 l 419 1041 l 364 873 l 511 984 l 547 1003 l 600 879 l 565 859 l 396 802 l 550 744 l 578 724 l 490 600 l 460 619 l 345 731 z "},"/":{"ha":547,"x_min":-81,"x_max":623,"o":"m 477 1044 l 623 1044 l 622 1031 l 64 -200 l -81 -200 l -80 -186 l 477 1044 z "},":":{"ha":420,"x_min":30,"x_max":319,"o":"m 30 67 q 36 120 30 95 q 54 165 43 146 q 80 196 65 184 q 112 207 95 207 q 166 200 141 207 q 211 182 192 194 q 240 156 229 171 q 251 123 251 140 q 244 71 251 96 q 227 27 238 46 q 200 -4 216 7 q 168 -15 185 -15 q 114 -8 139 -15 q 70 9 89 -2 q 41 35 52 20 q 30 67 30 50 m 98 549 q 104 603 98 577 q 122 647 111 628 q 148 678 133 667 q 180 689 163 689 q 234 683 209 689 q 278 665 260 676 q 308 638 297 653 q 319 606 319 623 q 312 553 319 578 q 295 509 306 528 q 268 478 283 490 q 236 467 253 467 q 182 474 207 467 q 138 491 157 480 q 109 517 119 503 q 98 549 98 532 z "},";":{"ha":433,"x_min":30,"x_max":334,"o":"m 113 549 q 120 603 113 577 q 137 647 126 628 q 163 678 149 667 q 195 689 178 689 q 250 683 224 689 q 294 665 275 676 q 323 638 313 653 q 334 606 334 623 q 328 553 334 578 q 310 509 321 528 q 284 478 299 490 q 252 467 269 467 q 197 474 222 467 q 154 491 172 480 q 124 517 135 503 q 113 549 113 532 m 45 66 q 52 120 45 95 q 70 165 59 146 q 96 196 81 184 q 128 207 111 207 q 161 204 144 207 q 194 197 178 202 q 225 184 210 192 q 250 163 239 176 q 264 145 257 156 q 276 120 271 135 q 284 83 281 104 q 287 34 287 62 q 280 -45 287 -7 q 252 -123 273 -83 q 191 -204 231 -162 q 85 -296 151 -247 l 30 -231 q 101 -176 73 -201 q 148 -128 130 -151 q 172 -86 165 -105 q 180 -50 180 -66 q 167 -25 180 -33 q 135 -11 155 -16 q 70 20 95 -1 q 45 66 45 41 z "},"[":{"ha":458,"x_min":0,"x_max":519,"o":"m 202 1137 l 519 1137 l 510 1065 l 380 1065 l 197 -238 l 326 -238 l 317 -310 l 0 -310 l 202 1137 z "},"\\":{"ha":522,"x_min":88,"x_max":448,"o":"m 448 -186 l 446 -200 l 300 -200 l 88 1031 l 90 1044 l 235 1044 l 448 -186 z "},"{":{"ha":566,"x_min":57,"x_max":621,"o":"m 67 450 l 132 450 q 193 466 174 450 q 217 524 212 483 l 277 947 q 302 1023 283 988 q 350 1083 321 1058 q 415 1123 378 1109 q 493 1137 452 1137 l 621 1137 l 611 1065 l 597 1065 q 505 1039 535 1065 q 465 950 474 1012 l 410 562 q 392 492 404 519 q 362 447 379 464 q 327 424 346 431 q 288 417 307 417 l 288 410 q 324 404 307 410 q 353 380 341 397 q 370 336 365 363 q 369 266 375 308 l 314 -123 q 328 -211 305 -184 q 413 -238 351 -238 l 427 -238 l 418 -310 l 290 -310 q 217 -296 250 -310 q 162 -256 184 -281 q 130 -196 140 -231 q 127 -120 121 -161 l 186 303 q 178 361 192 345 q 122 378 163 378 l 57 378 l 67 450 z "},"}":{"ha":566,"x_min":-54,"x_max":509,"o":"m 498 378 l 433 378 q 373 361 392 378 q 349 303 354 345 l 289 -120 q 264 -196 283 -161 q 216 -256 245 -231 q 150 -296 187 -281 q 73 -310 113 -310 l -54 -310 l -45 -238 l -31 -238 q 61 -211 31 -238 q 100 -123 92 -184 l 155 266 q 175 336 161 308 q 207 380 189 363 q 243 404 224 397 q 277 410 262 410 l 278 417 q 246 424 262 417 q 216 447 229 431 q 197 492 203 464 q 197 562 191 519 l 252 950 q 237 1039 260 1012 q 153 1065 214 1065 l 138 1065 l 148 1137 l 275 1137 q 349 1123 316 1137 q 404 1083 382 1109 q 435 1023 426 1058 q 439 947 445 988 l 379 524 q 388 466 374 483 q 444 450 402 450 l 509 450 l 498 378 z "}," ":{"ha":373,"x_min":0,"x_max":0,"o":""},"£":{"ha":751,"x_min":5,"x_max":724,"o":"m 54 454 l 132 473 q 125 530 128 503 q 122 581 123 556 q 123 630 121 606 q 128 680 124 654 q 160 778 136 732 q 230 858 185 824 q 339 912 274 892 q 491 932 404 932 q 588 924 545 932 q 664 903 631 915 q 724 876 697 892 l 699 695 l 599 685 l 570 845 q 548 851 560 848 q 517 856 535 854 q 476 858 499 858 q 430 855 450 858 q 393 849 409 852 q 365 840 378 845 q 351 800 357 821 q 337 750 344 779 q 326 688 331 722 q 320 634 322 659 q 318 587 318 610 q 321 538 319 564 q 328 481 324 513 l 589 481 l 578 400 l 339 400 q 345 326 344 360 q 340 254 345 291 q 326 185 335 217 q 309 130 317 154 q 287 81 298 103 l 503 81 l 577 212 l 673 197 l 628 0 l 11 0 l 5 60 l 103 79 q 110 94 104 81 q 122 126 115 106 q 136 173 129 146 q 147 230 143 199 q 151 269 150 250 q 151 308 152 288 q 148 351 151 328 q 142 400 146 373 l 60 400 l 54 454 z "},"¥":{"ha":788,"x_min":19,"x_max":909,"o":"m 118 262 l 292 262 l 306 363 l 131 363 l 142 442 l 288 442 l 94 831 l 19 846 l 28 918 l 355 918 l 362 846 l 291 836 l 446 522 l 457 522 l 691 837 l 623 846 l 633 918 l 901 918 l 909 846 l 826 830 l 535 442 l 686 442 l 675 363 l 509 363 l 495 262 l 663 262 l 652 183 l 484 183 l 470 85 l 559 71 l 546 0 l 182 0 l 178 71 l 267 85 l 280 183 l 107 183 l 118 262 z "},"§":{"ha":810,"x_min":56,"x_max":779,"o":"m 521 699 q 633 631 583 663 q 715 564 682 598 q 764 491 749 529 q 772 406 779 453 q 756 351 768 376 q 727 306 744 326 q 687 269 709 286 q 638 239 665 253 q 675 174 664 210 q 680 92 686 139 q 579 -44 667 -1 q 326 -87 492 -87 q 218 -80 267 -87 q 130 -63 170 -73 q 56 -39 91 -53 l 96 151 l 184 151 l 184 3 q 223 -5 202 -1 q 273 -10 245 -8 q 336 -12 301 -12 q 389 -11 365 -12 q 431 -7 414 -9 q 467 -1 449 -5 q 477 15 472 6 q 486 35 481 23 q 492 60 490 46 q 486 108 496 86 q 451 152 477 130 q 382 200 426 174 q 274 260 338 226 q 186 312 225 286 q 120 369 146 338 q 81 436 93 399 q 76 520 69 473 q 92 575 80 550 q 120 621 103 600 q 160 659 138 642 q 209 691 182 676 q 176 751 185 719 q 172 825 166 783 q 197 892 177 860 q 258 950 218 925 q 362 991 299 976 q 515 1006 425 1006 q 624 999 576 1006 q 709 983 672 992 q 777 960 747 973 l 736 770 l 648 770 l 648 918 q 607 924 628 922 q 558 929 585 927 q 501 932 532 932 q 454 929 476 932 q 416 924 433 927 q 383 918 400 922 q 374 902 378 910 q 366 885 370 895 q 361 864 363 876 q 364 822 358 840 q 389 786 370 804 q 439 747 407 768 q 521 699 471 726 m 430 381 q 499 341 467 360 q 561 304 532 323 q 583 372 577 334 q 580 419 587 398 q 554 459 573 439 q 505 498 536 478 q 429 543 473 517 q 352 586 388 566 q 286 626 316 606 q 273 596 278 612 q 264 564 267 581 q 266 518 261 538 q 290 477 271 498 q 342 434 309 457 q 430 381 376 412 z "},"¢":{"ha":676,"x_min":26,"x_max":668,"o":"m 630 541 l 545 534 l 545 667 q 497 673 522 671 q 488 674 492 674 l 402 60 q 475 77 436 64 q 573 121 527 94 l 573 49 q 452 1 519 18 q 392 -10 422 -6 l 370 -166 l 290 -166 l 311 -15 q 94 61 160 -13 q 49 291 26 137 l 58 354 q 197 647 85 544 q 419 748 292 735 l 443 918 l 523 918 l 499 749 q 576 741 538 748 q 668 715 631 732 l 630 541 m 399 671 q 342 652 372 665 q 291 528 312 596 q 258 381 269 459 l 247 300 q 254 122 230 185 q 323 66 271 79 l 408 672 q 399 671 404 671 z "},"µ":{"ha":900,"x_min":28,"x_max":840,"o":"m 87 736 l 311 751 l 364 684 l 302 230 q 294 150 295 181 q 299 102 294 119 q 315 78 304 85 q 343 72 326 72 q 383 84 361 72 q 427 114 405 96 q 470 156 449 133 q 509 199 491 178 q 539 238 527 220 q 557 263 552 255 l 612 651 l 523 665 l 536 736 l 761 751 l 816 698 l 732 103 l 840 80 l 814 0 q 775 -7 796 -5 q 735 -13 758 -11 q 688 -15 712 -15 q 613 2 642 -15 q 568 43 585 18 q 547 97 552 68 q 543 151 541 126 q 525 126 537 142 q 496 92 513 111 q 458 55 479 74 q 411 20 436 36 q 356 -5 385 5 q 297 -15 328 -15 q 239 -4 260 -15 q 203 24 217 6 l 196 18 l 227 -295 l 28 -310 l 162 651 l 73 665 l 87 736 z "},"¶":{"ha":800,"x_min":62,"x_max":881,"o":"m 362 329 q 242 345 299 329 q 144 396 185 361 q 83 485 103 431 q 73 616 62 539 q 117 749 84 692 q 201 843 151 806 q 316 899 251 880 q 454 918 380 918 l 877 918 l 881 851 l 774 828 l 671 87 q 629 -38 661 16 q 552 -130 598 -92 q 447 -186 505 -167 q 326 -205 389 -205 q 246 -200 281 -205 q 183 -189 210 -195 q 133 -173 155 -182 l 144 -97 q 185 -107 163 -103 q 233 -115 206 -112 q 292 -118 260 -118 q 357 -107 328 -118 q 408 -72 386 -96 q 445 -7 430 -47 q 467 90 459 33 l 572 830 l 477 830 l 406 329 l 362 329 z "},"ß":{"ha":879,"x_min":-190,"x_max":848,"o":"m 68 736 l 197 736 l 203 779 q 240 896 214 844 q 310 984 267 947 q 414 1040 353 1020 q 554 1059 475 1059 q 671 1046 618 1059 q 760 1006 724 1033 q 811 940 795 980 q 819 844 827 899 q 792 754 810 795 q 750 679 774 713 q 697 615 726 644 q 635 561 667 586 l 725 465 q 774 405 750 436 q 815 340 798 374 q 840 270 832 307 q 842 195 848 234 q 811 109 835 148 q 751 43 788 71 q 664 0 714 16 q 555 -15 614 -15 q 475 -8 511 -15 q 410 7 439 -1 q 356 29 381 16 l 378 203 l 468 203 l 484 68 q 503 64 492 66 q 525 61 513 62 q 551 60 536 60 q 575 61 564 60 q 594 64 586 62 q 610 69 602 66 q 621 90 616 79 q 631 116 626 101 q 639 149 635 130 q 639 201 644 175 q 620 255 634 227 q 580 317 605 283 q 520 391 555 350 l 458 467 l 471 548 q 532 616 506 583 q 575 681 557 648 q 604 749 593 714 q 619 824 615 784 q 620 899 624 869 q 604 949 616 930 q 574 976 593 968 q 532 985 556 985 q 500 983 515 985 q 475 978 486 981 q 454 972 464 976 q 435 925 444 950 q 417 869 426 900 q 404 801 409 838 l 285 -32 q 247 -168 272 -114 q 185 -253 221 -222 q 104 -297 149 -285 q 6 -310 59 -310 q -74 -305 -38 -310 q -138 -294 -110 -300 q -190 -278 -166 -287 l -159 -189 q -102 -207 -131 -199 q -41 -219 -73 -214 q 23 -224 -9 -224 q 46 -185 35 -208 q 68 -129 58 -162 q 86 -50 79 -96 l 186 665 l 58 665 l 68 736 z "},"æ":{"ha":1088,"x_min":3,"x_max":1078,"o":"m 1070 544 q 1037 457 1064 497 q 968 388 1010 417 q 871 343 926 359 q 750 327 815 327 q 681 329 711 327 q 631 332 650 330 l 626 300 q 626 192 617 237 q 657 117 635 146 q 711 74 679 87 q 782 60 744 60 q 853 69 818 60 q 919 91 888 79 q 980 121 949 103 l 980 49 q 917 18 951 31 q 838 -5 882 5 q 736 -15 793 -15 q 576 17 637 -15 q 485 105 515 48 q 443 71 469 91 q 379 31 416 50 q 298 -1 343 12 q 199 -15 252 -15 q 114 -3 152 -15 q 51 31 76 8 q 14 87 25 54 q 9 165 3 121 q 48 263 17 219 q 136 340 79 308 q 277 390 193 372 q 478 408 362 408 l 488 476 q 489 571 496 533 q 466 633 483 610 q 425 666 450 656 q 370 676 399 676 q 330 674 350 676 q 294 670 311 673 q 259 666 277 668 l 198 509 l 112 509 l 139 714 q 210 732 172 724 q 295 745 248 739 q 397 751 342 751 q 538 732 481 751 q 626 671 595 713 q 732 731 674 711 q 854 751 789 751 q 956 739 911 751 q 1027 701 1000 726 q 1066 636 1055 675 q 1070 544 1078 597 m 277 60 q 334 74 303 60 q 392 105 364 87 q 439 139 419 123 q 465 159 459 155 q 462 291 452 218 l 468 334 q 365 328 407 333 q 295 315 323 322 q 246 297 266 308 q 230 266 237 283 q 217 227 223 249 q 208 178 212 205 q 218 88 201 116 q 277 60 236 60 m 743 656 q 703 590 721 626 q 668 507 685 554 q 641 401 651 460 q 667 400 652 401 q 698 399 682 399 q 731 398 714 398 q 765 397 749 397 q 796 399 782 397 q 822 403 810 401 q 842 409 833 406 q 857 443 849 424 q 869 483 863 459 q 880 536 876 506 q 885 604 886 577 q 876 647 884 631 q 854 670 868 663 q 819 676 840 676 q 790 673 804 676 q 765 666 777 669 q 743 656 753 662 z "},"«":{"ha":770,"x_min":61,"x_max":743,"o":"m 302 78 l 61 363 l 67 404 l 389 690 l 507 690 l 505 675 l 262 391 l 260 377 l 423 93 l 421 78 l 302 78 m 546 108 l 389 372 l 393 396 l 624 660 l 743 660 l 741 645 l 591 384 l 667 123 l 665 108 l 546 108 z "},"­":{"ha":610,"x_min":88,"x_max":535,"o":"m 109 465 l 535 492 l 515 364 l 88 336 l 109 465 z "},"»":{"ha":770,"x_min":27,"x_max":709,"o":"m 262 78 l 264 93 l 508 377 l 510 391 l 347 675 l 349 690 l 474 690 l 709 404 l 703 363 l 388 78 l 262 78 m 27 108 l 29 123 l 180 384 l 103 645 l 105 660 l 231 660 l 380 396 l 377 372 l 153 108 l 27 108 z "},"π":{"ha":991,"x_min":95,"x_max":1018,"o":"m 98 -15 l 95 60 q 148 127 116 84 q 215 233 180 171 q 284 376 250 295 q 345 554 319 456 l 340 554 q 278 551 306 554 q 227 538 250 548 q 184 510 204 528 q 146 462 165 492 l 98 473 q 141 590 117 538 q 199 677 165 641 q 277 732 233 713 q 378 751 321 751 q 442 749 406 751 q 518 745 478 747 q 599 740 557 743 q 680 735 640 737 q 754 731 719 732 q 816 729 789 729 q 868 730 846 729 q 905 732 890 731 q 935 736 923 734 l 967 785 l 1018 770 q 992 690 1008 732 q 949 613 976 648 q 883 556 923 578 q 785 532 844 533 l 726 115 l 856 92 l 829 0 q 795 -7 813 -5 q 759 -13 779 -11 q 717 -15 739 -15 q 633 -4 669 -15 q 572 27 596 6 q 539 81 549 49 q 535 157 529 113 l 589 540 q 528 544 557 542 q 470 548 498 547 q 422 359 448 446 q 370 203 397 272 q 318 82 344 134 q 271 0 292 31 l 98 -15 z "}," ":{"ha":746,"x_min":0,"x_max":0,"o":""},"‐":{"ha":610,"x_min":88,"x_max":535,"o":"m 109 465 l 535 492 l 515 364 l 88 336 l 109 465 z "},"‒":{"ha":746,"x_min":38,"x_max":694,"o":"m 52 515 l 694 515 l 681 389 l 38 389 l 52 515 z "},"–":{"ha":760,"x_min":27,"x_max":733,"o":"m 41 451 l 733 451 l 720 332 l 27 332 l 41 451 z "},"—":{"ha":1434,"x_min":27,"x_max":1407,"o":"m 41 451 l 1407 451 l 1394 332 l 27 332 l 41 451 z "},"―":{"ha":1706,"x_min":27,"x_max":1678,"o":"m 41 451 l 1678 451 l 1665 332 l 27 332 l 41 451 z "},"‘":{"ha":398,"x_min":149,"x_max":420,"o":"m 390 697 q 376 643 386 669 q 351 598 366 618 q 320 568 337 579 q 287 557 304 557 q 222 567 255 557 q 171 600 190 576 q 161 618 165 608 q 153 644 156 629 q 150 680 150 659 q 153 730 149 701 q 170 809 159 770 q 206 886 182 847 q 270 968 230 926 q 374 1059 311 1010 l 420 994 q 354 940 381 965 q 309 891 327 914 q 283 849 292 869 q 272 813 274 830 q 281 788 269 797 q 311 774 292 780 q 372 744 350 764 q 390 697 393 723 z "},"’":{"ha":492,"x_min":72,"x_max":343,"o":"m 102 919 q 116 973 106 947 q 140 1018 126 998 q 171 1048 155 1037 q 205 1059 188 1059 q 269 1049 237 1059 q 321 1016 302 1040 q 331 998 326 1008 q 339 972 336 987 q 343 936 342 957 q 339 886 343 915 q 321 807 333 846 q 286 730 310 769 q 221 648 262 690 q 118 557 181 606 l 72 622 q 138 676 111 651 q 182 725 165 702 q 209 767 200 747 q 220 803 218 786 q 211 828 222 819 q 180 842 199 836 q 120 872 142 852 q 102 919 98 893 z "},"‚":{"ha":439,"x_min":19,"x_max":290,"o":"m 49 66 q 63 120 53 95 q 87 165 73 146 q 118 196 102 184 q 152 207 135 207 q 216 197 184 207 q 268 163 249 187 q 278 145 273 156 q 287 120 283 135 q 290 83 290 104 q 286 34 290 62 q 269 -45 280 -7 q 233 -123 257 -83 q 169 -204 209 -162 q 65 -296 128 -247 l 19 -231 q 85 -176 58 -201 q 130 -128 112 -151 q 156 -86 147 -105 q 167 -50 165 -66 q 158 -25 170 -33 q 127 -11 146 -16 q 67 20 89 -1 q 49 66 45 41 z "},"“":{"ha":680,"x_min":149,"x_max":702,"o":"m 390 697 q 376 643 386 669 q 351 598 366 618 q 320 568 337 579 q 287 557 304 557 q 255 559 271 557 q 223 567 238 562 q 194 580 208 572 q 172 600 180 588 q 161 618 166 608 q 153 644 156 629 q 150 680 150 659 q 153 730 149 701 q 171 809 159 770 q 206 886 182 847 q 270 968 230 926 q 374 1059 311 1010 l 420 994 q 354 940 381 965 q 309 891 327 914 q 283 849 292 869 q 272 813 274 830 q 281 788 269 797 q 311 774 292 780 q 372 744 350 764 q 390 697 393 723 m 672 697 q 658 643 668 669 q 633 598 648 618 q 603 568 619 579 q 569 557 586 557 q 505 567 537 557 q 453 600 472 576 q 443 618 448 608 q 434 644 437 629 q 431 680 431 659 q 435 730 431 701 q 452 809 441 770 q 488 886 464 847 q 552 968 512 926 q 656 1059 593 1010 l 702 994 q 636 940 663 965 q 591 891 609 914 q 565 849 574 869 q 554 813 556 830 q 563 788 551 797 q 593 774 574 780 q 654 744 632 764 q 672 697 675 723 z "},"”":{"ha":774,"x_min":72,"x_max":625,"o":"m 101 919 q 115 973 105 947 q 140 1018 125 998 q 171 1048 154 1037 q 204 1059 187 1059 q 269 1049 236 1059 q 320 1016 301 1040 q 331 998 326 1008 q 339 972 336 987 q 342 936 342 957 q 338 886 342 915 q 321 807 332 846 q 285 730 309 769 q 221 648 261 690 q 117 557 180 606 l 72 622 q 138 676 111 651 q 182 725 165 702 q 208 767 199 747 q 219 803 217 786 q 210 828 222 819 q 180 842 199 836 q 119 872 141 852 q 101 919 98 893 m 383 919 q 397 973 387 947 q 422 1018 408 998 q 453 1048 436 1037 q 486 1059 469 1059 q 551 1049 518 1059 q 602 1016 583 1040 q 613 998 608 1008 q 621 972 618 987 q 624 936 624 957 q 621 886 625 915 q 603 807 614 846 q 567 730 591 769 q 503 648 543 690 q 399 557 463 606 l 353 622 q 419 676 392 651 q 464 725 446 702 q 490 767 481 747 q 501 803 499 786 q 492 828 504 819 q 462 842 481 836 q 401 872 423 852 q 383 919 380 893 z "},"„":{"ha":722,"x_min":19,"x_max":572,"o":"m 49 66 q 63 120 53 95 q 87 165 73 146 q 118 196 102 184 q 152 207 135 207 q 216 197 184 207 q 268 163 249 187 q 278 145 273 156 q 287 120 283 135 q 290 83 290 104 q 286 34 290 62 q 269 -45 280 -7 q 233 -123 257 -83 q 169 -204 209 -162 q 65 -296 128 -247 l 19 -231 q 85 -176 58 -201 q 130 -128 112 -151 q 156 -86 147 -105 q 167 -50 165 -66 q 158 -25 170 -33 q 127 -11 146 -16 q 67 20 89 -1 q 49 66 45 41 m 331 66 q 345 120 335 95 q 370 165 355 146 q 400 196 384 184 q 434 207 417 207 q 498 197 466 207 q 550 163 531 187 q 561 145 555 156 q 569 120 566 135 q 572 83 572 104 q 568 34 572 62 q 551 -45 562 -7 q 515 -123 539 -83 q 451 -204 491 -162 q 347 -296 410 -247 l 301 -231 q 367 -176 340 -201 q 412 -128 394 -151 q 438 -86 429 -105 q 449 -50 447 -66 q 440 -25 452 -33 q 410 -11 429 -16 q 349 20 371 -1 q 331 66 328 41 z "},"†":{"ha":779,"x_min":80,"x_max":774,"o":"m 121 773 l 366 746 l 380 1044 l 578 1059 l 507 746 l 774 773 l 733 584 l 488 611 l 429 0 l 231 -15 l 347 611 l 80 584 l 121 773 z "},"‡":{"ha":779,"x_min":36,"x_max":774,"o":"m 688 271 l 444 298 l 429 0 l 231 -15 l 302 298 l 36 271 l 76 460 l 321 433 l 307 525 l 347 611 l 80 584 l 121 773 l 366 746 l 380 1044 l 578 1059 l 507 746 l 774 773 l 733 584 l 488 611 l 503 525 l 463 433 l 729 460 l 688 271 z "},"•":{"ha":625,"x_min":142,"x_max":493,"o":"m 142 391 q 153 476 142 435 q 181 547 163 516 q 222 595 199 577 q 273 613 246 613 q 360 603 320 613 q 430 574 400 592 q 476 532 459 557 q 493 481 493 508 q 483 397 493 437 q 455 327 473 357 q 413 279 437 297 q 362 261 389 261 q 276 271 316 261 q 206 299 235 281 q 159 341 176 317 q 142 391 142 365 z "},"‰":{"ha":1536,"x_min":64,"x_max":1469,"o":"m 851 918 l 997 918 l 995 904 l 212 0 l 66 0 l 68 14 l 851 918 m 71 718 q 99 801 77 762 q 155 869 121 840 q 229 916 188 899 q 315 932 271 932 q 396 916 359 932 q 458 869 433 899 q 494 801 483 840 q 499 718 505 762 q 471 634 493 673 q 415 567 448 595 q 340 521 382 538 q 255 504 299 504 q 174 521 210 504 q 112 567 137 538 q 76 634 87 595 q 71 718 64 673 m 199 718 q 211 638 191 662 q 271 614 231 614 q 304 620 288 614 q 334 638 321 626 q 357 670 347 650 q 370 718 366 690 q 370 766 374 747 q 356 798 366 786 q 332 816 347 810 q 300 822 317 822 q 233 798 260 822 q 199 718 207 774 m 567 199 q 595 282 573 243 q 651 351 618 321 q 725 397 684 380 q 811 414 766 414 q 892 397 855 414 q 954 351 928 380 q 990 282 979 321 q 996 199 1002 243 q 967 116 989 155 q 911 48 944 77 q 836 2 878 19 q 751 -15 795 -15 q 669 2 706 -15 q 608 48 633 19 q 572 116 583 77 q 567 199 561 155 m 695 199 q 707 119 687 143 q 766 96 726 96 q 800 101 783 96 q 830 119 817 107 q 853 151 843 132 q 867 199 863 171 q 866 248 871 228 q 852 279 862 267 q 827 297 842 292 q 795 303 812 303 q 729 279 755 303 q 695 199 703 256 m 1034 199 q 1063 282 1040 243 q 1118 351 1085 321 q 1192 397 1151 380 q 1278 414 1234 414 q 1359 397 1322 414 q 1421 351 1396 380 q 1457 282 1446 321 q 1463 199 1469 243 q 1434 116 1457 155 q 1378 48 1411 77 q 1303 2 1345 19 q 1218 -15 1262 -15 q 1137 2 1173 -15 q 1075 48 1100 19 q 1039 116 1050 77 q 1034 199 1028 155 m 1162 199 q 1174 119 1154 143 q 1234 96 1194 96 q 1267 101 1251 96 q 1297 119 1284 107 q 1320 151 1310 132 q 1334 199 1330 171 q 1334 248 1338 228 q 1319 279 1329 267 q 1295 297 1310 292 q 1263 303 1280 303 q 1196 279 1223 303 q 1162 199 1170 256 z "},"′":{"ha":318,"x_min":54,"x_max":291,"o":"m 151 918 l 291 918 l 287 889 l 151 617 l 54 617 l 151 918 z "},"″":{"ha":502,"x_min":54,"x_max":475,"o":"m 151 918 l 291 918 l 287 889 l 151 617 l 54 617 l 151 918 m 335 918 l 475 918 l 471 889 l 335 617 l 238 617 l 335 918 z "},"‹":{"ha":534,"x_min":61,"x_max":507,"o":"m 296 78 l 61 363 l 67 404 l 382 690 l 507 690 l 505 675 l 262 391 l 260 377 l 423 93 l 421 78 l 296 78 z "},"›":{"ha":534,"x_min":27,"x_max":473,"o":"m 27 78 l 29 93 l 273 377 l 275 391 l 111 675 l 113 690 l 239 690 l 473 404 l 467 363 l 153 78 l 27 78 z "},"←":{"ha":1433,"x_min":54,"x_max":1406,"o":"m 1389 331 l 279 331 l 356 268 l 293 207 l 54 362 l 62 419 l 345 575 l 391 514 l 296 450 l 1406 450 l 1389 331 z "},"↑":{"ha":450,"x_min":95,"x_max":490,"o":"m 95 -280 l 251 830 l 176 744 l 122 798 l 314 1059 l 371 1059 l 490 798 l 422 744 l 370 830 l 214 -280 l 95 -280 z "},"→":{"ha":1433,"x_min":54,"x_max":1406,"o":"m 71 451 l 1181 451 l 1104 514 l 1167 575 l 1406 420 l 1398 363 l 1115 207 l 1069 268 l 1164 332 l 54 332 l 71 451 z "},"↓":{"ha":530,"x_min":41,"x_max":435,"o":"m 435 1059 l 279 -51 l 355 35 l 408 -19 l 216 -280 l 159 -280 l 41 -19 l 109 35 l 160 -51 l 316 1059 l 435 1059 z "},"∕":{"ha":898,"x_min":3,"x_max":895,"o":"m 796 918 l 895 918 l 892 904 l 101 0 l 3 0 l 5 14 l 796 918 z "},"∙":{"ha":625,"x_min":142,"x_max":493,"o":"m 142 391 q 153 476 142 435 q 181 547 163 516 q 222 595 199 577 q 273 613 246 613 q 360 603 320 613 q 430 574 400 592 q 476 532 459 557 q 493 481 493 508 q 483 397 493 437 q 455 327 473 357 q 413 279 437 297 q 362 261 389 261 q 276 271 316 261 q 206 299 235 281 q 159 341 176 317 q 142 391 142 365 z "},"√":{"ha":937,"x_min":75,"x_max":1031,"o":"m 488 258 l 919 1187 l 1031 1187 l 1029 1173 l 476 -15 l 372 0 l 193 604 l 94 568 l 75 646 l 340 751 l 488 258 z "},"∞":{"ha":1482,"x_min":43,"x_max":1439,"o":"m 799 462 q 874 538 835 504 q 958 596 913 572 q 1052 633 1002 620 q 1158 646 1101 646 q 1278 630 1224 646 q 1369 582 1332 614 q 1422 504 1406 550 q 1431 397 1439 457 q 1382 257 1419 317 q 1289 157 1345 197 q 1162 98 1233 117 q 1013 78 1091 78 q 805 120 889 78 q 679 254 721 161 q 603 180 641 212 q 522 125 565 147 q 428 91 478 102 q 314 79 377 79 q 194 95 247 79 q 107 142 142 111 q 58 222 73 174 q 52 333 43 269 q 81 426 59 383 q 136 504 103 469 q 209 566 168 539 q 296 610 250 592 q 391 637 342 628 q 487 646 439 646 q 590 637 543 646 q 676 605 637 627 q 745 548 715 583 q 799 462 776 513 m 372 152 q 440 161 408 152 q 505 189 472 170 q 571 241 537 209 q 645 320 606 273 q 594 430 616 382 q 547 509 571 477 q 495 557 524 541 q 427 573 467 573 q 388 569 406 573 q 353 561 369 566 q 324 549 338 555 q 294 500 307 526 q 270 439 281 473 q 254 363 259 406 q 251 280 248 318 q 268 213 254 241 q 307 168 281 184 q 372 152 332 152 m 1097 573 q 1029 562 1062 573 q 965 530 997 551 q 901 476 933 509 q 834 401 869 444 q 890 294 865 340 q 940 215 915 247 q 994 168 966 184 q 1057 151 1021 151 q 1096 154 1078 151 q 1129 160 1114 157 q 1156 169 1143 163 q 1187 225 1173 195 q 1213 294 1201 255 q 1232 380 1225 332 q 1233 456 1236 421 q 1215 517 1230 492 q 1171 558 1200 543 q 1097 573 1143 573 z "},"∫":{"ha":536,"x_min":-149,"x_max":685,"o":"m 310 -32 q 274 -166 298 -113 q 213 -252 249 -220 q 129 -297 176 -283 q 25 -310 81 -310 q -46 -306 -14 -310 q -103 -297 -78 -302 q -149 -285 -128 -292 l -113 -203 q -58 -217 -85 -211 q -1 -227 -31 -222 q 58 -231 29 -231 q 76 -196 68 -216 q 93 -146 84 -175 q 106 -79 101 -118 l 256 985 q 290 1101 266 1053 q 350 1179 315 1149 q 432 1222 386 1208 q 532 1235 478 1235 q 592 1231 564 1235 q 642 1222 619 1227 q 685 1210 665 1217 l 644 1128 q 598 1141 621 1135 q 549 1151 576 1147 q 497 1156 523 1156 q 482 1119 489 1140 q 467 1067 475 1097 q 454 996 460 1037 l 310 -32 z "},"■":{"ha":955,"x_min":61,"x_max":901,"o":"m 165 736 l 901 736 l 797 0 l 61 0 l 165 736 z "},"▲":{"ha":936,"x_min":-54,"x_max":902,"o":"m -54 0 l 559 956 l 902 0 l -54 0 z "},"△":{"ha":936,"x_min":-54,"x_max":902,"o":"m -54 0 l 559 956 l 902 0 l -54 0 m 695 136 l 514 638 l 192 136 l 695 136 z "},"▶":{"ha":1112,"x_min":61,"x_max":1084,"o":"m 196 955 l 1084 477 l 61 -1 l 196 955 z "},"▷":{"ha":1112,"x_min":61,"x_max":1084,"o":"m 196 956 l 1084 477 l 61 -1 l 196 956 m 229 226 l 767 477 l 300 729 l 229 226 z "},"▼":{"ha":841,"x_min":27,"x_max":983,"o":"m 983 918 l 370 -38 l 27 918 l 983 918 z "},"▽":{"ha":841,"x_min":27,"x_max":983,"o":"m 983 918 l 370 -38 l 27 918 l 983 918 m 234 782 l 415 279 l 737 782 l 234 782 z "},"◀":{"ha":1131,"x_min":54,"x_max":1077,"o":"m 942 -1 l 54 477 l 1077 956 l 942 -1 z "},"◁":{"ha":1131,"x_min":54,"x_max":1077,"o":"m 942 -1 l 54 477 l 1077 956 l 942 -1 m 909 729 l 372 477 l 838 226 l 909 729 z "},"◆":{"ha":1095,"x_min":27,"x_max":1068,"o":"m 27 374 l 621 895 l 1068 374 l 475 -146 l 27 374 z "},"◊":{"ha":846,"x_min":61,"x_max":805,"o":"m 61 408 l 69 466 l 490 1044 l 568 1044 l 805 493 l 797 435 l 389 -139 l 287 -139 l 61 408 m 646 426 l 647 431 l 477 836 l 220 471 l 219 465 l 387 47 l 646 426 z "},"₡":{"ha":817,"x_min":25,"x_max":819,"o":"m 262 -1 q 221 9 241 3 q 184 24 201 16 l 134 -90 l 56 -90 l 58 -77 l 119 64 q 47 175 70 105 q 39 349 25 245 l 47 410 q 100 620 63 528 q 195 778 138 712 q 329 881 252 843 q 500 929 406 919 l 543 1024 l 621 1024 l 618 1010 l 584 932 q 671 926 632 931 l 714 1024 l 792 1024 l 790 1010 l 747 913 q 778 906 765 909 q 801 899 791 903 q 819 892 812 896 l 808 696 l 721 696 l 705 819 l 380 79 q 424 69 401 72 q 471 66 447 66 q 569 77 522 66 q 654 101 617 87 q 737 136 698 117 l 727 71 q 634 28 685 47 q 531 -2 590 12 q 404 -15 473 -15 q 371 -14 387 -15 q 339 -12 355 -14 l 305 -90 l 227 -90 l 229 -77 l 262 -1 m 262 201 q 284 154 271 174 q 315 117 297 133 l 636 847 q 595 850 616 849 q 549 852 574 852 l 549 852 l 262 201 m 252 363 l 463 842 q 421 830 439 837 q 390 819 403 824 q 364 806 375 812 q 325 707 344 761 q 292 598 309 661 q 265 463 275 536 l 253 373 l 252 363 z "},"₤":{"ha":747,"x_min":8,"x_max":727,"o":"m 45 366 l 146 392 l 139 446 q 135 471 137 459 q 132 496 133 484 l 35 496 l 29 549 l 125 573 q 125 627 124 601 q 131 680 127 652 q 163 778 138 732 q 232 858 188 824 q 341 912 277 892 q 494 932 406 932 q 591 924 548 932 q 667 903 634 915 q 727 876 700 892 l 702 695 l 602 685 l 573 845 q 550 851 563 848 q 520 856 538 854 q 479 858 502 858 q 432 855 453 858 q 396 849 412 852 q 368 840 380 845 q 353 800 360 821 q 340 750 347 779 q 329 688 334 722 q 322 629 323 655 q 321 576 320 603 l 578 576 l 566 496 l 329 496 q 330 486 330 490 q 332 475 330 481 q 338 433 335 453 q 342 393 340 412 l 553 393 l 541 313 l 347 313 q 343 254 347 283 q 329 185 338 217 q 311 130 320 154 q 290 81 301 103 l 505 81 l 580 212 l 675 197 l 631 0 l 14 0 l 8 60 l 106 79 q 113 94 107 81 q 125 126 118 106 q 139 173 132 146 q 150 230 146 199 q 154 271 153 251 q 154 313 155 291 l 51 313 l 45 366 z "},"₦":{"ha":1050,"x_min":-5,"x_max":1079,"o":"m 20 372 l 123 372 l 150 561 l 47 561 l 62 669 l 165 669 l 189 833 l 100 846 l 113 918 l 454 918 l 553 669 l 838 669 l 861 833 l 772 846 l 785 918 l 1076 918 l 1079 846 l 990 833 l 967 669 l 1068 669 l 1053 561 l 951 561 l 925 372 l 1027 372 l 1012 264 l 910 264 l 873 0 l 620 0 l 515 264 l 237 264 l 212 85 l 301 71 l 288 0 l -2 0 l -5 71 l 83 85 l 108 264 l 5 264 l 20 372 m 671 372 l 796 372 l 823 561 l 595 561 l 671 372 m 252 372 l 471 372 l 397 561 l 279 561 l 252 372 m 755 159 l 766 159 l 781 264 l 713 264 l 755 159 m 307 760 l 294 669 l 354 669 l 318 760 l 307 760 z "},"₫":{"ha":637,"x_min":78,"x_max":623,"o":"m 493 331 l 559 317 l 543 264 l 391 256 l 377 325 q 355 302 368 315 q 325 280 342 290 q 284 263 307 270 q 232 256 261 256 q 165 267 195 256 q 115 301 135 278 q 86 359 95 324 q 85 441 78 394 l 91 481 q 120 587 99 539 q 174 668 141 634 q 251 720 207 701 q 351 738 296 738 q 388 735 370 738 q 425 730 407 733 l 431 768 l 290 768 l 300 838 l 440 838 l 443 857 l 377 871 l 393 922 l 577 932 l 564 838 l 623 838 l 613 768 l 554 768 l 493 331 m 210 450 q 209 392 205 416 q 222 354 212 368 q 245 333 231 339 q 276 326 260 326 q 313 335 295 326 q 345 353 331 343 q 376 380 362 366 l 376 379 l 415 657 q 378 664 399 661 q 333 667 357 667 q 301 664 315 667 q 277 657 287 661 q 255 648 264 653 q 240 606 248 629 q 228 559 234 586 q 217 500 221 532 l 210 450 m 138 204 l 469 204 l 450 133 l 119 133 l 138 204 z "},"€":{"ha":909,"x_min":20,"x_max":905,"o":"m 64 551 l 165 551 q 346 836 222 739 q 660 932 469 932 q 763 925 718 932 q 843 907 808 918 q 905 884 878 897 l 878 670 l 776 670 l 764 833 q 731 842 750 838 q 687 849 712 846 q 629 852 662 852 q 559 845 591 852 q 501 828 527 838 q 452 806 475 819 q 423 739 437 775 q 394 656 409 703 q 368 551 380 610 l 768 551 l 743 483 l 355 483 q 351 450 353 469 q 346 415 348 431 l 719 415 l 694 347 l 338 347 q 346 216 331 270 q 390 129 361 163 q 461 81 420 96 q 551 66 503 66 q 653 77 604 66 q 744 102 702 87 q 825 136 785 117 l 814 71 q 724 29 772 47 q 616 -2 676 12 q 486 -15 557 -15 q 380 -7 431 -15 q 286 17 329 0 q 208 61 242 34 q 152 129 174 89 q 123 223 130 169 q 126 347 116 277 l 20 347 l 45 415 l 136 415 q 141 450 138 433 q 148 483 144 467 l 39 483 l 64 551 z "},"₱":{"ha":804,"x_min":-1,"x_max":891,"o":"m 400 0 l 2 0 l -1 71 l 87 85 l 153 553 l 37 553 l 50 627 l 163 627 l 174 703 l 59 703 l 71 777 l 184 777 l 193 833 l 104 846 l 117 918 l 505 918 q 753 859 679 918 q 807 777 793 827 l 891 777 l 879 703 l 814 703 q 811 675 813 689 q 800 627 807 650 l 871 627 l 858 553 l 764 553 q 694 481 737 511 q 467 411 597 411 l 336 411 l 290 85 l 414 71 l 400 0 m 602 656 q 606 703 606 682 l 378 703 l 367 627 l 597 627 q 602 656 600 642 m 423 492 q 488 495 455 492 q 549 504 522 498 q 573 553 560 522 l 356 553 l 348 492 l 423 492 m 578 793 q 450 837 541 837 l 397 837 l 388 777 l 589 777 q 578 793 585 785 z "},"₲":{"ha":920,"x_min":18,"x_max":879,"o":"m 511 438 l 876 438 l 879 367 l 790 353 l 751 71 q 582 9 675 33 q 399 -15 488 -15 q 290 -6 340 -15 l 242 -115 l 154 -115 l 156 -102 l 208 16 q 113 75 153 38 q 43 342 18 164 l 52 403 q 227 796 90 659 q 582 932 364 932 q 610 932 596 932 l 651 1024 l 739 1024 l 737 1010 l 700 926 l 726 922 q 850 894 795 912 l 838 697 l 724 697 l 693 837 q 663 843 679 840 l 336 98 q 453 66 384 66 q 547 75 501 66 l 587 353 l 498 367 l 511 438 m 461 838 q 369 802 408 824 q 305 647 334 735 q 263 463 277 558 l 251 373 q 274 167 233 244 l 575 852 l 566 852 q 461 838 515 852 z "},"₵":{"ha":826,"x_min":15,"x_max":819,"o":"m 47 410 q 216 800 83 668 q 517 930 334 916 l 533 1044 l 620 1044 l 604 932 q 713 920 661 930 q 819 892 781 909 l 808 696 l 694 696 l 663 838 q 608 848 641 845 q 592 850 600 849 l 481 66 q 605 85 540 67 q 737 136 676 105 l 727 71 q 573 8 659 32 q 471 -11 522 -5 l 454 -134 l 367 -134 l 384 -14 q 104 78 190 -10 q 39 349 15 171 l 47 410 m 447 838 q 364 806 398 825 q 303 641 329 728 q 265 463 278 553 l 253 373 q 290 144 233 224 q 396 75 329 92 l 505 849 q 447 838 475 846 z "},"ℓ":{"ha":697,"x_min":18,"x_max":730,"o":"m 157 323 q 135 318 145 319 q 113 317 125 317 q 72 322 90 317 q 41 333 54 327 q 18 347 28 339 l 28 419 q 51 411 39 414 q 79 406 63 408 q 114 404 94 404 q 142 407 127 404 q 170 415 157 409 l 208 682 q 241 780 216 734 q 306 860 266 826 q 398 913 345 894 q 513 932 450 932 q 611 921 569 932 q 681 886 654 909 q 719 833 707 864 q 723 763 730 802 l 720 743 q 682 653 712 699 q 605 563 652 608 q 497 475 558 517 q 365 395 435 432 l 338 204 q 333 137 332 163 q 342 97 334 111 q 363 78 350 83 q 394 73 376 73 q 431 77 412 73 q 466 86 450 81 q 500 100 483 92 l 490 29 q 446 7 469 16 q 394 -8 422 -1 q 331 -15 366 -15 q 245 -6 284 -15 q 179 24 205 2 q 141 84 153 46 q 138 183 130 123 l 157 323 m 522 733 q 524 788 526 766 q 516 822 522 810 q 500 840 509 835 q 479 844 490 844 q 464 843 472 844 q 451 841 456 842 q 441 838 445 839 q 430 807 435 823 q 419 770 425 791 q 410 722 414 749 l 379 501 q 434 541 410 520 q 475 587 458 561 q 504 645 492 612 q 520 722 515 678 l 522 733 z "},"⁰":{"ha":423,"x_min":5,"x_max":424,"o":"m 168 728 q 94 738 125 728 q 41 769 62 747 q 13 826 21 791 q 12 911 5 861 l 18 946 q 95 1138 35 1074 q 248 1202 155 1202 q 383 1159 342 1202 q 410 1019 424 1117 l 405 983 q 328 789 386 850 q 168 728 269 728 m 284 1000 q 289 1070 290 1043 q 280 1112 287 1097 q 261 1132 273 1126 q 235 1137 250 1137 q 204 1129 218 1137 q 179 1101 190 1120 q 160 1052 168 1082 q 145 977 151 1021 l 138 929 q 134 864 133 890 q 141 822 135 838 q 159 799 147 806 q 186 792 170 792 q 217 800 203 792 q 242 827 231 808 q 262 876 254 846 q 277 953 271 907 l 284 1000 z "},"⁴":{"ha":388,"x_min":-3,"x_max":366,"o":"m 340 736 l 88 736 l 89 789 l 169 801 l 176 852 l -2 852 l -3 901 l 227 1195 l 334 1195 l 108 916 l 185 916 l 195 989 l 317 989 l 307 916 l 366 916 l 366 862 l 298 850 l 291 801 l 355 789 l 340 736 z "},"⁵":{"ha":383,"x_min":2,"x_max":375,"o":"m 137 728 q 87 732 111 728 q 43 743 62 737 q 2 758 21 749 l 18 865 l 85 869 l 96 802 q 111 796 102 799 q 129 793 118 794 q 155 791 140 791 q 204 811 182 791 q 232 873 227 831 q 219 933 237 912 q 165 954 201 954 q 136 951 150 954 q 112 945 123 949 q 89 938 100 942 l 37 990 l 79 1194 l 375 1194 l 363 1109 l 155 1109 l 134 1012 q 163 1018 146 1015 q 210 1021 180 1021 q 271 1013 242 1021 q 320 988 300 1005 q 351 945 340 971 q 355 881 361 918 q 332 818 351 846 q 284 769 313 789 q 218 739 256 749 q 137 728 180 728 z "},"⁶":{"ha":402,"x_min":3,"x_max":382,"o":"m 12 929 q 49 1042 21 992 q 118 1128 77 1093 q 207 1183 158 1164 q 308 1202 256 1202 q 337 1200 323 1202 q 361 1198 351 1199 q 382 1194 372 1196 l 374 1135 q 352 1136 363 1135 q 330 1137 342 1137 q 304 1137 317 1137 q 247 1125 274 1137 q 199 1092 220 1112 q 162 1043 177 1071 q 144 985 148 1015 q 158 993 149 988 q 180 1002 167 998 q 209 1009 193 1006 q 245 1013 225 1013 q 304 1002 278 1013 q 349 975 331 992 q 374 933 366 957 q 378 880 382 909 l 376 870 q 355 812 372 838 q 313 767 339 786 q 250 738 286 749 q 170 728 214 728 q 87 741 121 728 q 35 779 54 755 q 9 834 16 802 q 9 905 3 867 l 12 929 m 254 867 q 243 926 259 903 q 196 948 227 948 q 174 945 184 948 q 155 939 163 943 q 136 931 145 936 l 134 912 q 139 823 125 854 q 186 792 153 792 q 232 812 214 792 q 253 861 249 833 l 254 867 z "},"⁷":{"ha":369,"x_min":30,"x_max":379,"o":"m 96 1041 l 30 1044 l 51 1195 l 379 1195 l 373 1149 l 137 736 l 32 736 l 262 1110 l 123 1110 l 96 1041 z "},"⁸":{"ha":388,"x_min":-14,"x_max":385,"o":"m 43 1077 q 61 1124 47 1101 q 100 1163 75 1146 q 158 1191 124 1181 q 235 1202 192 1202 q 347 1175 309 1202 q 378 1099 385 1147 q 366 1064 375 1080 q 342 1035 356 1048 q 310 1011 328 1021 q 273 992 292 1000 q 343 940 318 970 q 362 863 368 909 q 342 809 358 834 q 300 766 327 785 q 236 738 273 748 q 150 728 198 728 q 28 755 70 728 q -7 838 -14 783 q 6 878 -4 859 q 32 912 16 897 q 66 939 47 927 q 106 960 85 951 q 55 1007 73 979 q 43 1077 37 1035 m 117 852 q 125 808 113 823 q 165 792 138 792 q 215 810 194 792 q 239 852 235 827 q 227 894 242 876 q 170 930 212 913 l 162 932 q 133 899 145 919 q 117 852 120 880 m 255 1091 q 248 1127 258 1116 q 220 1137 237 1137 q 183 1122 197 1137 q 166 1085 170 1107 q 172 1047 163 1063 q 216 1015 182 1030 q 242 1047 232 1029 q 255 1091 252 1065 z "},"⁹":{"ha":395,"x_min":0,"x_max":391,"o":"m 145 1053 q 153 992 140 1015 q 196 970 167 970 q 219 972 208 970 q 239 979 230 975 q 257 988 248 983 l 260 1006 q 257 1104 269 1070 q 212 1137 245 1137 q 167 1117 183 1137 q 146 1059 151 1096 l 145 1053 m 85 728 q 54 729 69 728 q 26 732 39 730 q 0 736 12 734 l 7 789 q 28 787 16 787 q 52 786 38 786 q 83 785 66 785 q 145 797 117 785 q 195 828 174 808 q 231 875 217 848 q 250 932 245 902 q 213 916 238 925 q 145 906 187 906 q 91 916 115 906 q 50 943 66 926 q 25 985 33 961 q 21 1040 17 1010 l 22 1050 q 42 1111 27 1083 q 83 1159 58 1139 q 145 1191 109 1179 q 227 1202 181 1202 q 309 1189 276 1202 q 361 1153 342 1177 q 385 1096 380 1130 q 385 1021 391 1063 l 381 995 q 346 876 372 926 q 281 792 319 825 q 192 744 242 760 q 85 728 142 728 z "},"⁽":{"ha":269,"x_min":21,"x_max":309,"o":"m 149 928 q 143 855 144 890 q 147 789 143 820 q 157 731 151 758 q 170 682 163 704 q 213 589 188 629 l 159 568 q 81 665 114 610 q 55 717 68 688 q 35 779 43 745 q 24 849 26 812 q 27 928 21 886 q 46 1006 33 969 q 76 1077 59 1044 q 114 1138 94 1109 q 155 1190 134 1166 q 260 1286 202 1244 l 309 1266 q 239 1173 271 1225 q 186 1066 212 1128 q 149 928 160 1004 z "},"⁾":{"ha":269,"x_min":-39,"x_max":248,"o":"m 120 928 q 125 1000 125 966 q 122 1066 125 1035 q 112 1124 118 1097 q 98 1173 106 1151 q 56 1266 81 1225 l 110 1286 q 187 1190 155 1244 q 213 1138 201 1166 q 234 1077 226 1109 q 245 1006 242 1044 q 242 928 248 969 q 223 849 236 886 q 193 779 210 812 q 155 717 175 745 q 114 665 134 688 q 9 568 66 610 l -39 589 q 29 682 -3 629 q 82 789 56 726 q 120 928 109 851 z "},"ⁿ":{"ha":501,"x_min":-12,"x_max":475,"o":"m 206 736 l -12 736 l -12 789 l 52 801 l 85 1038 l 24 1050 l 39 1103 l 187 1111 l 199 1057 q 217 1073 206 1063 q 244 1090 228 1082 q 281 1105 260 1099 q 330 1111 302 1111 q 379 1104 357 1111 q 417 1082 401 1097 q 439 1042 432 1067 q 441 982 446 1017 l 415 801 l 475 789 l 461 736 l 242 736 l 243 789 l 296 801 l 320 967 q 322 1008 323 992 q 315 1034 321 1025 q 301 1046 310 1043 q 281 1050 292 1050 q 250 1043 264 1050 q 224 1028 235 1036 q 199 1006 211 1019 l 170 801 l 220 789 l 206 736 z "},"₀":{"ha":423,"x_min":5,"x_max":424,"o":"m 168 -239 q 94 -229 125 -239 q 41 -197 62 -219 q 13 -140 21 -175 q 12 -56 5 -106 l 18 -20 q 95 172 35 108 q 248 235 155 235 q 383 193 342 235 q 410 52 424 151 l 405 17 q 328 -178 386 -117 q 168 -239 269 -239 m 284 34 q 289 103 290 77 q 280 145 287 130 q 261 165 273 160 q 235 171 250 171 q 204 162 218 171 q 179 135 190 154 q 160 85 168 116 q 145 10 151 54 l 138 -37 q 134 -102 133 -76 q 141 -144 135 -128 q 159 -168 147 -161 q 186 -174 170 -174 q 217 -166 203 -174 q 242 -140 231 -159 q 262 -90 254 -121 q 277 -14 271 -60 l 284 34 z "},"₁":{"ha":302,"x_min":2,"x_max":262,"o":"m 248 -231 l 2 -231 l 3 -178 l 73 -166 l 118 151 l 41 151 l 43 189 l 172 228 l 251 228 l 195 -166 l 262 -178 l 248 -231 z "},"₂":{"ha":394,"x_min":-14,"x_max":383,"o":"m 256 111 q 245 158 260 144 q 205 171 230 171 q 179 169 192 171 q 157 163 167 166 q 136 155 146 159 l 106 80 l 42 83 l 58 196 q 109 215 81 207 q 165 229 133 222 q 234 235 197 235 q 298 228 269 235 q 346 206 327 220 q 374 171 366 192 q 379 120 383 149 q 355 57 375 90 q 304 -9 335 24 q 236 -78 274 -43 q 156 -150 197 -113 l 157 -153 l 257 -153 l 295 -81 l 357 -89 l 329 -231 l -14 -231 l -5 -176 q 95 -87 49 -128 q 176 -11 141 -46 q 231 55 210 24 q 256 111 252 85 z "},"₃":{"ha":372,"x_min":-13,"x_max":366,"o":"m 128 -239 q 76 -235 101 -239 q 31 -226 50 -231 q -13 -212 7 -220 l 3 -93 l 67 -89 l 75 -161 q 95 -168 84 -165 q 116 -173 104 -171 q 142 -175 128 -175 q 193 -157 170 -175 q 220 -104 216 -139 q 220 -65 224 -81 q 208 -40 217 -50 q 186 -26 199 -31 q 158 -22 174 -22 l 121 -22 l 131 42 l 169 42 q 214 60 197 42 q 235 112 230 78 q 225 157 239 143 q 187 170 212 170 q 165 169 176 170 q 146 165 155 167 q 128 159 137 162 l 100 87 l 38 92 l 54 210 q 103 222 77 216 q 153 231 125 227 q 212 235 182 235 q 329 206 292 235 q 359 125 366 177 q 345 82 355 100 q 320 51 334 64 q 292 29 307 38 q 264 14 277 20 q 297 0 281 9 q 324 -23 313 -9 q 341 -54 335 -36 q 343 -94 347 -71 q 320 -158 338 -131 q 273 -203 302 -185 q 208 -231 245 -222 q 128 -239 171 -239 z "},"₄":{"ha":388,"x_min":-3,"x_max":366,"o":"m 340 -231 l 88 -231 l 89 -178 l 169 -166 l 176 -115 l -2 -115 l -3 -66 l 227 228 l 334 228 l 108 -51 l 185 -51 l 195 22 l 317 22 l 307 -51 l 366 -51 l 366 -105 l 298 -117 l 291 -166 l 355 -178 l 340 -231 z "},"₅":{"ha":383,"x_min":2,"x_max":375,"o":"m 137 -239 q 87 -235 111 -239 q 43 -224 62 -230 q 2 -210 21 -218 l 18 -102 l 85 -98 l 96 -165 q 111 -171 102 -168 q 129 -174 118 -173 q 155 -176 140 -176 q 204 -156 182 -176 q 232 -94 227 -136 q 219 -34 237 -55 q 165 -14 201 -14 q 136 -16 150 -14 q 112 -22 123 -18 q 89 -29 100 -25 l 37 23 l 79 227 l 375 227 l 363 142 l 155 142 l 134 45 q 163 51 146 48 q 210 54 180 54 q 271 46 242 54 q 320 21 300 38 q 351 -22 340 4 q 355 -86 361 -49 q 332 -150 351 -121 q 284 -198 313 -178 q 218 -229 256 -218 q 137 -239 180 -239 z "},"₆":{"ha":402,"x_min":3,"x_max":382,"o":"m 12 -38 q 49 75 21 25 q 118 161 77 125 q 207 216 158 197 q 308 235 256 235 q 337 233 323 235 q 361 231 351 232 q 382 227 372 229 l 374 168 q 352 169 363 168 q 330 170 342 170 q 304 170 317 170 q 247 158 274 170 q 199 124 220 145 q 162 76 177 104 q 144 18 148 48 q 158 26 149 21 q 180 35 167 31 q 209 42 193 39 q 245 45 225 45 q 304 35 278 45 q 349 7 331 25 q 374 -34 366 -10 q 378 -87 382 -58 l 376 -97 q 355 -155 372 -129 q 313 -200 339 -181 q 250 -229 286 -218 q 170 -239 214 -239 q 87 -226 121 -239 q 35 -189 54 -212 q 9 -133 16 -165 q 9 -62 3 -100 l 12 -38 m 254 -100 q 243 -41 259 -64 q 196 -19 227 -19 q 174 -22 184 -19 q 155 -28 163 -24 q 136 -36 145 -31 l 134 -55 q 139 -144 125 -113 q 186 -175 153 -175 q 232 -155 214 -175 q 253 -106 249 -134 l 254 -100 z "},"₇":{"ha":369,"x_min":30,"x_max":379,"o":"m 96 74 l 30 77 l 51 228 l 379 228 l 373 182 l 137 -231 l 32 -231 l 262 143 l 123 143 l 96 74 z "},"₈":{"ha":388,"x_min":-14,"x_max":385,"o":"m 43 110 q 61 157 47 134 q 100 196 75 179 q 158 224 124 214 q 235 235 192 235 q 347 208 309 235 q 378 132 385 180 q 366 97 375 113 q 342 67 356 81 q 310 44 328 54 q 273 25 292 33 q 343 -27 318 4 q 362 -104 368 -58 q 342 -158 358 -133 q 300 -201 327 -182 q 236 -229 273 -219 q 150 -239 198 -239 q 28 -212 70 -239 q -7 -129 -14 -184 q 6 -89 -4 -108 q 32 -55 16 -71 q 66 -28 47 -40 q 106 -7 85 -16 q 55 40 73 12 q 43 110 37 68 m 117 -115 q 125 -159 113 -144 q 165 -175 138 -175 q 215 -157 194 -175 q 239 -115 235 -140 q 227 -73 242 -92 q 170 -37 212 -54 q 165 -36 168 -36 q 162 -34 163 -35 q 133 -67 145 -47 q 117 -115 120 -87 m 255 124 q 248 160 258 149 q 220 170 237 170 q 183 155 197 170 q 166 118 170 140 q 172 80 163 96 q 216 48 182 63 q 242 80 232 62 q 255 124 252 98 z "},"₉":{"ha":395,"x_min":0,"x_max":391,"o":"m 145 86 q 153 25 140 47 q 196 3 167 3 q 219 5 208 3 q 239 12 230 8 q 257 21 248 16 l 260 39 q 257 137 269 103 q 212 170 245 170 q 167 150 183 170 q 146 92 151 129 l 145 86 m 85 -239 q 54 -238 69 -239 q 26 -235 39 -237 q 0 -231 12 -233 l 7 -178 q 28 -180 16 -180 q 52 -181 38 -181 q 83 -182 66 -182 q 145 -170 117 -182 q 195 -139 174 -159 q 231 -92 217 -119 q 250 -35 245 -65 q 213 -52 238 -42 q 145 -61 187 -61 q 91 -51 115 -61 q 50 -24 66 -41 q 25 18 33 -6 q 21 73 17 43 l 22 83 q 42 144 27 116 q 83 192 58 172 q 145 223 109 212 q 227 235 181 235 q 309 222 276 235 q 361 186 342 210 q 385 129 380 163 q 385 54 391 96 l 381 28 q 346 -92 372 -41 q 281 -175 319 -142 q 192 -223 242 -208 q 85 -239 142 -239 z "},"₍":{"ha":269,"x_min":21,"x_max":309,"o":"m 149 -12 q 143 -84 144 -50 q 147 -151 143 -119 q 157 -209 151 -182 q 170 -258 163 -235 q 213 -351 188 -310 l 159 -371 q 81 -274 114 -329 q 55 -222 68 -251 q 35 -161 43 -194 q 24 -90 26 -127 q 27 -12 21 -53 q 46 67 33 30 q 76 137 59 104 q 114 198 94 170 q 155 250 134 227 q 260 347 202 305 l 309 327 q 239 234 271 286 q 186 127 212 189 q 149 -12 160 64 z "},"₎":{"ha":269,"x_min":-39,"x_max":248,"o":"m 120 -12 q 125 61 125 26 q 122 127 125 96 q 112 185 118 158 q 98 234 106 212 q 56 327 81 286 l 110 347 q 187 250 155 305 q 213 198 201 227 q 234 137 226 170 q 245 67 242 104 q 242 -12 248 30 q 223 -90 236 -53 q 193 -161 210 -127 q 155 -222 175 -194 q 114 -274 134 -251 q 9 -371 66 -329 l -39 -351 q 29 -258 -3 -310 q 82 -151 56 -213 q 120 -12 109 -88 z "},"⁄":{"ha":898,"x_min":3,"x_max":895,"o":"m 796 918 l 895 918 l 892 904 l 101 0 l 3 0 l 5 14 l 796 918 z "},"⅓":{"ha":1059,"x_min":95,"x_max":997,"o":"m 351 458 l 105 458 l 106 512 l 176 524 l 221 840 l 144 840 l 146 879 l 275 918 l 354 918 l 298 524 l 366 512 l 351 458 m 888 918 l 987 918 l 985 904 l 193 0 l 95 0 l 97 14 l 888 918 m 759 -15 q 706 -11 732 -15 q 661 -1 681 -7 q 618 13 638 5 l 634 132 l 698 136 l 705 64 q 726 56 715 59 q 747 52 735 54 q 772 50 759 50 q 824 67 801 50 q 851 121 846 85 q 851 159 854 143 q 839 184 848 175 q 817 198 830 194 q 789 203 804 203 l 752 203 l 762 267 l 800 267 q 844 284 828 267 q 865 336 861 302 q 856 381 870 368 q 818 395 842 395 q 796 393 806 395 q 777 389 785 391 q 759 384 768 387 l 731 312 l 669 316 l 685 434 q 734 446 708 441 q 784 455 755 451 q 843 459 812 459 q 960 430 923 459 q 989 349 997 401 q 976 307 986 325 q 951 276 965 289 q 922 254 937 262 q 895 239 907 245 q 928 224 912 233 q 955 202 943 215 q 971 171 966 189 q 974 130 977 153 q 950 66 968 94 q 904 21 932 39 q 839 -6 876 3 q 759 -15 802 -15 z "},"⅔":{"ha":1098,"x_min":95,"x_max":1030,"o":"m 364 808 q 354 856 369 842 q 314 869 338 869 q 288 866 300 869 q 266 861 275 864 q 244 852 254 857 l 215 778 l 151 781 l 167 894 q 218 913 190 905 q 274 926 241 920 q 342 932 306 932 q 407 925 378 932 q 455 904 435 918 q 483 868 474 890 q 488 818 492 847 q 464 755 484 787 q 413 688 444 722 q 344 620 382 654 q 264 548 306 585 l 265 545 l 366 545 l 404 616 l 465 609 l 437 467 l 95 467 l 103 522 q 203 611 157 570 q 284 687 250 652 q 340 752 319 722 q 364 808 361 783 m 932 918 l 1030 918 l 1028 904 l 237 0 l 138 0 l 140 14 l 932 918 m 789 -15 q 736 -11 762 -15 q 691 -1 711 -7 q 648 13 668 5 l 664 132 l 728 136 l 735 64 q 755 56 745 59 q 777 52 765 54 q 802 50 789 50 q 853 67 831 50 q 881 121 876 85 q 881 159 884 143 q 869 184 878 175 q 847 198 860 194 q 819 203 834 203 l 782 203 l 791 267 l 829 267 q 874 284 858 267 q 895 336 890 302 q 886 381 900 368 q 848 395 872 395 q 826 393 836 395 q 807 389 815 391 q 789 384 798 387 l 761 312 l 699 316 l 715 434 q 764 446 738 441 q 814 455 785 451 q 873 459 842 459 q 990 430 953 459 q 1019 349 1027 401 q 1005 307 1016 325 q 981 276 995 289 q 952 254 967 262 q 925 239 937 245 q 958 224 942 233 q 984 202 973 215 q 1001 171 996 189 q 1004 130 1007 153 q 980 66 998 94 q 934 21 962 39 q 868 -6 905 3 q 789 -15 831 -15 z "},"⅛":{"ha":1057,"x_min":95,"x_max":996,"o":"m 351 458 l 105 458 l 106 512 l 176 524 l 221 840 l 144 840 l 146 879 l 275 918 l 354 918 l 298 524 l 366 512 l 351 458 m 888 918 l 987 918 l 985 904 l 193 0 l 95 0 l 97 14 l 888 918 m 654 334 q 671 381 657 359 q 710 421 686 404 q 768 449 734 438 q 846 459 802 459 q 958 432 920 459 q 988 356 996 405 q 976 321 985 337 q 952 292 966 305 q 920 268 938 279 q 884 250 902 258 q 954 197 928 229 q 972 120 979 166 q 953 67 968 92 q 910 24 937 42 q 846 -5 884 5 q 760 -15 808 -15 q 638 13 680 -15 q 604 96 596 41 q 616 135 606 117 q 642 169 627 154 q 676 197 657 184 q 717 217 695 209 q 665 264 683 237 q 654 334 648 292 m 727 110 q 735 65 723 81 q 776 50 748 50 q 825 67 804 50 q 849 110 846 85 q 838 152 852 133 q 780 187 823 170 q 776 189 778 189 q 772 191 774 189 q 743 157 755 177 q 727 110 730 138 m 865 349 q 858 384 869 374 q 831 395 848 395 q 794 379 808 395 q 777 342 780 364 q 783 304 773 321 q 827 273 792 288 q 852 304 842 286 q 865 349 862 323 z "},"⅜":{"ha":1078,"x_min":95,"x_max":1016,"o":"m 236 458 q 183 463 209 458 q 138 472 158 467 q 95 486 115 478 l 111 605 l 175 609 l 182 537 q 203 530 192 532 q 224 525 212 527 q 250 523 236 523 q 301 541 278 523 q 328 594 323 559 q 328 632 332 616 q 316 658 325 648 q 294 672 307 667 q 266 676 281 676 l 229 676 l 239 740 l 277 740 q 321 758 305 740 q 342 810 338 776 q 333 854 347 841 q 295 868 319 868 q 273 866 283 868 q 254 863 262 865 q 236 857 245 860 l 208 785 l 146 789 l 162 907 q 211 920 185 914 q 261 928 233 924 q 320 932 290 932 q 437 904 400 932 q 467 823 474 875 q 453 780 463 798 q 428 749 442 762 q 399 727 414 736 q 372 712 385 718 q 405 697 389 707 q 432 675 420 688 q 449 644 443 662 q 451 604 454 627 q 428 540 446 567 q 381 494 410 513 q 316 467 353 476 q 236 458 279 458 m 909 918 l 1007 918 l 1005 904 l 214 0 l 115 0 l 117 14 l 909 918 m 674 334 q 692 381 677 359 q 730 421 706 404 q 789 449 755 438 q 866 459 823 459 q 978 432 940 459 q 1008 356 1016 405 q 996 321 1006 337 q 972 292 987 305 q 940 268 958 279 q 904 250 922 258 q 974 197 949 229 q 993 120 999 166 q 973 67 989 92 q 931 24 958 42 q 866 -5 904 5 q 781 -15 829 -15 q 659 13 701 -15 q 624 96 616 41 q 637 135 627 117 q 662 169 647 154 q 696 197 677 184 q 737 217 715 209 q 686 264 703 237 q 674 334 668 292 m 747 110 q 756 65 743 81 q 796 50 768 50 q 845 67 825 50 q 869 110 866 85 q 858 152 873 133 q 800 187 843 170 q 796 189 798 189 q 793 191 794 189 q 763 157 776 177 q 747 110 751 138 m 886 349 q 879 384 889 374 q 851 395 868 395 q 814 379 828 395 q 797 342 800 364 q 803 304 793 321 q 847 273 812 288 q 872 304 863 286 q 886 349 882 323 z "},"⅝":{"ha":1069,"x_min":95,"x_max":1008,"o":"m 230 452 q 180 456 204 452 q 136 467 155 461 q 95 481 114 473 l 111 589 l 178 593 l 189 526 q 203 520 195 523 q 222 517 211 518 q 248 515 233 515 q 297 535 275 515 q 325 597 319 555 q 312 657 330 636 q 258 677 294 677 q 229 675 243 677 q 205 669 216 673 q 182 662 193 666 l 130 714 l 172 918 l 468 918 l 456 833 l 248 833 l 227 736 q 256 742 239 739 q 302 745 273 745 q 364 737 335 745 q 413 712 393 729 q 444 669 433 695 q 448 605 454 642 q 425 542 444 570 q 377 493 406 513 q 311 463 349 473 q 230 452 273 452 m 901 918 l 999 918 l 997 904 l 205 0 l 107 0 l 109 14 l 901 918 m 666 334 q 684 381 669 359 q 722 421 698 404 q 781 449 747 438 q 858 459 814 459 q 970 432 932 459 q 1000 356 1008 405 q 988 321 998 337 q 964 292 979 305 q 932 268 950 279 q 896 250 914 258 q 966 197 941 229 q 985 120 991 166 q 965 67 981 92 q 923 24 949 42 q 858 -5 896 5 q 772 -15 821 -15 q 650 13 692 -15 q 616 96 608 41 q 629 135 618 117 q 654 169 639 154 q 688 197 669 184 q 729 217 707 209 q 677 264 695 237 q 666 334 660 292 m 739 110 q 748 65 735 81 q 788 50 760 50 q 837 67 817 50 q 861 110 858 85 q 850 152 865 133 q 792 187 835 170 q 788 189 790 189 q 785 191 786 189 q 755 157 768 177 q 739 110 743 138 m 878 349 q 870 384 881 374 q 843 395 860 395 q 806 379 820 395 q 789 342 792 364 q 795 304 785 321 q 839 273 804 288 q 864 304 854 286 q 878 349 874 323 z "},"⅞":{"ha":1057,"x_min":95,"x_max":996,"o":"m 224 764 l 158 766 l 179 918 l 507 918 l 501 872 l 265 458 l 160 458 l 390 833 l 252 833 l 224 764 m 888 918 l 987 918 l 985 904 l 193 0 l 95 0 l 97 14 l 888 918 m 654 334 q 671 381 657 359 q 710 421 686 404 q 768 449 734 438 q 846 459 802 459 q 958 432 920 459 q 988 356 996 405 q 976 321 985 337 q 952 292 966 305 q 920 268 938 279 q 884 250 902 258 q 954 197 928 229 q 972 120 979 166 q 953 67 968 92 q 910 24 937 42 q 846 -5 884 5 q 760 -15 808 -15 q 638 13 680 -15 q 604 96 596 41 q 616 135 606 117 q 642 169 627 154 q 676 197 657 184 q 717 217 695 209 q 665 264 683 237 q 654 334 648 292 m 727 110 q 735 65 723 81 q 776 50 748 50 q 825 67 804 50 q 849 110 846 85 q 838 152 852 133 q 780 187 823 170 q 776 189 778 189 q 772 191 774 189 q 743 157 755 177 q 727 110 730 138 m 865 349 q 858 384 869 374 q 831 395 848 395 q 794 379 808 395 q 777 342 780 364 q 783 304 773 321 q 827 273 792 288 q 852 304 842 286 q 865 349 862 323 z "},"¹":{"ha":302,"x_min":2,"x_max":262,"o":"m 248 736 l 2 736 l 3 789 l 73 801 l 118 1118 l 41 1118 l 43 1156 l 172 1195 l 251 1195 l 195 801 l 262 789 l 248 736 z "},"²":{"ha":394,"x_min":-14,"x_max":383,"o":"m 256 1078 q 245 1125 260 1112 q 205 1138 230 1138 q 179 1136 192 1138 q 157 1130 167 1133 q 136 1122 146 1126 l 106 1047 l 42 1050 l 58 1163 q 109 1182 81 1174 q 165 1196 133 1190 q 234 1202 197 1202 q 298 1195 269 1202 q 346 1173 327 1187 q 374 1138 366 1159 q 379 1087 383 1116 q 355 1024 375 1057 q 304 958 335 991 q 236 889 274 924 q 156 817 197 854 l 157 814 l 257 814 l 295 886 l 357 878 l 329 736 l -14 736 l -5 791 q 95 880 49 839 q 176 956 141 921 q 231 1022 210 991 q 256 1078 252 1052 z "},"³":{"ha":372,"x_min":-13,"x_max":366,"o":"m 128 728 q 76 732 101 728 q 31 741 50 736 q -13 755 7 747 l 3 874 l 67 878 l 75 806 q 95 799 84 802 q 116 794 104 796 q 142 792 128 792 q 193 810 170 792 q 220 863 216 828 q 220 902 224 886 q 208 927 217 918 q 186 941 199 937 q 158 945 174 945 l 121 945 l 131 1009 l 169 1009 q 214 1027 197 1009 q 235 1079 230 1045 q 225 1124 239 1110 q 187 1137 212 1137 q 165 1136 176 1137 q 146 1132 155 1134 q 128 1126 137 1129 l 100 1055 l 38 1059 l 54 1177 q 103 1189 77 1183 q 153 1198 125 1194 q 212 1202 182 1202 q 329 1173 292 1202 q 359 1092 366 1144 q 345 1049 355 1067 q 320 1018 334 1031 q 292 996 307 1005 q 264 981 277 987 q 297 967 281 976 q 324 944 313 958 q 341 913 335 931 q 343 873 347 896 q 320 809 338 836 q 273 764 302 782 q 208 736 245 745 q 128 728 171 728 z "},"¼":{"ha":1055,"x_min":95,"x_max":987,"o":"m 351 458 l 105 458 l 106 512 l 176 524 l 221 840 l 144 840 l 146 879 l 275 918 l 354 918 l 298 524 l 366 512 l 351 458 m 888 918 l 987 918 l 985 904 l 193 0 l 95 0 l 97 14 l 888 918 m 926 0 l 674 0 l 675 54 l 755 65 l 762 116 l 584 116 l 583 165 l 813 459 l 920 459 l 694 180 l 771 180 l 781 254 l 903 254 l 893 180 l 951 180 l 952 126 l 884 115 l 877 65 l 941 54 l 926 0 z "},"½":{"ha":1079,"x_min":95,"x_max":1014,"o":"m 351 458 l 105 458 l 106 512 l 176 524 l 221 840 l 144 840 l 146 879 l 275 918 l 354 918 l 298 524 l 366 512 l 351 458 m 888 918 l 987 918 l 985 904 l 193 0 l 95 0 l 97 14 l 888 918 m 886 342 q 876 389 891 376 q 836 402 861 402 q 810 400 823 402 q 788 394 798 397 q 766 386 777 391 l 737 311 l 673 315 l 689 427 q 740 446 712 438 q 796 460 764 454 q 865 466 828 466 q 929 459 900 466 q 977 437 958 452 q 1005 402 996 423 q 1010 351 1014 380 q 986 288 1006 321 q 935 222 966 256 q 866 153 905 188 q 787 81 828 118 l 787 78 l 888 78 l 926 150 l 987 142 l 960 0 l 617 0 l 625 56 q 726 144 680 103 q 806 220 772 185 q 862 286 841 256 q 886 342 883 316 z "},"¾":{"ha":1075,"x_min":95,"x_max":1007,"o":"m 236 458 q 183 463 209 458 q 138 472 158 467 q 95 486 115 478 l 111 605 l 175 609 l 182 537 q 203 530 192 532 q 224 525 212 527 q 250 523 236 523 q 301 541 278 523 q 328 594 323 559 q 328 632 332 616 q 316 658 325 648 q 294 672 307 667 q 266 676 281 676 l 229 676 l 239 740 l 277 740 q 321 758 305 740 q 342 810 338 776 q 333 854 347 841 q 295 868 319 868 q 273 866 283 868 q 254 863 262 865 q 236 857 245 860 l 208 785 l 146 789 l 162 907 q 211 920 185 914 q 261 928 233 924 q 320 932 290 932 q 437 904 400 932 q 467 823 474 875 q 453 780 463 798 q 428 749 442 762 q 399 727 414 736 q 372 712 385 718 q 405 697 389 707 q 432 675 420 688 q 449 644 443 662 q 451 604 454 627 q 428 540 446 567 q 381 494 410 513 q 316 467 353 476 q 236 458 279 458 m 909 918 l 1007 918 l 1005 904 l 214 0 l 115 0 l 117 14 l 909 918 m 947 0 l 694 0 l 695 54 l 775 65 l 783 116 l 604 116 l 603 165 l 833 459 l 940 459 l 714 180 l 791 180 l 802 254 l 924 254 l 913 180 l 972 180 l 972 126 l 904 115 l 897 65 l 961 54 l 947 0 z "},"þ":{"ha":825,"x_min":-58,"x_max":784,"o":"m 118 1044 l 342 1059 l 397 1006 l 337 583 q 354 606 342 591 q 383 640 366 621 q 423 678 400 659 q 473 714 446 698 q 532 741 500 730 q 599 751 564 751 q 689 736 652 751 q 749 691 727 722 q 778 608 771 659 q 774 483 784 557 l 756 355 q 715 212 746 279 q 634 94 684 144 q 517 14 585 43 q 363 -15 449 -15 q 309 -13 336 -15 q 255 -6 281 -10 l 227 -210 l 316 -224 l 302 -295 l -55 -295 l -58 -224 l 30 -210 l 193 960 l 104 973 l 118 1044 m 569 423 q 581 543 579 496 q 576 617 582 590 q 558 654 570 644 q 528 664 545 664 q 482 651 505 664 q 436 617 458 637 q 394 573 414 597 q 359 527 374 549 q 334 488 344 505 q 321 468 324 472 l 265 64 q 277 62 268 64 q 300 59 286 61 q 333 57 315 58 q 372 56 352 56 q 416 59 396 56 q 453 66 436 62 q 484 76 469 70 q 511 143 498 106 q 536 227 524 180 q 557 334 549 275 l 569 423 z "},"œ":{"ha":1172,"x_min":26,"x_max":1174,"o":"m 1161 559 q 1058 388 1145 450 q 830 327 970 327 q 777 329 803 327 q 731 335 750 332 l 726 300 q 740 121 709 183 q 861 60 771 60 q 956 75 903 60 q 1067 121 1010 91 l 1067 49 q 943 2 1012 18 q 802 -15 873 -15 q 573 62 640 -15 q 568 70 570 66 q 323 -15 460 -15 q 95 60 165 -15 q 47 291 26 135 l 56 354 q 197 647 84 543 q 471 751 310 751 q 700 673 632 751 q 928 751 795 751 q 1114 703 1054 751 q 1161 559 1174 656 m 547 429 q 542 612 564 549 q 449 676 519 676 q 398 671 425 676 q 348 656 372 666 q 291 526 314 597 q 256 381 267 454 l 245 300 q 256 119 229 179 q 345 60 283 60 q 396 65 370 60 q 446 80 423 71 q 503 202 479 132 q 533 328 523 263 l 547 429 m 816 656 q 773 542 793 606 q 741 404 754 477 q 793 399 766 401 q 840 397 819 397 q 878 400 860 397 q 908 406 895 402 q 941 469 927 434 q 961 544 955 503 q 955 645 970 614 q 895 676 939 676 q 856 671 876 676 q 816 656 836 667 z "},"ɑ":{"ha":844,"x_min":33,"x_max":765,"o":"m 751 0 l 528 -15 l 473 38 l 488 153 q 366 30 433 74 q 231 -15 298 -15 q 78 51 123 -15 q 52 253 33 116 l 70 380 q 202 651 95 551 q 467 751 309 751 q 611 736 531 751 q 761 698 690 722 l 675 85 l 765 71 l 751 0 m 258 313 q 248 136 241 199 q 304 72 255 72 q 392 126 338 72 q 504 267 446 180 l 559 666 q 513 676 541 671 q 453 680 484 680 q 400 675 428 680 q 347 660 373 669 q 300 541 319 609 q 270 401 280 473 l 258 313 z "},"ə":{"ha":656,"x_min":-14,"x_max":643,"o":"m 0 177 q 35 276 8 233 q 105 349 62 319 q 205 394 148 378 q 331 409 262 409 q 387 406 361 409 q 429 401 412 404 l 435 435 q 438 553 445 507 q 413 627 432 600 q 365 665 395 654 q 300 676 336 676 q 229 667 265 676 q 160 645 193 657 q 94 615 127 632 l 94 687 q 163 718 125 705 q 250 741 201 730 q 359 751 298 751 q 498 731 441 751 q 589 672 555 711 q 632 576 622 633 q 633 445 643 519 l 624 382 q 577 202 610 277 q 494 79 544 127 q 378 8 444 31 q 233 -15 313 -15 q 47 33 107 -15 q 0 177 -14 80 m 345 77 q 371 139 359 104 q 397 221 384 174 q 420 332 410 269 q 379 336 404 334 q 330 338 355 338 q 297 337 311 338 q 271 333 282 335 q 250 330 259 332 q 230 295 239 314 q 213 250 221 275 q 200 192 205 224 q 207 90 190 120 q 266 60 223 60 q 298 62 283 60 q 323 68 312 64 q 345 77 335 71 z "},"ɡ":{"ha":791,"x_min":-14,"x_max":756,"o":"m 15 -127 q 211 -193 125 -172 q 357 -215 298 -215 q 426 -110 397 -180 q 471 60 456 -40 l 483 151 q 361 28 431 71 q 216 -15 291 -15 q 70 53 110 -15 q 47 253 29 121 l 65 380 q 197 650 90 549 q 463 751 304 751 q 604 737 528 751 q 756 698 680 723 l 671 87 q 538 -201 644 -92 q 282 -310 432 -310 q 136 -294 214 -310 q -14 -249 58 -278 l 15 -127 m 253 313 q 246 133 237 194 q 298 72 255 72 q 395 124 342 72 q 499 267 449 177 l 555 666 q 506 676 534 672 q 449 680 477 680 q 391 673 422 680 q 337 656 361 667 q 297 549 315 610 q 265 401 278 487 l 253 313 z "},"+":{"ha":728,"x_min":102,"x_max":633,"o":"m 437 682 l 437 473 l 633 473 l 633 332 l 437 332 l 437 123 l 297 123 l 297 332 l 102 332 l 102 473 l 297 473 l 297 682 l 437 682 z "},"<":{"ha":779,"x_min":88,"x_max":677,"o":"m 88 342 l 88 475 l 656 729 l 677 729 l 677 601 l 248 412 l 248 406 l 677 218 l 677 89 l 656 89 l 88 342 z "},"=":{"ha":768,"x_min":102,"x_max":673,"o":"m 102 335 l 673 335 l 673 188 l 102 188 l 102 335 m 102 649 l 673 649 l 673 502 l 102 502 l 102 649 z "},">":{"ha":779,"x_min":102,"x_max":690,"o":"m 122 89 l 102 89 l 102 218 l 530 406 l 530 412 l 102 601 l 102 729 l 122 729 l 690 475 l 690 342 l 122 89 z "},"^":{"ha":667,"x_min":81,"x_max":681,"o":"m 340 1059 l 422 1059 l 681 732 l 681 711 l 546 711 l 387 911 l 376 911 l 217 711 l 81 711 l 81 732 l 340 1059 z "},"_":{"ha":709,"x_min":-34,"x_max":669,"o":"m -34 -159 l 669 -159 l 669 -257 l -34 -257 l -34 -159 z "},"|":{"ha":507,"x_min":197,"x_max":311,"o":"m 197 1133 l 311 1133 l 311 -364 l 197 -364 l 197 1133 z "},"~":{"ha":876,"x_min":102,"x_max":781,"o":"m 102 389 q 115 456 102 427 q 152 505 129 486 q 208 535 176 525 q 278 545 240 545 q 335 538 303 545 q 399 521 366 531 q 465 500 432 511 q 528 478 498 488 q 581 462 557 469 q 618 455 604 455 q 643 460 631 455 q 666 475 656 465 q 682 501 675 486 q 688 536 688 516 l 781 543 l 781 477 q 768 413 781 441 q 734 364 756 384 q 681 333 711 344 q 612 322 650 322 q 558 329 589 322 q 492 346 527 336 q 422 367 457 355 q 355 388 387 378 q 299 405 323 398 q 262 412 275 412 q 235 409 248 412 q 212 399 222 406 q 195 378 201 391 q 189 345 189 366 l 102 338 l 102 389 z "},"¤":{"ha":765,"x_min":61,"x_max":724,"o":"m 62 119 l 171 249 q 134 318 147 281 q 121 399 121 356 q 133 474 121 438 q 166 541 144 511 l 61 667 l 165 754 l 271 629 q 329 650 298 643 q 393 657 359 657 q 456 650 426 657 q 515 629 487 643 l 619 754 l 724 665 l 620 541 q 653 474 642 510 q 665 399 665 438 q 652 318 665 356 q 614 248 638 279 l 724 118 l 619 31 l 507 164 q 393 140 454 140 q 334 146 363 140 q 279 164 305 153 l 168 31 l 62 119 m 275 399 q 284 344 275 368 q 310 304 294 320 q 347 280 326 288 q 393 272 369 272 q 439 280 418 272 q 477 304 460 288 q 502 344 493 320 q 511 399 511 368 q 502 454 511 430 q 477 493 493 477 q 439 517 460 509 q 393 526 418 526 q 347 517 369 526 q 310 493 326 509 q 284 454 294 477 q 275 399 275 430 z "},"¦":{"ha":507,"x_min":197,"x_max":311,"o":"m 197 217 l 311 217 l 311 -364 l 197 -364 l 197 217 m 197 1133 l 311 1133 l 311 551 l 197 551 l 197 1133 z "},"©":{"ha":934,"x_min":81,"x_max":913,"o":"m 284 646 q 345 824 284 762 q 513 885 406 885 q 569 881 545 885 q 612 871 593 877 q 646 859 631 866 l 654 722 l 588 712 l 558 805 q 547 809 553 807 q 533 812 541 810 q 513 813 524 813 q 486 811 498 813 q 465 807 474 809 q 449 801 456 804 q 441 760 444 785 q 435 710 437 735 q 433 656 433 686 l 433 621 q 440 554 433 581 q 459 509 447 526 q 488 484 471 492 q 523 476 504 476 q 572 481 549 476 q 615 492 595 486 q 652 507 634 498 l 652 444 q 611 424 633 432 q 563 410 590 416 q 501 404 535 404 q 415 417 455 404 q 347 457 376 431 q 301 520 317 483 q 284 604 284 557 l 284 646 m 201 644 q 224 528 201 582 q 288 434 248 474 q 382 370 328 393 q 498 347 436 347 q 613 370 559 347 q 707 434 667 393 q 770 528 747 474 q 793 644 793 582 q 770 759 793 705 q 707 853 747 812 q 613 916 667 893 q 498 939 559 939 q 382 916 436 939 q 288 853 328 893 q 224 759 248 812 q 201 644 201 705 m 81 644 q 114 806 81 730 q 203 938 147 882 q 336 1027 260 994 q 498 1059 412 1059 q 660 1027 584 1059 q 792 938 736 994 q 881 806 848 882 q 913 644 913 730 q 881 481 913 557 q 792 349 848 406 q 660 260 736 293 q 498 227 584 227 q 387 242 440 227 q 288 284 334 257 q 203 349 241 311 q 138 433 165 387 q 96 533 111 479 q 81 644 81 586 z "},"¬":{"ha":829,"x_min":102,"x_max":728,"o":"m 102 541 l 728 541 l 728 207 l 594 207 l 594 414 l 102 414 l 102 541 z "},"®":{"ha":934,"x_min":81,"x_max":913,"o":"m 81 644 q 114 806 81 730 q 203 938 147 882 q 336 1027 260 994 q 498 1059 412 1059 q 660 1027 584 1059 q 792 938 736 994 q 881 806 848 882 q 913 644 913 730 q 881 481 913 557 q 792 349 848 406 q 660 260 736 293 q 498 227 584 227 q 387 242 440 227 q 288 284 334 257 q 203 349 241 311 q 138 433 165 387 q 96 533 111 479 q 81 644 81 586 m 201 644 q 224 528 201 582 q 288 434 248 474 q 382 370 328 393 q 498 347 436 347 q 613 370 559 347 q 707 434 667 393 q 770 528 747 474 q 793 644 793 582 q 770 759 793 705 q 707 853 747 812 q 613 916 667 893 q 498 939 559 939 q 382 916 436 939 q 288 853 328 893 q 224 759 248 812 q 201 644 201 705 m 335 800 l 288 811 l 294 855 l 511 855 q 632 827 590 855 q 673 734 673 798 q 657 663 673 690 q 616 618 640 637 l 616 614 l 668 482 l 709 475 l 703 431 l 570 431 l 505 608 l 465 608 l 465 485 l 513 475 l 507 431 l 294 431 l 288 475 l 335 485 l 335 800 m 465 791 l 465 671 l 483 671 q 519 673 506 671 q 532 676 527 675 q 537 694 534 684 q 540 712 538 702 q 542 734 542 722 q 527 775 542 758 q 476 791 512 791 l 465 791 z "},"°":{"ha":423,"x_min":61,"x_max":423,"o":"m 61 885 q 75 953 61 921 q 114 1008 90 985 q 171 1046 138 1032 q 242 1059 204 1059 q 313 1046 279 1059 q 370 1008 346 1032 q 409 953 395 985 q 423 885 423 921 q 409 817 423 849 q 370 762 395 785 q 313 724 346 738 q 242 711 279 711 q 171 724 204 711 q 114 762 138 738 q 75 817 90 785 q 61 885 61 849 m 166 885 q 188 825 166 846 q 242 805 210 805 q 296 825 275 805 q 318 885 318 846 q 296 945 318 924 q 242 965 275 965 q 188 945 210 965 q 166 885 166 924 z "},"±":{"ha":728,"x_min":102,"x_max":633,"o":"m 431 749 l 431 534 l 633 534 l 633 407 l 431 407 l 431 191 l 304 191 l 304 407 l 102 407 l 102 534 l 304 534 l 304 749 l 431 749 m 120 127 l 617 127 l 617 0 l 120 0 l 120 127 z "},"×":{"ha":705,"x_min":95,"x_max":616,"o":"m 193 663 l 355 500 l 519 663 l 616 566 l 453 402 l 616 239 l 519 142 l 355 304 l 193 142 l 95 239 l 258 402 l 95 566 l 193 663 z "},"÷":{"ha":802,"x_min":102,"x_max":707,"o":"m 102 466 l 707 466 l 707 339 l 102 339 l 102 466 m 322 119 q 327 162 322 142 q 341 198 332 183 q 362 223 350 214 q 388 232 374 232 q 432 227 412 232 q 468 212 452 221 q 491 190 483 203 q 500 164 500 178 q 495 122 500 142 q 480 87 490 102 q 459 63 471 72 q 433 54 447 54 q 389 59 410 54 q 354 73 369 64 q 331 94 339 81 q 322 119 322 106 m 322 638 q 328 681 322 661 q 342 717 333 702 q 362 742 351 732 q 388 751 374 751 q 432 745 412 751 q 468 731 452 740 q 491 709 483 722 q 500 683 500 697 q 494 641 500 661 q 480 606 489 621 q 458 582 471 591 q 433 572 446 572 q 389 577 410 572 q 354 592 369 583 q 331 613 339 601 q 322 638 322 625 z "},"℗":{"ha":934,"x_min":81,"x_max":913,"o":"m 81 644 q 114 806 81 730 q 203 938 147 882 q 336 1027 260 994 q 498 1059 412 1059 q 660 1027 584 1059 q 792 938 736 994 q 881 806 848 882 q 913 644 913 730 q 881 481 913 557 q 792 349 848 406 q 660 260 736 293 q 498 227 584 227 q 387 242 440 227 q 288 284 334 257 q 203 349 241 311 q 138 433 165 387 q 96 533 111 479 q 81 644 81 586 m 201 644 q 224 528 201 582 q 288 434 248 474 q 382 370 328 393 q 498 347 436 347 q 613 370 559 347 q 707 434 667 393 q 771 528 747 474 q 794 644 794 582 q 771 759 794 705 q 707 853 747 813 q 613 917 667 893 q 498 940 559 940 q 382 917 436 940 q 288 853 328 893 q 224 759 248 813 q 201 644 201 705 m 380 806 l 332 818 l 338 862 l 536 862 q 657 834 616 862 q 698 745 698 806 q 686 690 698 715 q 652 648 675 665 q 597 621 630 630 q 523 611 565 611 l 496 611 l 496 492 l 557 481 l 551 437 l 338 437 l 332 481 l 380 492 l 380 806 m 496 798 l 496 675 l 521 675 q 542 676 532 675 q 558 679 551 677 q 572 683 566 681 q 576 700 574 690 q 578 719 577 708 q 580 742 580 730 q 565 783 580 768 q 514 798 550 798 l 496 798 z "},"℠":{"ha":1206,"x_min":109,"x_max":1139,"o":"m 534 862 l 483 873 l 490 918 l 686 918 l 808 594 l 926 918 l 1132 918 l 1139 873 l 1087 862 l 1087 514 l 1139 503 l 1132 458 l 926 458 l 919 503 l 970 514 l 970 831 l 831 458 l 753 458 l 607 833 l 607 514 l 655 503 l 652 458 l 490 458 l 483 503 l 534 514 l 534 862 m 309 741 q 367 703 342 721 q 409 667 392 686 q 434 626 426 648 q 443 576 443 604 q 431 526 443 549 q 395 487 418 503 q 339 461 372 470 q 264 452 306 452 q 203 455 229 452 q 156 463 176 458 q 121 473 136 467 l 115 581 l 168 589 l 196 524 q 212 520 203 522 q 232 517 221 518 q 258 516 243 516 q 285 517 273 516 q 306 521 297 519 q 321 526 315 523 q 326 536 323 530 q 330 549 328 542 q 332 564 332 556 q 309 605 332 586 q 245 647 286 623 q 181 686 208 668 q 139 722 155 704 q 116 761 123 740 q 109 808 109 781 q 119 852 109 831 q 152 889 130 873 q 208 914 174 905 q 288 924 241 924 q 341 921 318 924 q 382 915 364 918 q 414 906 399 911 l 421 795 l 372 787 l 345 852 q 328 856 337 854 q 309 858 319 857 q 286 859 298 859 q 260 858 271 859 q 241 854 250 856 q 227 850 233 852 q 223 841 224 845 q 221 830 222 836 q 220 819 220 825 q 242 783 220 799 q 309 741 264 766 z "},"™":{"ha":1256,"x_min":102,"x_max":1188,"o":"m 976 918 l 1181 918 l 1188 873 l 1137 862 l 1137 514 l 1188 503 l 1181 458 l 975 458 l 968 503 l 1020 514 l 1020 831 l 881 458 l 802 458 l 656 833 l 656 514 l 705 503 l 701 458 l 539 458 l 532 503 l 584 514 l 584 862 l 532 873 l 539 918 l 735 918 l 858 594 l 976 918 m 111 918 l 503 918 l 511 796 l 462 789 l 434 854 l 365 854 l 365 514 l 416 503 l 410 458 l 203 458 l 196 503 l 248 514 l 248 854 l 178 854 l 151 789 l 102 796 l 111 918 z "},"Ω":{"ha":1159,"x_min":20,"x_max":1118,"o":"m 633 87 q 724 180 691 135 q 777 258 758 225 q 810 329 795 291 q 834 410 825 367 q 843 502 843 454 q 820 651 843 589 q 759 753 798 713 q 668 812 720 793 q 558 831 616 831 q 472 824 510 831 q 406 806 435 817 q 353 783 377 796 q 327 717 338 753 q 308 632 316 680 q 300 519 300 583 q 310 422 300 468 q 335 336 319 376 q 371 262 351 296 q 427 181 391 228 q 526 87 463 135 l 506 0 l 37 0 l 20 292 l 98 300 l 140 190 l 288 190 q 222 259 245 225 q 184 318 198 293 q 160 371 171 342 q 143 433 150 400 q 137 504 137 467 q 164 675 137 596 q 244 811 191 753 q 380 900 298 868 q 572 932 462 932 q 762 902 680 932 q 897 814 843 871 q 979 680 951 758 q 1006 505 1006 601 q 999 435 1006 468 q 983 372 993 401 q 959 318 972 343 q 923 260 946 294 q 859 190 900 226 l 998 190 l 1041 300 l 1118 292 l 1101 0 l 653 0 l 633 87 z "},"℮":{"ha":853,"x_min":47,"x_max":785,"o":"m 435 87 q 495 91 465 87 q 551 103 524 96 q 603 120 578 111 q 663 146 628 130 q 741 193 699 163 l 781 127 q 700 64 739 87 q 634 30 662 42 q 575 7 607 17 q 509 -9 544 -3 q 435 -15 473 -15 q 291 4 360 -15 q 167 65 221 22 q 80 176 113 107 q 47 346 47 245 q 77 519 47 444 q 159 646 106 594 q 284 724 212 697 q 443 751 357 751 q 590 727 526 751 q 697 659 654 703 q 763 551 741 615 q 785 408 785 488 l 785 321 l 264 321 l 264 134 q 303 111 281 121 q 358 94 326 101 q 435 87 390 87 m 582 422 l 582 608 q 545 628 566 620 q 495 643 524 636 q 429 649 467 649 q 356 642 387 649 q 303 624 326 634 q 264 602 281 614 l 264 422 l 582 422 z "},"∂":{"ha":776,"x_min":20,"x_max":731,"o":"m 704 444 q 655 252 688 337 q 570 107 621 167 q 452 17 519 48 q 301 -15 385 -15 q 164 7 220 -15 q 75 70 109 30 q 31 164 42 109 q 29 284 20 219 l 38 347 q 89 521 52 446 q 179 648 125 597 q 302 725 233 699 q 447 751 370 751 q 505 744 477 751 q 554 725 532 736 q 594 698 576 713 q 624 668 612 683 q 604 770 620 724 q 561 849 589 817 q 491 899 533 882 q 393 917 450 917 q 308 907 348 917 q 233 885 267 898 q 166 856 198 873 l 183 942 q 245 993 216 975 q 296 1022 275 1011 q 341 1041 317 1032 q 392 1054 365 1049 q 448 1059 419 1059 q 594 1017 535 1059 q 685 902 653 975 q 724 728 718 828 q 714 513 731 628 l 704 444 m 418 656 q 377 652 395 656 q 345 643 359 648 q 319 631 331 637 q 289 568 303 602 q 262 488 275 533 q 241 388 248 444 l 229 307 q 225 203 220 246 q 244 132 230 159 q 283 93 259 105 q 336 80 307 80 q 432 103 388 80 q 511 167 477 127 q 568 261 545 208 q 600 376 591 315 l 612 465 q 620 518 616 492 q 624 569 623 544 q 590 602 610 586 q 545 629 570 617 q 487 649 519 642 q 418 656 456 656 z "},"∆":{"ha":856,"x_min":-14,"x_max":815,"o":"m 815 0 l -14 0 l 315 918 l 489 932 l 815 0 m 362 694 l 156 101 l 574 101 l 373 694 l 362 694 z "},"∏":{"ha":1098,"x_min":81,"x_max":1065,"o":"m 192 814 l 81 838 l 95 918 l 1052 918 l 1065 838 l 954 814 l 954 -153 l 751 -153 l 751 817 l 395 817 l 395 -153 l 192 -153 l 192 814 z "},"∑":{"ha":879,"x_min":69,"x_max":812,"o":"m 90 918 l 783 918 l 799 701 l 702 686 l 646 817 l 306 817 l 517 487 l 517 380 l 233 23 l 659 23 l 715 154 l 812 139 l 796 -153 l 90 -153 l 70 -18 l 377 368 l 377 374 l 69 857 l 90 918 z "},"−":{"ha":694,"x_min":102,"x_max":599,"o":"m 102 473 l 599 473 l 599 332 l 102 332 l 102 473 z "},"≈":{"ha":882,"x_min":109,"x_max":787,"o":"m 109 498 q 122 565 109 536 q 159 614 136 594 q 215 643 182 633 q 285 653 247 653 q 341 646 310 653 q 406 630 373 640 q 472 608 439 620 q 535 587 505 597 q 588 570 564 577 q 625 564 611 564 q 650 569 637 564 q 672 584 663 574 q 688 609 682 594 q 694 645 694 625 l 787 652 l 787 586 q 775 521 787 550 q 741 472 763 492 q 687 441 718 452 q 619 431 656 431 q 565 437 596 431 q 499 454 534 444 q 429 475 464 464 q 362 497 393 487 q 306 513 330 507 q 269 520 281 520 q 242 517 255 520 q 218 507 229 515 q 202 487 208 500 q 196 454 196 474 l 109 447 l 109 498 m 109 227 q 122 294 109 264 q 159 342 136 323 q 215 372 182 362 q 285 382 247 382 q 341 375 310 382 q 406 358 373 368 q 472 337 439 349 q 535 316 505 326 q 588 299 564 306 q 625 292 611 292 q 650 297 637 292 q 672 313 663 302 q 688 338 682 323 q 694 374 694 353 l 787 380 l 787 315 q 775 250 787 279 q 741 201 763 221 q 687 170 718 181 q 619 159 656 159 q 565 166 596 159 q 499 183 534 173 q 429 204 464 193 q 362 225 393 216 q 306 242 330 235 q 269 249 281 249 q 242 246 255 249 q 218 236 229 243 q 202 216 208 229 q 196 182 196 203 l 109 176 l 109 227 z "},"≠":{"ha":768,"x_min":102,"x_max":673,"o":"m 102 335 l 294 335 l 346 502 l 102 502 l 102 649 l 392 649 l 465 880 l 597 880 l 597 866 l 528 649 l 673 649 l 673 502 l 482 502 l 430 335 l 673 335 l 673 188 l 384 188 l 302 -75 l 170 -75 l 170 -62 l 248 188 l 102 188 l 102 335 z "},"≤":{"ha":751,"x_min":88,"x_max":650,"o":"m 88 531 l 88 650 l 629 904 l 650 904 l 650 783 l 248 594 l 248 587 l 650 399 l 650 277 l 629 277 l 88 531 m 88 188 l 650 188 l 650 61 l 88 61 l 88 188 z "},"≥":{"ha":751,"x_min":102,"x_max":663,"o":"m 122 277 l 102 277 l 102 399 l 503 587 l 503 594 l 102 783 l 102 904 l 122 904 l 663 650 l 663 531 l 122 277 m 102 188 l 663 188 l 663 61 l 102 61 l 102 188 z "},"·":{"ha":490,"x_min":170,"x_max":368,"o":"m 170 439 q 175 487 170 465 q 191 527 181 509 q 215 554 201 544 q 243 564 228 564 q 292 558 269 564 q 332 543 315 553 q 358 519 349 532 q 368 490 368 505 q 362 443 368 465 q 346 402 356 420 q 322 375 336 385 q 294 365 309 365 q 245 371 267 365 q 205 387 222 376 q 179 410 189 397 q 170 439 170 424 z "},"¸":{"ha":591,"x_min":136,"x_max":456,"o":"m 372 25 l 323 -71 q 382 -86 356 -77 q 425 -110 408 -96 q 449 -144 441 -124 q 452 -193 456 -165 q 433 -241 448 -219 q 396 -278 419 -262 q 340 -301 372 -293 q 270 -310 309 -310 q 216 -305 241 -310 q 171 -294 191 -300 q 136 -278 151 -287 l 144 -215 q 180 -228 162 -222 q 220 -238 199 -234 q 262 -242 242 -242 q 289 -241 277 -242 q 309 -237 300 -239 q 313 -229 311 -233 q 317 -218 315 -224 q 321 -201 319 -211 q 320 -173 323 -185 q 308 -153 317 -161 q 281 -137 298 -144 q 239 -126 264 -131 l 221 -83 l 275 25 l 372 25 z "},"¨":{"ha":702,"x_min":102,"x_max":600,"o":"m 102 942 q 107 982 102 963 q 123 1014 113 1000 q 146 1036 133 1028 q 174 1044 159 1044 q 213 1039 195 1044 q 245 1023 232 1033 q 267 999 259 1013 q 275 971 275 986 q 269 932 275 951 q 254 900 263 914 q 231 878 244 886 q 203 869 218 869 q 163 875 182 869 q 131 891 145 881 q 110 915 117 901 q 102 942 102 928 m 427 942 q 433 982 427 963 q 448 1014 439 1000 q 471 1036 458 1028 q 498 1044 484 1044 q 538 1039 519 1044 q 571 1023 557 1033 q 592 999 585 1013 q 600 971 600 986 q 594 932 600 951 q 579 900 589 914 q 556 878 569 886 q 528 869 543 869 q 488 875 506 869 q 456 891 469 881 q 435 915 443 901 q 427 942 427 928 z "},"¯":{"ha":739,"x_min":102,"x_max":637,"o":"m 129 1006 l 637 1006 l 610 904 l 102 904 l 129 1006 z "},"ˆ":{"ha":620,"x_min":63,"x_max":533,"o":"m 530 865 l 424 858 l 309 1025 l 146 858 l 63 865 l 66 886 l 260 1139 l 410 1133 l 533 886 l 530 865 z "},"ˇ":{"ha":741,"x_min":136,"x_max":606,"o":"m 138 1126 l 245 1133 l 359 964 l 522 1133 l 606 1126 l 603 1104 l 409 851 l 259 858 l 136 1104 l 138 1126 z "},"˝":{"ha":804,"x_min":102,"x_max":703,"o":"m 105 886 l 264 1133 l 448 1126 l 441 1081 l 193 858 l 102 865 l 105 886 m 360 886 l 519 1133 l 703 1126 l 696 1081 l 448 858 l 357 865 l 360 886 z "},"˘":{"ha":651,"x_min":102,"x_max":549,"o":"m 549 1080 q 524 1000 544 1040 q 471 929 504 960 q 395 878 439 897 q 297 858 351 858 q 205 878 243 858 q 143 929 166 897 q 111 1000 119 960 q 107 1080 102 1040 l 180 1086 q 183 1056 178 1074 q 204 1021 189 1038 q 246 992 219 1004 q 314 980 273 980 q 385 992 355 980 q 435 1021 415 1004 q 465 1056 455 1038 q 477 1086 475 1074 l 549 1080 z "},"˙":{"ha":532,"x_min":170,"x_max":362,"o":"m 170 946 q 176 989 170 969 q 193 1025 182 1010 q 219 1050 204 1041 q 250 1059 233 1059 q 293 1053 273 1059 q 329 1036 314 1046 q 353 1010 345 1025 q 362 979 362 996 q 356 936 362 956 q 338 900 349 915 q 313 875 328 884 q 282 866 298 866 q 238 872 258 866 q 202 890 218 879 q 178 915 187 901 q 170 946 170 930 z "},"˚":{"ha":595,"x_min":136,"x_max":460,"o":"m 140 974 q 163 1046 146 1015 q 205 1096 180 1076 q 261 1126 231 1116 q 325 1136 292 1136 q 380 1129 355 1136 q 425 1108 406 1122 q 451 1071 443 1094 q 456 1017 460 1048 q 433 943 450 974 q 391 892 416 912 q 336 864 367 873 q 271 854 305 854 q 214 861 240 854 q 170 883 188 868 q 144 920 152 897 q 140 974 136 943 m 248 996 q 255 933 243 955 q 294 911 268 911 q 308 911 301 911 q 321 913 315 912 q 332 917 327 915 q 338 938 336 926 q 343 963 341 949 q 349 996 346 978 q 341 1058 354 1036 q 304 1080 329 1080 q 291 1079 296 1080 q 280 1077 285 1078 q 271 1074 275 1076 q 262 1055 266 1065 q 255 1029 258 1044 q 248 996 251 1015 z "},"˛":{"ha":557,"x_min":136,"x_max":421,"o":"m 420 0 q 318 -94 357 -45 q 273 -186 279 -142 q 277 -224 269 -214 q 306 -235 286 -235 q 340 -227 321 -235 q 379 -208 360 -219 q 421 -181 399 -197 l 410 -251 q 363 -280 388 -268 q 307 -301 338 -292 q 240 -310 276 -310 q 192 -305 213 -310 q 159 -290 172 -300 q 141 -260 146 -279 q 139 -214 136 -242 q 169 -134 144 -174 q 231 -56 193 -94 q 317 18 269 -18 q 420 86 366 54 l 420 0 z "},"Ə":{"ha":905,"x_min":24,"x_max":907,"o":"m 68 483 l 679 483 l 686 531 q 687 686 699 624 q 646 784 676 747 q 571 837 616 821 q 470 852 526 852 q 350 840 406 852 q 249 814 294 829 q 162 779 203 799 l 174 857 q 248 887 208 873 q 333 911 289 901 q 421 927 376 922 q 508 932 467 932 q 700 908 621 932 q 826 837 779 884 q 890 720 873 789 q 894 561 907 650 l 886 508 q 828 276 867 374 q 727 113 788 177 q 584 17 666 48 q 399 -15 502 -15 q 110 78 196 -15 q 50 356 24 171 l 59 417 l 68 483 m 258 387 q 253 233 246 295 q 281 135 259 172 q 340 82 304 98 q 422 66 376 66 q 487 71 458 66 q 537 84 515 77 q 577 101 559 91 q 609 179 594 137 q 639 274 624 221 q 666 393 654 328 l 259 392 l 258 387 z "},"́":{"ha":0,"x_min":-483,"x_max":-137,"o":"m -479 886 l -321 1133 l -137 1126 l -144 1081 l -392 858 l -483 865 l -479 886 z "},"ˊ":{"ha":617,"x_min":136,"x_max":481,"o":"m 139 886 l 298 1133 l 481 1126 l 475 1081 l 227 858 l 136 865 l 139 886 z "},"ˋ":{"ha":562,"x_min":136,"x_max":426,"o":"m 422 865 l 321 858 l 136 1081 l 142 1126 l 336 1133 l 426 886 l 422 865 z "},"̀":{"ha":0,"x_min":-422,"x_max":-132,"o":"m -135 865 l -236 858 l -422 1081 l -415 1126 l -221 1133 l -132 886 l -135 865 z "},"̉":{"ha":0,"x_min":-425,"x_max":-131,"o":"m -230 930 q -258 915 -247 922 q -276 903 -269 909 q -287 893 -283 898 q -291 884 -290 889 q -291 871 -292 877 q -288 862 -289 865 l -352 844 q -361 863 -358 853 q -367 885 -365 873 q -367 907 -369 896 q -363 926 -366 916 q -354 945 -360 935 q -336 965 -347 954 q -309 986 -326 975 q -268 1017 -279 1005 q -255 1042 -256 1028 q -260 1065 -254 1055 q -286 1076 -267 1076 q -302 1074 -294 1076 q -316 1070 -309 1072 q -328 1065 -323 1067 l -353 1002 l -425 1005 l -412 1095 q -368 1113 -391 1105 q -315 1127 -344 1121 q -252 1133 -286 1133 q -162 1108 -193 1133 q -137 1037 -131 1084 q -167 976 -142 1002 q -230 930 -192 950 z "},"̛":{"ha":0,"x_min":-499,"x_max":-133,"o":"m -176 971 q -141 894 -149 930 q -138 827 -133 857 q -165 750 -144 785 q -228 684 -186 715 q -337 625 -271 653 q -499 568 -403 597 l -488 644 q -402 683 -437 665 q -345 719 -367 701 q -312 757 -323 737 q -297 802 -300 777 q -298 844 -294 825 q -310 878 -302 863 q -328 905 -317 892 l -324 932 l -176 971 z "},"̆":{"ha":0,"x_min":-552,"x_max":-104,"o":"m -104 1080 q -130 1000 -110 1040 q -182 929 -150 960 q -259 878 -215 897 q -357 858 -303 858 q -449 878 -410 858 q -511 929 -488 897 q -543 1000 -534 960 q -547 1080 -552 1040 l -473 1086 q -470 1056 -475 1074 q -450 1021 -465 1038 q -408 992 -435 1004 q -340 980 -381 980 q -269 992 -298 980 q -219 1021 -239 1004 q -189 1056 -199 1038 q -176 1086 -178 1074 l -104 1080 z "},"̂":{"ha":0,"x_min":-610,"x_max":-140,"o":"m -142 865 l -249 858 l -364 1025 l -526 858 l -610 865 l -607 886 l -413 1139 l -263 1133 l -140 886 l -142 865 z "},"̃":{"ha":0,"x_min":-705,"x_max":-106,"o":"m -701 886 q -641 1016 -688 972 q -520 1059 -593 1059 q -442 1045 -481 1059 q -369 1014 -404 1031 q -305 983 -334 997 q -254 969 -275 969 q -211 989 -229 969 q -186 1050 -193 1009 l -106 1057 l -113 1008 q -169 882 -125 928 q -286 836 -214 836 q -361 850 -321 836 q -439 881 -401 864 q -509 912 -477 898 q -562 926 -542 926 q -607 913 -589 926 q -631 859 -625 900 l -705 852 l -701 886 z "},"ˉ":{"ha":739,"x_min":102,"x_max":637,"o":"m 129 1006 l 637 1006 l 610 904 l 102 904 l 129 1006 z "},"̄":{"ha":0,"x_min":-635,"x_max":-100,"o":"m -608 1006 l -100 1006 l -127 904 l -635 904 l -608 1006 z "},"̋":{"ha":0,"x_min":-707,"x_max":-106,"o":"m -704 886 l -545 1133 l -361 1126 l -368 1081 l -616 858 l -707 865 l -704 886 m -449 886 l -290 1133 l -106 1126 l -113 1081 l -361 858 l -452 865 l -449 886 z "},"̊":{"ha":0,"x_min":-454,"x_max":-130,"o":"m -450 974 q -427 1046 -444 1015 q -385 1096 -410 1076 q -329 1126 -359 1116 q -265 1136 -298 1136 q -210 1129 -235 1136 q -165 1108 -184 1122 q -139 1071 -147 1094 q -134 1017 -130 1048 q -157 943 -140 974 q -199 892 -174 912 q -254 864 -223 873 q -319 854 -285 854 q -376 861 -350 854 q -420 883 -402 868 q -446 920 -438 897 q -450 974 -454 943 m -342 996 q -335 933 -347 955 q -296 911 -322 911 q -282 911 -289 911 q -269 913 -275 912 q -258 917 -263 915 q -252 938 -254 926 q -247 963 -249 949 q -241 996 -244 978 q -249 1058 -236 1036 q -286 1080 -261 1080 q -299 1079 -294 1080 q -310 1077 -305 1078 q -319 1074 -315 1076 q -328 1055 -324 1065 q -335 1029 -332 1044 q -342 996 -339 1015 z "},"̈":{"ha":0,"x_min":-602,"x_max":-104,"o":"m -602 942 q -596 982 -602 963 q -581 1014 -591 1000 q -558 1036 -571 1028 q -530 1044 -545 1044 q -491 1039 -509 1044 q -458 1023 -472 1033 q -437 999 -445 1013 q -429 971 -429 986 q -435 932 -429 951 q -450 900 -441 914 q -473 878 -460 886 q -500 869 -486 869 q -541 875 -522 869 q -573 891 -559 881 q -594 915 -587 901 q -602 942 -602 928 m -277 942 q -271 982 -277 963 q -256 1014 -265 1000 q -233 1036 -246 1028 q -205 1044 -220 1044 q -166 1039 -184 1044 q -133 1023 -147 1033 q -112 999 -119 1013 q -104 971 -104 986 q -110 932 -104 951 q -125 900 -115 914 q -148 878 -135 886 q -176 869 -161 869 q -216 875 -198 869 q -248 891 -235 881 q -269 915 -261 901 q -277 942 -277 928 z "},"̌":{"ha":0,"x_min":-608,"x_max":-138,"o":"m -605 1126 l -498 1133 l -384 964 l -221 1133 l -138 1126 l -140 1104 l -334 851 l -484 858 l -608 1104 l -605 1126 z "},"̇":{"ha":0,"x_min":-347,"x_max":-155,"o":"m -347 946 q -341 989 -347 969 q -323 1025 -334 1010 q -298 1050 -313 1041 q -267 1059 -283 1059 q -223 1053 -244 1059 q -188 1036 -203 1046 q -163 1010 -172 1025 q -155 979 -155 996 q -161 936 -155 956 q -178 900 -168 915 q -204 875 -189 884 q -235 866 -218 866 q -279 872 -258 866 q -314 890 -299 879 q -338 915 -330 901 q -347 946 -347 930 z "},"̣":{"ha":0,"x_min":-358,"x_max":-165,"o":"m -358 -230 q -352 -186 -358 -207 q -334 -151 -345 -166 q -309 -126 -323 -135 q -278 -117 -294 -117 q -234 -123 -255 -117 q -198 -140 -214 -130 q -174 -166 -183 -151 q -165 -197 -165 -180 q -172 -240 -165 -220 q -189 -276 -178 -261 q -215 -301 -200 -292 q -245 -310 -229 -310 q -290 -303 -269 -310 q -325 -286 -310 -297 q -349 -261 -340 -275 q -358 -230 -358 -246 z "},"ã":{"ha":844,"x_min":33,"x_max":808,"o":"m 751 0 l 528 -15 l 473 38 l 488 153 q 366 30 433 74 q 231 -15 298 -15 q 78 51 123 -15 q 52 253 33 116 l 70 380 q 202 651 95 551 q 467 751 309 751 q 611 736 531 751 q 761 698 690 722 l 675 85 l 765 71 l 751 0 m 258 313 q 248 136 241 199 q 304 72 255 72 q 392 126 338 72 q 504 267 446 180 l 559 666 q 513 676 541 671 q 453 680 484 680 q 400 675 428 680 q 347 660 373 669 q 300 541 319 609 q 270 401 280 473 l 258 313 m 214 886 q 274 1016 226 972 q 394 1059 321 1059 q 472 1045 433 1059 q 545 1014 511 1031 q 609 983 580 997 q 660 969 639 969 q 703 989 686 969 q 728 1050 721 1009 l 808 1057 l 801 1008 q 745 882 789 928 q 629 836 701 836 q 553 850 593 836 q 475 881 513 864 q 405 912 437 898 q 352 926 372 926 q 307 913 325 926 q 283 859 290 900 l 209 852 l 214 886 z "},"ä":{"ha":844,"x_min":33,"x_max":765,"o":"m 751 0 l 528 -15 l 473 38 l 488 153 q 366 30 433 74 q 231 -15 298 -15 q 78 51 123 -15 q 52 253 33 116 l 70 380 q 202 651 95 551 q 467 751 309 751 q 611 736 531 751 q 761 698 690 722 l 675 85 l 765 71 l 751 0 m 258 313 q 248 136 241 199 q 304 72 255 72 q 392 126 338 72 q 504 267 446 180 l 559 666 q 513 676 541 671 q 453 680 484 680 q 400 675 428 680 q 347 660 373 669 q 300 541 319 609 q 270 401 280 473 l 258 313 m 251 942 q 257 982 251 963 q 272 1014 262 1000 q 295 1036 282 1028 q 323 1044 309 1044 q 362 1039 344 1044 q 395 1023 381 1033 q 416 999 408 1013 q 424 971 424 986 q 418 932 424 951 q 403 900 412 914 q 380 878 393 886 q 353 869 367 869 q 313 875 331 869 q 280 891 294 881 q 259 915 267 901 q 251 942 251 928 m 576 942 q 582 982 576 963 q 597 1014 588 1000 q 620 1036 607 1028 q 648 1044 633 1044 q 687 1039 669 1044 q 720 1023 706 1033 q 742 999 734 1013 q 749 971 749 986 q 744 932 749 951 q 728 900 738 914 q 705 878 718 886 q 677 869 692 869 q 637 875 655 869 q 605 891 618 881 q 584 915 592 901 q 576 942 576 928 z "},"ā":{"ha":844,"x_min":33,"x_max":783,"o":"m 751 0 l 528 -15 l 473 38 l 488 153 q 366 30 433 74 q 231 -15 298 -15 q 78 51 123 -15 q 52 253 33 116 l 70 380 q 202 651 95 551 q 467 751 309 751 q 611 736 531 751 q 761 698 690 722 l 675 85 l 765 71 l 751 0 m 258 313 q 248 136 241 199 q 304 72 255 72 q 392 126 338 72 q 504 267 446 180 l 559 666 q 513 676 541 671 q 453 680 484 680 q 400 675 428 680 q 347 660 373 669 q 300 541 319 609 q 270 401 280 473 l 258 313 m 275 1006 l 783 1006 l 756 904 l 248 904 l 275 1006 z "},"â":{"ha":844,"x_min":33,"x_max":765,"o":"m 751 0 l 528 -15 l 473 38 l 488 153 q 366 30 433 74 q 231 -15 298 -15 q 78 51 123 -15 q 52 253 33 116 l 70 380 q 202 651 95 551 q 467 751 309 751 q 611 736 531 751 q 761 698 690 722 l 675 85 l 765 71 l 751 0 m 258 313 q 248 136 241 199 q 304 72 255 72 q 392 126 338 72 q 504 267 446 180 l 559 666 q 513 676 541 671 q 453 680 484 680 q 400 675 428 680 q 347 660 373 669 q 300 541 319 609 q 270 401 280 473 l 258 313 m 724 865 l 618 858 l 503 1025 l 340 858 l 257 865 l 260 886 l 454 1139 l 604 1133 l 727 886 l 724 865 z "},"ǎ":{"ha":844,"x_min":33,"x_max":765,"o":"m 751 0 l 528 -15 l 473 38 l 488 153 q 366 30 433 74 q 231 -15 298 -15 q 78 51 123 -15 q 52 253 33 116 l 70 380 q 202 651 95 551 q 467 751 309 751 q 611 736 531 751 q 761 698 690 722 l 675 85 l 765 71 l 751 0 m 258 313 q 248 136 241 199 q 304 72 255 72 q 392 126 338 72 q 504 267 446 180 l 559 666 q 513 676 541 671 q 453 680 484 680 q 400 675 428 680 q 347 660 373 669 q 300 541 319 609 q 270 401 280 473 l 258 313 m 296 1126 l 403 1133 l 517 964 l 680 1133 l 764 1126 l 761 1104 l 567 851 l 417 858 l 294 1104 l 296 1126 z "},"ă":{"ha":844,"x_min":33,"x_max":765,"o":"m 751 0 l 528 -15 l 473 38 l 488 153 q 366 30 433 74 q 231 -15 298 -15 q 78 51 123 -15 q 52 253 33 116 l 70 380 q 202 651 95 551 q 467 751 309 751 q 611 736 531 751 q 761 698 690 722 l 675 85 l 765 71 l 751 0 m 258 313 q 248 136 241 199 q 304 72 255 72 q 392 126 338 72 q 504 267 446 180 l 559 666 q 513 676 541 671 q 453 680 484 680 q 400 675 428 680 q 347 660 373 669 q 300 541 319 609 q 270 401 280 473 l 258 313 m 742 1080 q 716 1000 736 1040 q 664 929 696 960 q 587 878 631 897 q 490 858 543 858 q 397 878 436 858 q 335 929 359 897 q 303 1000 312 960 q 300 1080 294 1040 l 373 1086 q 376 1056 371 1074 q 396 1021 381 1038 q 438 992 412 1004 q 507 980 465 980 q 578 992 548 980 q 628 1021 608 1004 q 658 1056 648 1038 q 670 1086 668 1074 l 742 1080 z "},"å":{"ha":844,"x_min":33,"x_max":765,"o":"m 751 0 l 528 -15 l 473 38 l 488 153 q 366 30 433 74 q 231 -15 298 -15 q 78 51 123 -15 q 52 253 33 116 l 70 380 q 202 651 95 551 q 467 751 309 751 q 611 736 531 751 q 761 698 690 722 l 675 85 l 765 71 l 751 0 m 258 313 q 248 136 241 199 q 304 72 255 72 q 392 126 338 72 q 504 267 446 180 l 559 666 q 513 676 541 671 q 453 680 484 680 q 400 675 428 680 q 347 660 373 669 q 300 541 319 609 q 270 401 280 473 l 258 313 m 360 974 q 384 1046 366 1015 q 426 1096 401 1076 q 482 1126 451 1116 q 545 1136 513 1136 q 601 1129 575 1136 q 645 1108 627 1122 q 672 1071 663 1094 q 676 1017 680 1048 q 653 943 670 974 q 612 892 636 912 q 556 864 587 873 q 492 854 526 854 q 434 861 460 854 q 390 883 408 868 q 364 920 372 897 q 360 974 356 943 m 469 996 q 476 933 463 955 q 514 911 488 911 q 529 911 522 911 q 542 913 536 912 q 553 917 547 915 q 559 938 556 926 q 564 963 562 949 q 569 996 566 978 q 562 1058 574 1036 q 524 1080 549 1080 q 511 1079 517 1080 q 500 1077 505 1078 q 491 1074 495 1076 q 483 1055 486 1065 q 475 1029 479 1044 q 469 996 471 1015 z "},"ả":{"ha":844,"x_min":33,"x_max":765,"o":"m 751 0 l 528 -15 l 473 38 l 488 153 q 366 30 433 74 q 231 -15 298 -15 q 78 51 123 -15 q 52 253 33 116 l 70 380 q 202 651 95 551 q 467 751 309 751 q 611 736 531 751 q 761 698 690 722 l 675 85 l 765 71 l 751 0 m 258 313 q 248 136 241 199 q 304 72 255 72 q 392 126 338 72 q 504 267 446 180 l 559 666 q 513 676 541 671 q 453 680 484 680 q 400 675 428 680 q 347 660 373 669 q 300 541 319 609 q 270 401 280 473 l 258 313 m 578 930 q 550 915 562 922 q 532 903 539 909 q 522 893 525 898 q 517 884 518 889 q 518 871 516 877 q 521 862 519 865 l 456 844 q 447 863 450 853 q 441 885 444 873 q 441 907 439 896 q 445 926 442 916 q 455 945 448 935 q 472 965 461 954 q 500 986 483 975 q 541 1017 530 1005 q 553 1042 552 1028 q 548 1065 555 1055 q 523 1076 542 1076 q 507 1074 514 1076 q 492 1070 499 1072 q 480 1065 486 1067 l 456 1002 l 383 1005 l 396 1095 q 441 1113 417 1105 q 494 1127 465 1121 q 557 1133 523 1133 q 647 1108 616 1133 q 671 1037 677 1084 q 642 976 667 1002 q 578 930 616 950 z "},"ẫ":{"ha":844,"x_min":33,"x_max":868,"o":"m 751 0 l 528 -15 l 473 38 l 488 153 q 366 30 433 74 q 231 -15 298 -15 q 78 51 123 -15 q 52 253 33 116 l 70 380 q 202 651 95 551 q 467 751 309 751 q 611 736 531 751 q 761 698 690 722 l 675 85 l 765 71 l 751 0 m 258 313 q 248 136 241 199 q 304 72 255 72 q 392 126 338 72 q 504 267 446 180 l 559 666 q 513 676 541 671 q 453 680 484 680 q 400 675 428 680 q 347 660 373 669 q 300 541 319 609 q 270 401 280 473 l 258 313 m 274 1231 q 334 1360 286 1317 q 454 1403 382 1403 q 532 1389 494 1403 q 606 1358 571 1375 q 670 1328 640 1341 q 720 1314 699 1314 q 764 1334 746 1314 q 788 1395 781 1354 l 868 1402 l 861 1353 q 805 1226 850 1272 q 689 1181 761 1181 q 614 1195 654 1181 q 536 1225 574 1208 q 465 1256 498 1242 q 412 1270 433 1270 q 368 1257 385 1270 q 344 1204 350 1244 l 269 1197 l 274 1231 m 750 865 l 644 858 l 528 1025 l 366 858 l 283 865 l 286 886 l 479 1139 l 629 1133 l 753 886 l 750 865 z "},"ấ":{"ha":844,"x_min":33,"x_max":985,"o":"m 751 0 l 528 -15 l 473 38 l 488 153 q 366 30 433 74 q 231 -15 298 -15 q 78 51 123 -15 q 52 253 33 116 l 70 380 q 202 651 95 551 q 467 751 309 751 q 611 736 531 751 q 761 698 690 722 l 675 85 l 765 71 l 751 0 m 258 313 q 248 136 241 199 q 304 72 255 72 q 392 126 338 72 q 504 267 446 180 l 559 666 q 513 676 541 671 q 453 680 484 680 q 400 675 428 680 q 347 660 373 669 q 300 541 319 609 q 270 401 280 473 l 258 313 m 750 865 l 644 858 l 528 1025 l 366 858 l 283 865 l 286 886 l 479 1139 l 629 1133 l 753 886 l 750 865 m 718 1066 l 835 1227 l 985 1220 l 978 1175 l 791 1038 l 714 1044 l 718 1066 z "},"ầ":{"ha":844,"x_min":33,"x_max":765,"o":"m 751 0 l 528 -15 l 473 38 l 488 153 q 366 30 433 74 q 231 -15 298 -15 q 78 51 123 -15 q 52 253 33 116 l 70 380 q 202 651 95 551 q 467 751 309 751 q 611 736 531 751 q 761 698 690 722 l 675 85 l 765 71 l 751 0 m 258 313 q 248 136 241 199 q 304 72 255 72 q 392 126 338 72 q 504 267 446 180 l 559 666 q 513 676 541 671 q 453 680 484 680 q 400 675 428 680 q 347 660 373 669 q 300 541 319 609 q 270 401 280 473 l 258 313 m 750 865 l 644 858 l 528 1025 l 366 858 l 283 865 l 286 886 l 479 1139 l 629 1133 l 753 886 l 750 865 m 366 1044 l 279 1038 l 130 1175 l 137 1220 l 297 1227 l 370 1066 l 366 1044 z "},"ẩ":{"ha":844,"x_min":33,"x_max":945,"o":"m 751 0 l 528 -15 l 473 38 l 488 153 q 366 30 433 74 q 231 -15 298 -15 q 78 51 123 -15 q 52 253 33 116 l 70 380 q 202 651 95 551 q 467 751 309 751 q 611 736 531 751 q 761 698 690 722 l 675 85 l 765 71 l 751 0 m 258 313 q 248 136 241 199 q 304 72 255 72 q 392 126 338 72 q 504 267 446 180 l 559 666 q 513 676 541 671 q 453 680 484 680 q 400 675 428 680 q 347 660 373 669 q 300 541 319 609 q 270 401 280 473 l 258 313 m 750 865 l 644 858 l 528 1025 l 366 858 l 283 865 l 286 886 l 479 1139 l 629 1133 l 753 886 l 750 865 m 846 1113 q 818 1098 829 1104 q 799 1086 806 1091 q 789 1076 792 1080 q 785 1067 785 1072 q 785 1054 783 1059 q 788 1044 787 1048 l 724 1026 q 714 1046 718 1036 q 709 1067 711 1056 q 709 1090 707 1078 q 712 1108 709 1099 q 722 1127 715 1118 q 739 1147 728 1137 q 767 1168 750 1158 q 808 1199 797 1187 q 821 1224 819 1211 q 815 1248 822 1238 q 790 1258 809 1258 q 774 1256 781 1258 q 760 1252 766 1255 q 747 1248 753 1250 l 723 1184 l 650 1187 l 663 1278 q 708 1296 684 1288 q 761 1309 732 1303 q 824 1315 790 1315 q 914 1291 883 1315 q 939 1219 945 1267 q 909 1158 934 1184 q 846 1113 884 1133 z "},"ẵ":{"ha":844,"x_min":33,"x_max":857,"o":"m 751 0 l 528 -15 l 473 38 l 488 153 q 366 30 433 74 q 231 -15 298 -15 q 78 51 123 -15 q 52 253 33 116 l 70 380 q 202 651 95 551 q 467 751 309 751 q 611 736 531 751 q 761 698 690 722 l 675 85 l 765 71 l 751 0 m 258 313 q 248 136 241 199 q 304 72 255 72 q 392 126 338 72 q 504 267 446 180 l 559 666 q 513 676 541 671 q 453 680 484 680 q 400 675 428 680 q 347 660 373 669 q 300 541 319 609 q 270 401 280 473 l 258 313 m 761 1080 q 735 1000 755 1040 q 683 929 715 960 q 606 878 650 897 q 509 858 562 858 q 416 878 455 858 q 354 929 378 897 q 322 1000 331 960 q 319 1080 313 1040 l 392 1086 q 395 1056 390 1074 q 415 1021 400 1038 q 457 992 431 1004 q 526 980 484 980 q 597 992 567 980 q 647 1021 627 1004 q 677 1056 667 1038 q 689 1086 687 1074 l 761 1080 m 262 1173 q 322 1302 275 1259 q 443 1345 370 1345 q 521 1331 482 1345 q 594 1300 559 1317 q 658 1269 629 1283 q 709 1255 688 1255 q 752 1275 734 1255 q 777 1337 770 1295 l 857 1343 l 850 1295 q 794 1168 838 1214 q 677 1122 749 1122 q 602 1136 642 1122 q 524 1167 562 1150 q 454 1198 486 1184 q 401 1212 421 1212 q 356 1199 374 1212 q 332 1145 338 1186 l 258 1139 l 262 1173 z "},"ắ":{"ha":844,"x_min":33,"x_max":833,"o":"m 751 0 l 528 -15 l 473 38 l 488 153 q 366 30 433 74 q 231 -15 298 -15 q 78 51 123 -15 q 52 253 33 116 l 70 380 q 202 651 95 551 q 467 751 309 751 q 611 736 531 751 q 761 698 690 722 l 675 85 l 765 71 l 751 0 m 258 313 q 248 136 241 199 q 304 72 255 72 q 392 126 338 72 q 504 267 446 180 l 559 666 q 513 676 541 671 q 453 680 484 680 q 400 675 428 680 q 347 660 373 669 q 300 541 319 609 q 270 401 280 473 l 258 313 m 761 1080 q 735 1000 755 1040 q 683 929 715 960 q 606 878 650 897 q 509 858 562 858 q 416 878 455 858 q 354 929 378 897 q 322 1000 331 960 q 319 1080 313 1040 l 392 1086 q 395 1056 390 1074 q 415 1021 400 1038 q 457 992 431 1004 q 526 980 484 980 q 597 992 567 980 q 647 1021 627 1004 q 677 1056 667 1038 q 689 1086 687 1074 l 761 1080 m 491 1107 l 650 1353 l 833 1346 l 827 1301 l 578 1078 l 488 1085 l 491 1107 z "},"ằ":{"ha":844,"x_min":33,"x_max":765,"o":"m 751 0 l 528 -15 l 473 38 l 488 153 q 366 30 433 74 q 231 -15 298 -15 q 78 51 123 -15 q 52 253 33 116 l 70 380 q 202 651 95 551 q 467 751 309 751 q 611 736 531 751 q 761 698 690 722 l 675 85 l 765 71 l 751 0 m 258 313 q 248 136 241 199 q 304 72 255 72 q 392 126 338 72 q 504 267 446 180 l 559 666 q 513 676 541 671 q 453 680 484 680 q 400 675 428 680 q 347 660 373 669 q 300 541 319 609 q 270 401 280 473 l 258 313 m 761 1080 q 735 1000 755 1040 q 683 929 715 960 q 606 878 650 897 q 509 858 562 858 q 416 878 455 858 q 354 929 378 897 q 322 1000 331 960 q 319 1080 313 1040 l 392 1086 q 395 1056 390 1074 q 415 1021 400 1038 q 457 992 431 1004 q 526 980 484 980 q 597 992 567 980 q 647 1021 627 1004 q 677 1056 667 1038 q 689 1086 687 1074 l 761 1080 m 614 1085 l 513 1078 l 328 1301 l 334 1346 l 528 1353 l 618 1107 l 614 1085 z "},"ẳ":{"ha":844,"x_min":33,"x_max":765,"o":"m 751 0 l 528 -15 l 473 38 l 488 153 q 366 30 433 74 q 231 -15 298 -15 q 78 51 123 -15 q 52 253 33 116 l 70 380 q 202 651 95 551 q 467 751 309 751 q 611 736 531 751 q 761 698 690 722 l 675 85 l 765 71 l 751 0 m 258 313 q 248 136 241 199 q 304 72 255 72 q 392 126 338 72 q 504 267 446 180 l 559 666 q 513 676 541 671 q 453 680 484 680 q 400 675 428 680 q 347 660 373 669 q 300 541 319 609 q 270 401 280 473 l 258 313 m 761 1080 q 735 1000 755 1040 q 683 929 715 960 q 606 878 650 897 q 509 858 562 858 q 416 878 455 858 q 354 929 378 897 q 322 1000 331 960 q 319 1080 313 1040 l 392 1086 q 395 1056 390 1074 q 415 1021 400 1038 q 457 992 431 1004 q 526 980 484 980 q 597 992 567 980 q 647 1021 627 1004 q 677 1056 667 1038 q 689 1086 687 1074 l 761 1080 m 635 1151 q 607 1136 618 1142 q 589 1124 596 1129 q 578 1114 582 1118 q 574 1105 575 1109 q 575 1092 573 1097 q 578 1082 576 1086 l 513 1064 q 504 1084 507 1074 q 498 1105 500 1094 q 498 1128 496 1116 q 502 1146 499 1137 q 512 1165 505 1156 q 529 1185 518 1175 q 557 1206 540 1196 q 598 1237 587 1225 q 610 1262 609 1249 q 605 1286 612 1276 q 580 1296 599 1296 q 564 1294 571 1296 q 549 1290 556 1293 q 537 1286 543 1288 l 513 1222 l 440 1225 l 453 1316 q 498 1334 474 1326 q 551 1347 522 1341 q 614 1353 580 1353 q 704 1329 673 1353 q 728 1257 734 1305 q 699 1196 724 1222 q 635 1151 673 1171 z "},"ạ":{"ha":844,"x_min":33,"x_max":765,"o":"m 751 0 l 528 -15 l 473 38 l 488 153 q 366 30 433 74 q 231 -15 298 -15 q 78 51 123 -15 q 52 253 33 116 l 70 380 q 202 651 95 551 q 467 751 309 751 q 611 736 531 751 q 761 698 690 722 l 675 85 l 765 71 l 751 0 m 258 313 q 248 136 241 199 q 304 72 255 72 q 392 126 338 72 q 504 267 446 180 l 559 666 q 513 676 541 671 q 453 680 484 680 q 400 675 428 680 q 347 660 373 669 q 300 541 319 609 q 270 401 280 473 l 258 313 m 250 -230 q 256 -186 250 -207 q 273 -151 262 -166 q 299 -126 284 -135 q 330 -117 313 -117 q 373 -123 353 -117 q 409 -140 394 -130 q 433 -166 425 -151 q 442 -197 442 -180 q 436 -240 442 -220 q 418 -276 429 -261 q 393 -301 408 -292 q 362 -310 378 -310 q 318 -303 338 -310 q 282 -286 298 -297 q 258 -261 267 -275 q 250 -230 250 -246 z "},"ç":{"ha":654,"x_min":26,"x_max":668,"o":"m 630 541 l 545 534 l 545 667 q 497 674 522 671 q 450 676 473 676 q 400 671 427 676 q 342 652 372 665 q 291 528 312 596 q 258 381 269 459 l 247 300 q 254 122 230 185 q 378 60 278 60 q 475 77 422 60 q 573 121 527 94 l 573 49 q 452 1 519 18 q 376 -12 414 -7 l 347 -71 q 406 -86 380 -77 q 448 -110 431 -96 q 472 -144 465 -124 q 475 -193 479 -165 q 457 -241 471 -219 q 419 -278 443 -262 q 364 -301 396 -293 q 294 -310 332 -310 q 240 -305 265 -310 q 195 -294 215 -300 q 159 -278 175 -287 l 168 -215 q 204 -228 186 -222 q 244 -238 222 -234 q 286 -242 266 -242 q 312 -241 300 -242 q 332 -237 324 -239 q 337 -229 335 -233 q 341 -218 339 -224 q 345 -201 343 -211 q 344 -173 347 -185 q 332 -153 341 -161 q 305 -137 322 -144 q 262 -126 288 -131 l 245 -83 l 279 -14 q 94 61 153 -5 q 49 291 26 137 l 58 354 q 197 647 85 544 q 465 751 309 751 q 576 741 522 751 q 668 715 631 732 l 630 541 z "},"ć":{"ha":654,"x_min":26,"x_max":779,"o":"m 630 541 l 545 534 l 545 667 q 497 674 522 671 q 450 676 473 676 q 400 671 427 676 q 342 652 372 665 q 291 528 312 596 q 258 381 269 459 l 247 300 q 254 122 230 185 q 378 60 278 60 q 475 77 422 60 q 573 121 527 94 l 573 49 q 452 1 519 18 q 319 -15 386 -15 q 94 61 162 -15 q 49 291 26 137 l 58 354 q 197 647 85 544 q 465 751 309 751 q 576 741 522 751 q 668 715 631 732 l 630 541 m 437 886 l 595 1133 l 779 1126 l 772 1081 l 524 858 l 433 865 l 437 886 z "},"ĉ":{"ha":654,"x_min":26,"x_max":706,"o":"m 630 541 l 545 534 l 545 667 q 497 674 522 671 q 450 676 473 676 q 400 671 427 676 q 342 652 372 665 q 291 528 312 596 q 258 381 269 459 l 247 300 q 254 122 230 185 q 378 60 278 60 q 475 77 422 60 q 573 121 527 94 l 573 49 q 452 1 519 18 q 319 -15 386 -15 q 94 61 162 -15 q 49 291 26 137 l 58 354 q 197 647 85 544 q 465 751 309 751 q 576 741 522 751 q 668 715 631 732 l 630 541 m 703 865 l 597 858 l 481 1025 l 319 858 l 236 865 l 239 886 l 433 1139 l 583 1133 l 706 886 l 703 865 z "},"č":{"ha":654,"x_min":26,"x_max":743,"o":"m 630 541 l 545 534 l 545 667 q 497 674 522 671 q 450 676 473 676 q 400 671 427 676 q 342 652 372 665 q 291 528 312 596 q 258 381 269 459 l 247 300 q 254 122 230 185 q 378 60 278 60 q 475 77 422 60 q 573 121 527 94 l 573 49 q 452 1 519 18 q 319 -15 386 -15 q 94 61 162 -15 q 49 291 26 137 l 58 354 q 197 647 85 544 q 465 751 309 751 q 576 741 522 751 q 668 715 631 732 l 630 541 m 275 1126 l 382 1133 l 496 964 l 659 1133 l 743 1126 l 740 1104 l 546 851 l 396 858 l 273 1104 l 275 1126 z "},"ċ":{"ha":654,"x_min":26,"x_max":668,"o":"m 630 541 l 545 534 l 545 667 q 497 674 522 671 q 450 676 473 676 q 400 671 427 676 q 342 652 372 665 q 291 528 312 596 q 258 381 269 459 l 247 300 q 254 122 230 185 q 378 60 278 60 q 475 77 422 60 q 573 121 527 94 l 573 49 q 452 1 519 18 q 319 -15 386 -15 q 94 61 162 -15 q 49 291 26 137 l 58 354 q 197 647 85 544 q 465 751 309 751 q 576 741 522 751 q 668 715 631 732 l 630 541 m 399 946 q 405 989 399 969 q 422 1025 412 1010 q 448 1050 433 1041 q 479 1059 463 1059 q 523 1053 502 1059 q 558 1036 543 1046 q 583 1010 574 1025 q 591 979 591 996 q 585 936 591 956 q 568 900 578 915 q 542 875 557 884 q 511 866 528 866 q 467 872 488 866 q 432 890 447 879 q 408 915 416 901 q 399 946 399 930 z "},"̱":{"ha":0,"x_min":-639,"x_max":-103,"o":"m -612 -127 l -103 -127 l -130 -229 l -639 -229 l -612 -127 z "},"ď":{"ha":836,"x_min":33,"x_max":1040,"o":"m 524 1044 l 747 1059 l 802 1006 l 673 85 l 763 71 l 749 0 l 526 -15 l 471 38 l 487 154 q 364 28 431 71 q 229 -15 297 -15 q 79 53 125 -15 q 50 253 33 120 l 68 380 q 202 652 94 554 q 467 751 310 751 q 515 749 490 751 q 569 743 541 747 l 599 960 l 510 973 l 524 1044 m 256 313 q 249 126 238 180 q 301 72 259 72 q 391 120 339 72 q 503 267 442 168 l 559 669 q 514 677 542 673 q 454 680 486 680 q 396 674 426 680 q 344 658 367 668 q 298 542 318 608 q 268 401 279 476 l 256 313 m 886 1044 l 1040 1044 l 1036 1016 l 961 785 l 850 785 l 886 1044 z "},"ḍ":{"ha":836,"x_min":33,"x_max":802,"o":"m 524 1044 l 747 1059 l 802 1006 l 673 85 l 763 71 l 749 0 l 526 -15 l 471 38 l 487 154 q 364 28 431 71 q 229 -15 297 -15 q 79 53 125 -15 q 50 253 33 120 l 68 380 q 202 652 94 554 q 467 751 310 751 q 515 749 490 751 q 569 743 541 747 l 599 960 l 510 973 l 524 1044 m 256 313 q 249 126 238 180 q 301 72 259 72 q 391 120 339 72 q 503 267 442 168 l 559 669 q 514 677 542 673 q 454 680 486 680 q 396 674 426 680 q 344 658 367 668 q 298 542 318 608 q 268 401 279 476 l 256 313 m 241 -230 q 247 -186 241 -207 q 264 -151 254 -166 q 290 -126 275 -135 q 321 -117 304 -117 q 365 -123 344 -117 q 400 -140 385 -130 q 425 -166 416 -151 q 433 -197 433 -180 q 427 -240 433 -220 q 410 -276 420 -261 q 384 -301 399 -292 q 353 -310 370 -310 q 309 -303 330 -310 q 274 -286 289 -297 q 250 -261 258 -275 q 241 -230 241 -246 z "},"ḏ":{"ha":836,"x_min":33,"x_max":802,"o":"m 524 1044 l 747 1059 l 802 1006 l 673 85 l 763 71 l 749 0 l 526 -15 l 471 38 l 487 154 q 364 28 431 71 q 229 -15 297 -15 q 79 53 125 -15 q 50 253 33 120 l 68 380 q 202 652 94 554 q 467 751 310 751 q 515 749 490 751 q 569 743 541 747 l 599 960 l 510 973 l 524 1044 m 256 313 q 249 126 238 180 q 301 72 259 72 q 391 120 339 72 q 503 267 442 168 l 559 669 q 514 677 542 673 q 454 680 486 680 q 396 674 426 680 q 344 658 367 668 q 298 542 318 608 q 268 401 279 476 l 256 313 m 114 -127 l 623 -127 l 595 -229 l 87 -229 l 114 -127 z "},"̨":{"ha":0,"x_min":-423,"x_max":-138,"o":"m -139 0 q -240 -94 -201 -45 q -286 -186 -279 -142 q -282 -224 -290 -214 q -253 -235 -273 -235 q -218 -227 -238 -235 q -179 -208 -199 -219 q -138 -181 -160 -197 l -149 -251 q -196 -280 -171 -268 q -252 -301 -220 -292 q -319 -310 -283 -310 q -367 -305 -346 -310 q -400 -290 -387 -300 q -418 -260 -413 -279 q -420 -214 -423 -242 q -390 -134 -414 -174 q -328 -56 -366 -94 q -242 18 -290 -18 q -139 86 -193 54 l -139 0 z "},"ẽ":{"ha":694,"x_min":29,"x_max":783,"o":"m 683 559 q 579 388 667 450 q 352 327 492 327 q 298 329 325 327 q 253 335 272 332 l 248 300 q 262 121 231 183 q 383 60 293 60 q 478 75 425 60 q 589 121 532 91 l 589 49 q 465 2 534 18 q 324 -15 395 -15 q 95 63 161 -15 q 50 291 29 140 l 59 354 q 191 646 86 542 q 450 751 296 751 q 636 703 576 751 q 683 559 696 656 m 338 656 q 295 542 315 606 q 263 404 276 477 q 315 399 288 401 q 362 397 341 397 q 399 400 382 397 q 430 406 417 402 q 463 469 449 434 q 483 544 477 503 q 477 645 492 614 q 417 676 461 676 q 377 671 397 676 q 338 656 357 667 m 189 886 q 249 1016 201 972 q 369 1059 296 1059 q 447 1045 408 1059 q 520 1014 486 1031 q 584 983 555 997 q 635 969 614 969 q 678 989 661 969 q 703 1050 696 1009 l 783 1057 l 776 1008 q 720 882 764 928 q 604 836 675 836 q 528 850 568 836 q 450 881 488 864 q 380 912 412 898 q 327 926 347 926 q 282 913 300 926 q 258 859 264 900 l 184 852 l 189 886 z "},"ë":{"ha":694,"x_min":29,"x_max":724,"o":"m 683 559 q 579 388 667 450 q 352 327 492 327 q 298 329 325 327 q 253 335 272 332 l 248 300 q 262 121 231 183 q 383 60 293 60 q 478 75 425 60 q 589 121 532 91 l 589 49 q 465 2 534 18 q 324 -15 395 -15 q 95 63 161 -15 q 50 291 29 140 l 59 354 q 191 646 86 542 q 450 751 296 751 q 636 703 576 751 q 683 559 696 656 m 338 656 q 295 542 315 606 q 263 404 276 477 q 315 399 288 401 q 362 397 341 397 q 399 400 382 397 q 430 406 417 402 q 463 469 449 434 q 483 544 477 503 q 477 645 492 614 q 417 676 461 676 q 377 671 397 676 q 338 656 357 667 m 226 942 q 232 982 226 963 q 247 1014 237 1000 q 270 1036 257 1028 q 298 1044 283 1044 q 337 1039 319 1044 q 370 1023 356 1033 q 391 999 383 1013 q 399 971 399 986 q 393 932 399 951 q 378 900 387 914 q 355 878 368 886 q 328 869 342 869 q 288 875 306 869 q 255 891 269 881 q 234 915 241 901 q 226 942 226 928 m 551 942 q 557 982 551 963 q 572 1014 563 1000 q 595 1036 582 1028 q 623 1044 608 1044 q 662 1039 644 1044 q 695 1023 681 1033 q 716 999 709 1013 q 724 971 724 986 q 719 932 724 951 q 703 900 713 914 q 680 878 693 886 q 652 869 667 869 q 612 875 630 869 q 580 891 593 881 q 559 915 567 901 q 551 942 551 928 z "},"ē":{"ha":694,"x_min":29,"x_max":758,"o":"m 683 559 q 579 388 667 450 q 352 327 492 327 q 298 329 325 327 q 253 335 272 332 l 248 300 q 262 121 231 183 q 383 60 293 60 q 478 75 425 60 q 589 121 532 91 l 589 49 q 465 2 534 18 q 324 -15 395 -15 q 95 63 161 -15 q 50 291 29 140 l 59 354 q 191 646 86 542 q 450 751 296 751 q 636 703 576 751 q 683 559 696 656 m 338 656 q 295 542 315 606 q 263 404 276 477 q 315 399 288 401 q 362 397 341 397 q 399 400 382 397 q 430 406 417 402 q 463 469 449 434 q 483 544 477 503 q 477 645 492 614 q 417 676 461 676 q 377 671 397 676 q 338 656 357 667 m 250 1006 l 758 1006 l 731 904 l 222 904 l 250 1006 z "},"ê":{"ha":694,"x_min":29,"x_max":702,"o":"m 683 559 q 579 388 667 450 q 352 327 492 327 q 298 329 325 327 q 253 335 272 332 l 248 300 q 262 121 231 183 q 383 60 293 60 q 478 75 425 60 q 589 121 532 91 l 589 49 q 465 2 534 18 q 324 -15 395 -15 q 95 63 161 -15 q 50 291 29 140 l 59 354 q 191 646 86 542 q 450 751 296 751 q 636 703 576 751 q 683 559 696 656 m 338 656 q 295 542 315 606 q 263 404 276 477 q 315 399 288 401 q 362 397 341 397 q 399 400 382 397 q 430 406 417 402 q 463 469 449 434 q 483 544 477 503 q 477 645 492 614 q 417 676 461 676 q 377 671 397 676 q 338 656 357 667 m 699 865 l 593 858 l 477 1025 l 315 858 l 232 865 l 235 886 l 429 1139 l 578 1133 l 702 886 l 699 865 z "},"ě":{"ha":694,"x_min":29,"x_max":739,"o":"m 683 559 q 579 388 667 450 q 352 327 492 327 q 298 329 325 327 q 253 335 272 332 l 248 300 q 262 121 231 183 q 383 60 293 60 q 478 75 425 60 q 589 121 532 91 l 589 49 q 465 2 534 18 q 324 -15 395 -15 q 95 63 161 -15 q 50 291 29 140 l 59 354 q 191 646 86 542 q 450 751 296 751 q 636 703 576 751 q 683 559 696 656 m 338 656 q 295 542 315 606 q 263 404 276 477 q 315 399 288 401 q 362 397 341 397 q 399 400 382 397 q 430 406 417 402 q 463 469 449 434 q 483 544 477 503 q 477 645 492 614 q 417 676 461 676 q 377 671 397 676 q 338 656 357 667 m 271 1126 l 378 1133 l 492 964 l 655 1133 l 739 1126 l 736 1104 l 542 851 l 392 858 l 269 1104 l 271 1126 z "},"ĕ":{"ha":694,"x_min":29,"x_max":717,"o":"m 683 559 q 579 388 667 450 q 352 327 492 327 q 298 329 325 327 q 253 335 272 332 l 248 300 q 262 121 231 183 q 383 60 293 60 q 478 75 425 60 q 589 121 532 91 l 589 49 q 465 2 534 18 q 324 -15 395 -15 q 95 63 161 -15 q 50 291 29 140 l 59 354 q 191 646 86 542 q 450 751 296 751 q 636 703 576 751 q 683 559 696 656 m 338 656 q 295 542 315 606 q 263 404 276 477 q 315 399 288 401 q 362 397 341 397 q 399 400 382 397 q 430 406 417 402 q 463 469 449 434 q 483 544 477 503 q 477 645 492 614 q 417 676 461 676 q 377 671 397 676 q 338 656 357 667 m 717 1080 q 691 1000 711 1040 q 639 929 671 960 q 562 878 606 897 q 465 858 518 858 q 372 878 411 858 q 310 929 334 897 q 278 1000 287 960 q 275 1080 269 1040 l 348 1086 q 351 1056 346 1074 q 371 1021 356 1038 q 413 992 387 1004 q 481 980 440 980 q 553 992 523 980 q 603 1021 583 1004 q 633 1056 623 1038 q 645 1086 643 1074 l 717 1080 z "},"ė":{"ha":694,"x_min":29,"x_max":696,"o":"m 683 559 q 579 388 667 450 q 352 327 492 327 q 298 329 325 327 q 253 335 272 332 l 248 300 q 262 121 231 183 q 383 60 293 60 q 478 75 425 60 q 589 121 532 91 l 589 49 q 465 2 534 18 q 324 -15 395 -15 q 95 63 161 -15 q 50 291 29 140 l 59 354 q 191 646 86 542 q 450 751 296 751 q 636 703 576 751 q 683 559 696 656 m 338 656 q 295 542 315 606 q 263 404 276 477 q 315 399 288 401 q 362 397 341 397 q 399 400 382 397 q 430 406 417 402 q 463 469 449 434 q 483 544 477 503 q 477 645 492 614 q 417 676 461 676 q 377 671 397 676 q 338 656 357 667 m 395 946 q 401 989 395 969 q 418 1025 408 1010 q 444 1050 429 1041 q 475 1059 458 1059 q 518 1053 498 1059 q 554 1036 539 1046 q 578 1010 570 1025 q 587 979 587 996 q 581 936 587 956 q 564 900 574 915 q 538 875 553 884 q 507 866 524 866 q 463 872 484 866 q 428 890 443 879 q 404 915 412 901 q 395 946 395 930 z "},"ẻ":{"ha":694,"x_min":29,"x_max":696,"o":"m 683 559 q 579 388 667 450 q 352 327 492 327 q 298 329 325 327 q 253 335 272 332 l 248 300 q 262 121 231 183 q 383 60 293 60 q 478 75 425 60 q 589 121 532 91 l 589 49 q 465 2 534 18 q 324 -15 395 -15 q 95 63 161 -15 q 50 291 29 140 l 59 354 q 191 646 86 542 q 450 751 296 751 q 636 703 576 751 q 683 559 696 656 m 338 656 q 295 542 315 606 q 263 404 276 477 q 315 399 288 401 q 362 397 341 397 q 399 400 382 397 q 430 406 417 402 q 463 469 449 434 q 483 544 477 503 q 477 645 492 614 q 417 676 461 676 q 377 671 397 676 q 338 656 357 667 m 553 930 q 525 915 536 922 q 507 903 514 909 q 496 893 500 898 q 492 884 493 889 q 493 871 491 877 q 496 862 494 865 l 431 844 q 422 863 425 853 q 416 885 418 873 q 416 907 414 896 q 420 926 417 916 q 430 945 423 935 q 447 965 436 954 q 475 986 458 975 q 516 1017 505 1005 q 528 1042 527 1028 q 523 1065 530 1055 q 498 1076 517 1076 q 481 1074 489 1076 q 467 1070 474 1072 q 455 1065 460 1067 l 431 1002 l 358 1005 l 371 1095 q 416 1113 392 1105 q 469 1127 439 1121 q 532 1133 498 1133 q 622 1108 591 1133 q 646 1037 652 1084 q 616 976 642 1002 q 553 930 591 950 z "},"ễ":{"ha":694,"x_min":29,"x_max":843,"o":"m 683 559 q 579 388 667 450 q 352 327 492 327 q 298 329 325 327 q 253 335 272 332 l 248 300 q 262 121 231 183 q 383 60 293 60 q 478 75 425 60 q 589 121 532 91 l 589 49 q 465 2 534 18 q 324 -15 395 -15 q 95 63 161 -15 q 50 291 29 140 l 59 354 q 191 646 86 542 q 450 751 296 751 q 636 703 576 751 q 683 559 696 656 m 338 656 q 295 542 315 606 q 263 404 276 477 q 315 399 288 401 q 362 397 341 397 q 399 400 382 397 q 430 406 417 402 q 463 469 449 434 q 483 544 477 503 q 477 645 492 614 q 417 676 461 676 q 377 671 397 676 q 338 656 357 667 m 249 1231 q 309 1360 261 1317 q 429 1403 357 1403 q 507 1389 469 1403 q 581 1358 546 1375 q 645 1328 615 1341 q 695 1314 674 1314 q 739 1334 721 1314 q 763 1395 756 1354 l 843 1402 l 836 1353 q 780 1226 825 1272 q 664 1181 736 1181 q 589 1195 629 1181 q 511 1225 549 1208 q 440 1256 473 1242 q 387 1270 408 1270 q 342 1257 360 1270 q 319 1204 325 1244 l 244 1197 l 249 1231 m 725 865 l 618 858 l 503 1025 l 341 858 l 258 865 l 260 886 l 454 1139 l 604 1133 l 728 886 l 725 865 z "},"ế":{"ha":694,"x_min":29,"x_max":960,"o":"m 683 559 q 579 388 667 450 q 352 327 492 327 q 298 329 325 327 q 253 335 272 332 l 248 300 q 262 121 231 183 q 383 60 293 60 q 478 75 425 60 q 589 121 532 91 l 589 49 q 465 2 534 18 q 324 -15 395 -15 q 95 63 161 -15 q 50 291 29 140 l 59 354 q 191 646 86 542 q 450 751 296 751 q 636 703 576 751 q 683 559 696 656 m 338 656 q 295 542 315 606 q 263 404 276 477 q 315 399 288 401 q 362 397 341 397 q 399 400 382 397 q 430 406 417 402 q 463 469 449 434 q 483 544 477 503 q 477 645 492 614 q 417 676 461 676 q 377 671 397 676 q 338 656 357 667 m 725 865 l 618 858 l 503 1025 l 341 858 l 258 865 l 260 886 l 454 1139 l 604 1133 l 728 886 l 725 865 m 692 1066 l 810 1227 l 960 1220 l 953 1175 l 766 1038 l 689 1044 l 692 1066 z "},"ề":{"ha":694,"x_min":29,"x_max":728,"o":"m 683 559 q 579 388 667 450 q 352 327 492 327 q 298 329 325 327 q 253 335 272 332 l 248 300 q 262 121 231 183 q 383 60 293 60 q 478 75 425 60 q 589 121 532 91 l 589 49 q 465 2 534 18 q 324 -15 395 -15 q 95 63 161 -15 q 50 291 29 140 l 59 354 q 191 646 86 542 q 450 751 296 751 q 636 703 576 751 q 683 559 696 656 m 338 656 q 295 542 315 606 q 263 404 276 477 q 315 399 288 401 q 362 397 341 397 q 399 400 382 397 q 430 406 417 402 q 463 469 449 434 q 483 544 477 503 q 477 645 492 614 q 417 676 461 676 q 377 671 397 676 q 338 656 357 667 m 725 865 l 618 858 l 503 1025 l 341 858 l 258 865 l 260 886 l 454 1139 l 604 1133 l 728 886 l 725 865 m 341 1044 l 254 1038 l 105 1175 l 112 1220 l 272 1227 l 345 1066 l 341 1044 z "},"ể":{"ha":694,"x_min":29,"x_max":920,"o":"m 683 559 q 579 388 667 450 q 352 327 492 327 q 298 329 325 327 q 253 335 272 332 l 248 300 q 262 121 231 183 q 383 60 293 60 q 478 75 425 60 q 589 121 532 91 l 589 49 q 465 2 534 18 q 324 -15 395 -15 q 95 63 161 -15 q 50 291 29 140 l 59 354 q 191 646 86 542 q 450 751 296 751 q 636 703 576 751 q 683 559 696 656 m 338 656 q 295 542 315 606 q 263 404 276 477 q 315 399 288 401 q 362 397 341 397 q 399 400 382 397 q 430 406 417 402 q 463 469 449 434 q 483 544 477 503 q 477 645 492 614 q 417 676 461 676 q 377 671 397 676 q 338 656 357 667 m 725 865 l 618 858 l 503 1025 l 341 858 l 258 865 l 260 886 l 454 1139 l 604 1133 l 728 886 l 725 865 m 821 1113 q 792 1098 804 1104 q 774 1086 781 1091 q 764 1076 767 1080 q 760 1067 760 1072 q 760 1054 758 1059 q 763 1044 762 1048 l 699 1026 q 689 1046 692 1036 q 684 1067 686 1056 q 684 1090 682 1078 q 687 1108 684 1099 q 697 1127 690 1118 q 714 1147 703 1137 q 742 1168 725 1158 q 783 1199 772 1187 q 795 1224 794 1211 q 790 1248 797 1238 q 765 1258 784 1258 q 749 1256 756 1258 q 734 1252 741 1255 q 722 1248 728 1250 l 698 1184 l 625 1187 l 638 1278 q 683 1296 659 1288 q 736 1309 707 1303 q 799 1315 765 1315 q 889 1291 858 1315 q 913 1219 920 1267 q 884 1158 909 1184 q 821 1113 859 1133 z "},"ẹ":{"ha":694,"x_min":29,"x_max":696,"o":"m 683 559 q 579 388 667 450 q 352 327 492 327 q 298 329 325 327 q 253 335 272 332 l 248 300 q 262 121 231 183 q 383 60 293 60 q 478 75 425 60 q 589 121 532 91 l 589 49 q 465 2 534 18 q 324 -15 395 -15 q 95 63 161 -15 q 50 291 29 140 l 59 354 q 191 646 86 542 q 450 751 296 751 q 636 703 576 751 q 683 559 696 656 m 338 656 q 295 542 315 606 q 263 404 276 477 q 315 399 288 401 q 362 397 341 397 q 399 400 382 397 q 430 406 417 402 q 463 469 449 434 q 483 544 477 503 q 477 645 492 614 q 417 676 461 676 q 377 671 397 676 q 338 656 357 667 m 195 -230 q 201 -186 195 -207 q 218 -151 208 -166 q 244 -126 229 -135 q 275 -117 258 -117 q 318 -123 298 -117 q 354 -140 339 -130 q 378 -166 370 -151 q 387 -197 387 -180 q 381 -240 387 -220 q 363 -276 374 -261 q 338 -301 353 -292 q 307 -310 323 -310 q 263 -303 283 -310 q 228 -286 243 -297 q 203 -261 212 -275 q 195 -230 195 -246 z "},"̦":{"ha":0,"x_min":-348,"x_max":-172,"o":"m -312 -87 l -172 -87 l -178 -129 l -251 -347 l -348 -347 l -312 -87 z "},"ǵ":{"ha":791,"x_min":-14,"x_max":787,"o":"m 15 -127 q 211 -193 125 -172 q 357 -215 298 -215 q 426 -110 397 -180 q 471 60 456 -40 l 483 151 q 361 28 431 71 q 216 -15 291 -15 q 70 53 110 -15 q 47 253 29 121 l 65 380 q 197 650 90 549 q 463 751 304 751 q 604 737 528 751 q 756 698 680 723 l 671 87 q 538 -201 644 -92 q 282 -310 432 -310 q 136 -294 214 -310 q -14 -249 58 -278 l 15 -127 m 253 313 q 246 133 237 194 q 298 72 255 72 q 395 124 342 72 q 499 267 449 177 l 555 666 q 506 676 534 672 q 449 680 477 680 q 391 673 422 680 q 337 656 361 667 q 297 549 315 610 q 265 401 278 487 l 253 313 m 444 886 l 603 1133 l 787 1126 l 780 1081 l 532 858 l 441 865 l 444 886 z "},"ḡ":{"ha":791,"x_min":-14,"x_max":770,"o":"m 15 -127 q 211 -193 125 -172 q 357 -215 298 -215 q 426 -110 397 -180 q 471 60 456 -40 l 483 151 q 361 28 431 71 q 216 -15 291 -15 q 70 53 110 -15 q 47 253 29 121 l 65 380 q 197 650 90 549 q 463 751 304 751 q 604 737 528 751 q 756 698 680 723 l 671 87 q 538 -201 644 -92 q 282 -310 432 -310 q 136 -294 214 -310 q -14 -249 58 -278 l 15 -127 m 253 313 q 246 133 237 194 q 298 72 255 72 q 395 124 342 72 q 499 267 449 177 l 555 666 q 506 676 534 672 q 449 680 477 680 q 391 673 422 680 q 337 656 361 667 q 297 549 315 610 q 265 401 278 487 l 253 313 m 261 1006 l 770 1006 l 743 904 l 234 904 l 261 1006 z "},"ĝ":{"ha":791,"x_min":-14,"x_max":756,"o":"m 15 -127 q 211 -193 125 -172 q 357 -215 298 -215 q 426 -110 397 -180 q 471 60 456 -40 l 483 151 q 361 28 431 71 q 216 -15 291 -15 q 70 53 110 -15 q 47 253 29 121 l 65 380 q 197 650 90 549 q 463 751 304 751 q 604 737 528 751 q 756 698 680 723 l 671 87 q 538 -201 644 -92 q 282 -310 432 -310 q 136 -294 214 -310 q -14 -249 58 -278 l 15 -127 m 253 313 q 246 133 237 194 q 298 72 255 72 q 395 124 342 72 q 499 267 449 177 l 555 666 q 506 676 534 672 q 449 680 477 680 q 391 673 422 680 q 337 656 361 667 q 297 549 315 610 q 265 401 278 487 l 253 313 m 711 865 l 604 858 l 489 1025 l 327 858 l 243 865 l 246 886 l 440 1139 l 590 1133 l 713 886 l 711 865 z "},"ǧ":{"ha":791,"x_min":-14,"x_max":756,"o":"m 15 -127 q 211 -193 125 -172 q 357 -215 298 -215 q 426 -110 397 -180 q 471 60 456 -40 l 483 151 q 361 28 431 71 q 216 -15 291 -15 q 70 53 110 -15 q 47 253 29 121 l 65 380 q 197 650 90 549 q 463 751 304 751 q 604 737 528 751 q 756 698 680 723 l 671 87 q 538 -201 644 -92 q 282 -310 432 -310 q 136 -294 214 -310 q -14 -249 58 -278 l 15 -127 m 253 313 q 246 133 237 194 q 298 72 255 72 q 395 124 342 72 q 499 267 449 177 l 555 666 q 506 676 534 672 q 449 680 477 680 q 391 673 422 680 q 337 656 361 667 q 297 549 315 610 q 265 401 278 487 l 253 313 m 283 1126 l 389 1133 l 504 964 l 667 1133 l 750 1126 l 747 1104 l 553 851 l 404 858 l 280 1104 l 283 1126 z "},"ğ":{"ha":791,"x_min":-14,"x_max":756,"o":"m 15 -127 q 211 -193 125 -172 q 357 -215 298 -215 q 426 -110 397 -180 q 471 60 456 -40 l 483 151 q 361 28 431 71 q 216 -15 291 -15 q 70 53 110 -15 q 47 253 29 121 l 65 380 q 197 650 90 549 q 463 751 304 751 q 604 737 528 751 q 756 698 680 723 l 671 87 q 538 -201 644 -92 q 282 -310 432 -310 q 136 -294 214 -310 q -14 -249 58 -278 l 15 -127 m 253 313 q 246 133 237 194 q 298 72 255 72 q 395 124 342 72 q 499 267 449 177 l 555 666 q 506 676 534 672 q 449 680 477 680 q 391 673 422 680 q 337 656 361 667 q 297 549 315 610 q 265 401 278 487 l 253 313 m 728 1080 q 703 1000 723 1040 q 650 929 683 960 q 574 878 618 897 q 476 858 530 858 q 384 878 422 858 q 322 929 345 897 q 290 1000 298 960 q 286 1080 281 1040 l 359 1086 q 362 1056 357 1074 q 383 1021 368 1038 q 425 992 398 1004 q 493 980 452 980 q 564 992 534 980 q 614 1021 594 1004 q 644 1056 634 1038 q 656 1086 654 1074 l 728 1080 z "},"ġ":{"ha":791,"x_min":-14,"x_max":756,"o":"m 15 -127 q 211 -193 125 -172 q 357 -215 298 -215 q 426 -110 397 -180 q 471 60 456 -40 l 483 151 q 361 28 431 71 q 216 -15 291 -15 q 70 53 110 -15 q 47 253 29 121 l 65 380 q 197 650 90 549 q 463 751 304 751 q 604 737 528 751 q 756 698 680 723 l 671 87 q 538 -201 644 -92 q 282 -310 432 -310 q 136 -294 214 -310 q -14 -249 58 -278 l 15 -127 m 253 313 q 246 133 237 194 q 298 72 255 72 q 395 124 342 72 q 499 267 449 177 l 555 666 q 506 676 534 672 q 449 680 477 680 q 391 673 422 680 q 337 656 361 667 q 297 549 315 610 q 265 401 278 487 l 253 313 m 406 946 q 413 989 406 969 q 430 1025 419 1010 q 455 1050 441 1041 q 486 1059 470 1059 q 530 1053 509 1059 q 566 1036 551 1046 q 590 1010 581 1025 q 599 979 599 996 q 592 936 599 956 q 575 900 586 915 q 550 875 564 884 q 519 866 535 866 q 475 872 495 866 q 439 890 454 879 q 415 915 424 901 q 406 946 406 930 z "},"ģ":{"ha":791,"x_min":-14,"x_max":756,"o":"m 15 -127 q 211 -193 125 -172 q 357 -215 298 -215 q 426 -110 397 -180 q 471 60 456 -40 l 483 151 q 361 28 431 71 q 216 -15 291 -15 q 70 53 110 -15 q 47 253 29 121 l 65 380 q 197 650 90 549 q 463 751 304 751 q 604 737 528 751 q 756 698 680 723 l 671 87 q 538 -201 644 -92 q 282 -310 432 -310 q 136 -294 214 -310 q -14 -249 58 -278 l 15 -127 m 253 313 q 246 133 237 194 q 298 72 255 72 q 395 124 342 72 q 499 267 449 177 l 555 666 q 506 676 534 672 q 449 680 477 680 q 391 673 422 680 q 337 656 361 667 q 297 549 315 610 q 265 401 278 487 l 253 313 m 554 873 l 414 873 l 420 916 l 493 1133 l 590 1133 l 554 873 z "},"̮":{"ha":0,"x_min":-553,"x_max":-106,"o":"m -106 -119 q -131 -199 -111 -159 q -184 -270 -151 -239 q -260 -321 -216 -302 q -358 -341 -304 -341 q -450 -321 -412 -341 q -512 -270 -489 -302 q -545 -199 -536 -239 q -548 -119 -553 -159 l -475 -113 q -472 -143 -477 -125 q -451 -178 -467 -161 q -409 -207 -436 -195 q -341 -219 -382 -219 q -270 -207 -300 -219 q -220 -178 -240 -195 q -190 -143 -200 -161 q -178 -113 -180 -125 l -106 -119 z "},"ḥ":{"ha":913,"x_min":77,"x_max":826,"o":"m 568 664 q 464 612 524 664 q 340 469 404 560 l 273 -15 l 77 0 l 211 960 l 122 973 l 136 1044 l 359 1059 l 414 1006 l 355 583 q 494 708 418 665 q 646 751 569 751 q 779 701 744 751 q 800 545 814 650 l 736 85 l 826 71 l 812 0 l 589 -15 l 533 38 l 596 496 q 604 630 610 597 q 568 664 597 664 m 302 -230 q 309 -186 302 -207 q 326 -151 315 -166 q 352 -126 337 -135 q 382 -117 366 -117 q 426 -123 406 -117 q 462 -140 447 -130 q 486 -166 477 -151 q 495 -197 495 -180 q 489 -240 495 -220 q 471 -276 482 -261 q 446 -301 460 -292 q 415 -310 431 -310 q 371 -303 391 -310 q 335 -286 351 -297 q 311 -261 320 -275 q 302 -230 302 -246 z "},"ḫ":{"ha":913,"x_min":77,"x_max":826,"o":"m 568 664 q 464 612 524 664 q 340 469 404 560 l 273 -15 l 77 0 l 211 960 l 122 973 l 136 1044 l 359 1059 l 414 1006 l 355 583 q 494 708 418 665 q 646 751 569 751 q 779 701 744 751 q 800 545 814 650 l 736 85 l 826 71 l 812 0 l 589 -15 l 533 38 l 596 496 q 604 630 610 597 q 568 664 597 664 m 618 -119 q 592 -199 612 -159 q 540 -270 572 -239 q 463 -321 507 -302 q 366 -341 419 -341 q 273 -321 312 -341 q 211 -270 235 -302 q 179 -199 188 -239 q 176 -119 170 -159 l 249 -113 q 252 -143 247 -125 q 272 -178 257 -161 q 314 -207 288 -195 q 382 -219 341 -219 q 454 -207 424 -219 q 504 -178 484 -195 q 534 -143 524 -161 q 546 -113 544 -125 l 618 -119 z "},"ĥ":{"ha":913,"x_min":71,"x_max":826,"o":"m 568 664 q 464 612 524 664 q 340 469 404 560 l 273 -15 l 77 0 l 211 960 l 122 973 l 136 1044 l 359 1059 l 414 1006 l 355 583 q 494 708 418 665 q 646 751 569 751 q 779 701 744 751 q 800 545 814 650 l 736 85 l 826 71 l 812 0 l 589 -15 l 533 38 l 596 496 q 604 630 610 597 q 568 664 597 664 m 572 1139 l 466 1133 l 332 1258 l 155 1133 l 71 1139 l 75 1161 l 280 1359 l 431 1352 l 575 1161 l 572 1139 z "},"ĩ":{"ha":477,"x_min":-20,"x_max":579,"o":"m 106 736 l 330 751 l 385 698 l 300 85 l 389 71 l 375 0 l 151 -15 l 96 38 l 181 651 l 92 665 l 106 736 m -15 886 q 45 1016 -3 972 q 165 1059 93 1059 q 243 1045 205 1059 q 317 1014 282 1031 q 381 983 351 997 q 431 969 410 969 q 475 989 457 969 q 499 1050 492 1009 l 579 1057 l 572 1008 q 516 882 561 928 q 400 836 472 836 q 325 850 365 836 q 247 881 285 864 q 176 912 209 898 q 123 926 144 926 q 79 913 96 926 q 55 859 61 900 l -20 852 l -15 886 z "},"ï":{"ha":477,"x_min":22,"x_max":521,"o":"m 106 736 l 330 751 l 385 698 l 300 85 l 389 71 l 375 0 l 151 -15 l 96 38 l 181 651 l 92 665 l 106 736 m 22 942 q 28 982 22 963 q 44 1014 34 1000 q 67 1036 54 1028 q 94 1044 80 1044 q 134 1039 115 1044 q 166 1023 153 1033 q 188 999 180 1013 q 195 971 195 986 q 190 932 195 951 q 174 900 184 914 q 152 878 165 886 q 124 869 138 869 q 84 875 102 869 q 52 891 66 881 q 30 915 38 901 q 22 942 22 928 m 348 942 q 354 982 348 963 q 369 1014 359 1000 q 392 1036 378 1028 q 419 1044 405 1044 q 459 1039 440 1044 q 491 1023 477 1033 q 513 999 505 1013 q 521 971 521 986 q 515 932 521 951 q 499 900 509 914 q 476 878 490 886 q 448 869 463 869 q 408 875 427 869 q 377 891 390 881 q 356 915 363 901 q 348 942 348 928 z "},"î":{"ha":477,"x_min":28,"x_max":498,"o":"m 106 736 l 330 751 l 385 698 l 300 85 l 389 71 l 375 0 l 151 -15 l 96 38 l 181 651 l 92 665 l 106 736 m 496 865 l 389 858 l 274 1025 l 112 858 l 28 865 l 31 886 l 225 1139 l 375 1133 l 498 886 l 496 865 z "},"ǐ":{"ha":477,"x_min":65,"x_max":535,"o":"m 106 736 l 330 751 l 385 698 l 300 85 l 389 71 l 375 0 l 151 -15 l 96 38 l 181 651 l 92 665 l 106 736 m 68 1126 l 174 1133 l 289 964 l 452 1133 l 535 1126 l 532 1104 l 338 851 l 189 858 l 65 1104 l 68 1126 z "},"ĭ":{"ha":477,"x_min":66,"x_max":513,"o":"m 106 736 l 330 751 l 385 698 l 300 85 l 389 71 l 375 0 l 151 -15 l 96 38 l 181 651 l 92 665 l 106 736 m 513 1080 q 488 1000 508 1040 q 435 929 468 960 q 359 878 403 897 q 261 858 315 858 q 169 878 208 858 q 107 929 130 897 q 75 1000 83 960 q 71 1080 66 1040 l 144 1086 q 148 1056 142 1074 q 168 1021 153 1038 q 210 992 183 1004 q 278 980 237 980 q 349 992 319 980 q 399 1021 379 1004 q 429 1056 419 1038 q 441 1086 439 1074 l 513 1080 z "},"ỉ":{"ha":477,"x_min":92,"x_max":448,"o":"m 106 736 l 330 751 l 385 698 l 300 85 l 389 71 l 375 0 l 151 -15 l 96 38 l 181 651 l 92 665 l 106 736 m 349 930 q 321 915 332 922 q 303 903 310 909 q 292 893 296 898 q 288 884 289 889 q 289 871 287 877 q 292 862 290 865 l 227 844 q 218 863 221 853 q 212 885 214 873 q 212 907 210 896 q 216 926 213 916 q 225 945 219 935 q 243 965 232 954 q 271 986 254 975 q 312 1017 300 1005 q 324 1042 323 1028 q 319 1065 326 1055 q 294 1076 313 1076 q 277 1074 285 1076 q 263 1070 270 1072 q 251 1065 256 1067 l 227 1002 l 154 1005 l 167 1095 q 212 1113 188 1105 q 264 1127 235 1121 q 328 1133 294 1133 q 417 1108 387 1133 q 442 1037 448 1084 q 412 976 437 1002 q 349 930 387 950 z "},"ị":{"ha":477,"x_min":90,"x_max":415,"o":"m 106 736 l 330 751 l 385 698 l 300 85 l 389 71 l 375 0 l 151 -15 l 96 38 l 181 651 l 92 665 l 106 736 m 225 948 q 245 1035 225 998 q 292 1072 264 1072 q 378 1052 341 1072 q 415 1005 415 1031 q 395 918 415 954 q 349 882 376 882 q 261 901 297 882 q 225 948 225 920 m 90 -230 q 96 -186 90 -207 q 113 -151 102 -166 q 139 -126 124 -135 q 170 -117 153 -117 q 213 -123 193 -117 q 249 -140 234 -130 q 273 -166 264 -151 q 282 -197 282 -180 q 276 -240 282 -220 q 258 -276 269 -261 q 233 -301 248 -292 q 202 -310 218 -310 q 158 -303 178 -310 q 122 -286 138 -297 q 98 -261 107 -275 q 90 -230 90 -246 z "},"ȷ":{"ha":448,"x_min":-190,"x_max":387,"o":"m 107 736 l 332 751 l 387 698 l 283 -32 q 247 -167 272 -113 q 184 -252 221 -220 q 100 -297 147 -284 q -1 -310 53 -310 q -74 -305 -39 -310 q -136 -294 -108 -300 q -190 -278 -164 -287 l -157 -183 q -97 -203 -127 -195 q -36 -217 -68 -211 q 26 -224 -4 -224 q 49 -185 39 -208 q 68 -132 59 -163 q 85 -58 78 -101 l 182 651 l 94 665 l 107 736 z "},"ī":{"ha":477,"x_min":19,"x_max":555,"o":"m 106 736 l 330 751 l 385 698 l 300 85 l 389 71 l 375 0 l 151 -15 l 96 38 l 181 651 l 92 665 l 106 736 m 46 1006 l 555 1006 l 528 904 l 19 904 l 46 1006 z "},"ĵ":{"ha":448,"x_min":-190,"x_max":507,"o":"m 107 736 l 332 751 l 387 698 l 283 -32 q 247 -167 272 -113 q 184 -252 221 -220 q 100 -297 147 -284 q -1 -310 53 -310 q -74 -305 -39 -310 q -136 -294 -108 -300 q -190 -278 -164 -287 l -157 -183 q -97 -203 -127 -195 q -36 -217 -68 -211 q 26 -224 -4 -224 q 49 -185 39 -208 q 68 -132 59 -163 q 85 -58 78 -101 l 182 651 l 94 665 l 107 736 m 504 865 l 397 858 l 282 1025 l 120 858 l 37 865 l 39 886 l 233 1139 l 383 1133 l 507 886 l 504 865 z "},"ǰ":{"ha":448,"x_min":-190,"x_max":543,"o":"m 107 736 l 332 751 l 387 698 l 283 -32 q 247 -167 272 -113 q 184 -252 221 -220 q 100 -297 147 -284 q -1 -310 53 -310 q -74 -305 -39 -310 q -136 -294 -108 -300 q -190 -278 -164 -287 l -157 -183 q -97 -203 -127 -195 q -36 -217 -68 -211 q 26 -224 -4 -224 q 49 -185 39 -208 q 68 -132 59 -163 q 85 -58 78 -101 l 182 651 l 94 665 l 107 736 m 76 1126 l 182 1133 l 297 964 l 460 1133 l 543 1126 l 541 1104 l 347 851 l 197 858 l 73 1104 l 76 1126 z "},"ķ":{"ha":830,"x_min":76,"x_max":826,"o":"m 794 0 l 595 -15 l 541 38 l 386 349 q 353 336 370 342 q 318 323 336 330 l 271 -15 l 76 0 l 210 960 l 121 973 l 134 1044 l 359 1059 l 414 1006 l 332 427 q 519 532 439 471 q 659 658 600 593 l 592 665 l 606 736 l 733 751 l 826 671 q 710 551 781 616 q 541 427 640 487 l 709 85 l 804 71 l 794 0 m 294 -87 l 434 -87 l 429 -129 l 355 -347 l 258 -347 l 294 -87 z "},"ĺ":{"ha":452,"x_min":79,"x_max":604,"o":"m 132 1044 l 356 1059 l 411 1006 l 282 85 l 371 71 l 357 0 l 134 -15 l 79 38 l 207 960 l 118 973 l 132 1044 m 224 1162 l 412 1352 l 604 1345 l 604 1301 l 322 1133 l 224 1140 l 224 1162 z "},"ḷ":{"ha":452,"x_min":71,"x_max":411,"o":"m 132 1044 l 356 1059 l 411 1006 l 282 85 l 371 71 l 357 0 l 134 -15 l 79 38 l 207 960 l 118 973 l 132 1044 m 71 -230 q 77 -186 71 -207 q 94 -151 83 -166 q 120 -126 105 -135 q 151 -117 134 -117 q 194 -123 174 -117 q 230 -140 215 -130 q 254 -166 245 -151 q 263 -197 263 -180 q 257 -240 263 -220 q 239 -276 250 -261 q 214 -301 229 -292 q 183 -310 199 -310 q 139 -303 159 -310 q 103 -286 119 -297 q 79 -261 88 -275 q 71 -230 71 -246 z "},"ḻ":{"ha":452,"x_min":-83,"x_max":452,"o":"m 132 1044 l 356 1059 l 411 1006 l 282 85 l 371 71 l 357 0 l 134 -15 l 79 38 l 207 960 l 118 973 l 132 1044 m -56 -127 l 452 -127 l 425 -229 l -83 -229 l -56 -127 z "},"ļ":{"ha":452,"x_min":68,"x_max":411,"o":"m 132 1044 l 356 1059 l 411 1006 l 282 85 l 371 71 l 357 0 l 134 -15 l 79 38 l 207 960 l 118 973 l 132 1044 m 104 -87 l 243 -87 l 238 -129 l 165 -347 l 68 -347 l 104 -87 z "},"ľ":{"ha":562,"x_min":79,"x_max":652,"o":"m 132 1044 l 356 1059 l 411 1006 l 282 85 l 371 71 l 357 0 l 134 -15 l 79 38 l 207 960 l 118 973 l 132 1044 m 499 1044 l 652 1044 l 649 1016 l 574 785 l 463 785 l 499 1044 z "},"ḹ":{"ha":452,"x_min":47,"x_max":610,"o":"m 132 1044 l 356 1059 l 411 1006 l 282 85 l 371 71 l 357 0 l 134 -15 l 79 38 l 207 960 l 118 973 l 132 1044 m 71 -230 q 77 -186 71 -207 q 94 -151 83 -166 q 120 -126 105 -135 q 151 -117 134 -117 q 194 -123 174 -117 q 230 -140 215 -130 q 254 -166 245 -151 q 263 -197 263 -180 q 257 -240 263 -220 q 239 -276 250 -261 q 214 -301 229 -292 q 183 -310 199 -310 q 139 -303 159 -310 q 103 -286 119 -297 q 79 -261 88 -275 q 71 -230 71 -246 m 60 1282 l 610 1282 l 597 1180 l 47 1180 l 60 1282 z "},"ṃ":{"ha":1367,"x_min":90,"x_max":1280,"o":"m 820 0 l 596 -15 l 541 38 l 604 496 q 612 623 616 583 q 576 664 608 664 q 477 615 534 664 q 351 469 419 567 l 283 -15 l 90 0 l 179 651 l 90 665 l 104 736 l 328 751 l 383 698 l 367 583 q 509 708 433 665 q 661 751 586 751 q 783 708 746 751 q 812 581 819 666 q 951 707 876 664 q 1104 751 1027 751 q 1234 703 1198 751 q 1255 555 1270 655 l 1191 85 l 1280 71 l 1266 0 l 1042 -15 l 987 38 l 1050 496 q 1059 622 1062 580 q 1023 664 1055 664 q 925 616 982 664 q 797 469 867 568 l 745 85 l 833 71 l 820 0 m 527 -230 q 533 -186 527 -207 q 551 -151 540 -166 q 576 -126 562 -135 q 607 -117 591 -117 q 651 -123 630 -117 q 687 -140 671 -130 q 711 -166 702 -151 q 720 -197 720 -180 q 713 -240 720 -220 q 696 -276 707 -261 q 670 -301 685 -292 q 640 -310 656 -310 q 595 -303 616 -310 q 560 -286 575 -297 q 536 -261 545 -275 q 527 -230 527 -246 z "},"ń":{"ha":924,"x_min":90,"x_max":863,"o":"m 823 0 l 600 -15 l 545 38 l 608 496 q 615 624 621 584 q 580 664 610 664 q 484 615 543 664 q 351 469 425 567 l 283 -15 l 90 0 l 179 651 l 90 665 l 104 736 l 328 751 l 383 698 l 367 583 q 506 707 431 663 q 654 751 581 751 q 790 703 753 751 q 812 555 827 654 l 748 85 l 837 71 l 823 0 m 521 886 l 680 1133 l 863 1126 l 857 1081 l 608 858 l 517 865 l 521 886 z "},"ñ":{"ha":924,"x_min":90,"x_max":871,"o":"m 823 0 l 600 -15 l 545 38 l 608 496 q 615 624 621 584 q 580 664 610 664 q 484 615 543 664 q 351 469 425 567 l 283 -15 l 90 0 l 179 651 l 90 665 l 104 736 l 328 751 l 383 698 l 367 583 q 506 707 431 663 q 654 751 581 751 q 790 703 753 751 q 812 555 827 654 l 748 85 l 837 71 l 823 0 m 277 886 q 337 1016 289 972 q 457 1059 385 1059 q 535 1045 496 1059 q 608 1014 574 1031 q 672 983 643 997 q 723 969 702 969 q 766 989 749 969 q 791 1050 784 1009 l 871 1057 l 864 1008 q 808 882 852 928 q 692 836 764 836 q 616 850 656 836 q 538 881 576 864 q 468 912 500 898 q 415 926 435 926 q 370 913 388 926 q 347 859 353 900 l 272 852 l 277 886 z "},"ň":{"ha":924,"x_min":90,"x_max":837,"o":"m 823 0 l 600 -15 l 545 38 l 608 496 q 615 624 621 584 q 580 664 610 664 q 484 615 543 664 q 351 469 425 567 l 283 -15 l 90 0 l 179 651 l 90 665 l 104 736 l 328 751 l 383 698 l 367 583 q 506 707 431 663 q 654 751 581 751 q 790 703 753 751 q 812 555 827 654 l 748 85 l 837 71 l 823 0 m 359 1126 l 466 1133 l 581 964 l 743 1133 l 827 1126 l 824 1104 l 630 851 l 480 858 l 357 1104 l 359 1126 z "},"ṅ":{"ha":924,"x_min":90,"x_max":837,"o":"m 823 0 l 600 -15 l 545 38 l 608 496 q 615 624 621 584 q 580 664 610 664 q 484 615 543 664 q 351 469 425 567 l 283 -15 l 90 0 l 179 651 l 90 665 l 104 736 l 328 751 l 383 698 l 367 583 q 506 707 431 663 q 654 751 581 751 q 790 703 753 751 q 812 555 827 654 l 748 85 l 837 71 l 823 0 m 483 946 q 489 989 483 969 q 507 1025 496 1010 q 532 1050 517 1041 q 563 1059 547 1059 q 607 1053 586 1059 q 643 1036 627 1046 q 667 1010 658 1025 q 675 979 675 996 q 669 936 675 956 q 652 900 663 915 q 626 875 641 884 q 595 866 612 866 q 551 872 572 866 q 516 890 531 879 q 492 915 500 901 q 483 946 483 930 z "},"ṇ":{"ha":924,"x_min":90,"x_max":837,"o":"m 823 0 l 600 -15 l 545 38 l 608 496 q 615 624 621 584 q 580 664 610 664 q 484 615 543 664 q 351 469 425 567 l 283 -15 l 90 0 l 179 651 l 90 665 l 104 736 l 328 751 l 383 698 l 367 583 q 506 707 431 663 q 654 751 581 751 q 790 703 753 751 q 812 555 827 654 l 748 85 l 837 71 l 823 0 m 315 -230 q 322 -186 315 -207 q 339 -151 328 -166 q 365 -126 350 -135 q 395 -117 379 -117 q 439 -123 418 -117 q 475 -140 460 -130 q 499 -166 490 -151 q 508 -197 508 -180 q 502 -240 508 -220 q 484 -276 495 -261 q 459 -301 473 -292 q 428 -310 444 -310 q 384 -303 404 -310 q 348 -286 363 -297 q 324 -261 333 -275 q 315 -230 315 -246 z "},"ṉ":{"ha":924,"x_min":90,"x_max":837,"o":"m 823 0 l 600 -15 l 545 38 l 608 496 q 615 624 621 584 q 580 664 610 664 q 484 615 543 664 q 351 469 425 567 l 283 -15 l 90 0 l 179 651 l 90 665 l 104 736 l 328 751 l 383 698 l 367 583 q 506 707 431 663 q 654 751 581 751 q 790 703 753 751 q 812 555 827 654 l 748 85 l 837 71 l 823 0 m 189 -127 l 697 -127 l 670 -229 l 161 -229 l 189 -127 z "},"ņ":{"ha":924,"x_min":90,"x_max":837,"o":"m 823 0 l 600 -15 l 545 38 l 608 496 q 615 624 621 584 q 580 664 610 664 q 484 615 543 664 q 351 469 425 567 l 283 -15 l 90 0 l 179 651 l 90 665 l 104 736 l 328 751 l 383 698 l 367 583 q 506 707 431 663 q 654 751 581 751 q 790 703 753 751 q 812 555 827 654 l 748 85 l 837 71 l 823 0 m 349 -87 l 488 -87 l 483 -129 l 410 -347 l 313 -347 l 349 -87 z "},"ò":{"ha":791,"x_min":26,"x_max":767,"o":"m 323 -15 q 95 60 165 -15 q 47 291 26 135 l 56 354 q 197 647 84 543 q 471 751 310 751 q 700 673 633 751 q 745 439 767 596 l 736 374 q 594 92 711 199 q 323 -15 477 -15 m 547 429 q 542 612 564 549 q 449 676 519 676 q 398 671 425 676 q 348 656 372 666 q 291 526 314 597 q 256 381 267 454 l 245 300 q 256 119 229 179 q 345 60 283 60 q 396 65 370 60 q 446 80 423 71 q 503 202 479 132 q 536 348 526 273 l 547 429 m 559 865 l 458 858 l 272 1081 l 279 1126 l 473 1133 l 562 886 l 559 865 z "},"ó":{"ha":791,"x_min":26,"x_max":808,"o":"m 323 -15 q 95 60 165 -15 q 47 291 26 135 l 56 354 q 197 647 84 543 q 471 751 310 751 q 700 673 633 751 q 745 439 767 596 l 736 374 q 594 92 711 199 q 323 -15 477 -15 m 547 429 q 542 612 564 549 q 449 676 519 676 q 398 671 425 676 q 348 656 372 666 q 291 526 314 597 q 256 381 267 454 l 245 300 q 256 119 229 179 q 345 60 283 60 q 396 65 370 60 q 446 80 423 71 q 503 202 479 132 q 536 348 526 273 l 547 429 m 466 886 l 625 1133 l 808 1126 l 802 1081 l 553 858 l 463 865 l 466 886 z "},"õ":{"ha":791,"x_min":26,"x_max":816,"o":"m 323 -15 q 95 60 165 -15 q 47 291 26 135 l 56 354 q 197 647 84 543 q 471 751 310 751 q 700 673 633 751 q 745 439 767 596 l 736 374 q 594 92 711 199 q 323 -15 477 -15 m 547 429 q 542 612 564 549 q 449 676 519 676 q 398 671 425 676 q 348 656 372 666 q 291 526 314 597 q 256 381 267 454 l 245 300 q 256 119 229 179 q 345 60 283 60 q 396 65 370 60 q 446 80 423 71 q 503 202 479 132 q 536 348 526 273 l 547 429 m 222 886 q 282 1016 234 972 q 402 1059 330 1059 q 480 1045 441 1059 q 553 1014 519 1031 q 617 983 588 997 q 668 969 647 969 q 711 989 694 969 q 736 1050 729 1009 l 816 1057 l 809 1008 q 753 882 798 928 q 637 836 709 836 q 562 850 602 836 q 484 881 522 864 q 413 912 446 898 q 360 926 380 926 q 315 913 333 926 q 292 859 298 900 l 217 852 l 222 886 z "},"ö":{"ha":791,"x_min":26,"x_max":767,"o":"m 323 -15 q 95 60 165 -15 q 47 291 26 135 l 56 354 q 197 647 84 543 q 471 751 310 751 q 700 673 633 751 q 745 439 767 596 l 736 374 q 594 92 711 199 q 323 -15 477 -15 m 547 429 q 542 612 564 549 q 449 676 519 676 q 398 671 425 676 q 348 656 372 666 q 291 526 314 597 q 256 381 267 454 l 245 300 q 256 119 229 179 q 345 60 283 60 q 396 65 370 60 q 446 80 423 71 q 503 202 479 132 q 536 348 526 273 l 547 429 m 259 942 q 265 982 259 963 q 280 1014 271 1000 q 303 1036 290 1028 q 331 1044 317 1044 q 371 1039 352 1044 q 403 1023 389 1033 q 424 999 416 1013 q 432 971 432 986 q 426 932 432 951 q 411 900 420 914 q 388 878 401 886 q 361 869 375 869 q 321 875 339 869 q 289 891 302 881 q 267 915 275 901 q 259 942 259 928 m 585 942 q 590 982 585 963 q 606 1014 596 1000 q 628 1036 615 1028 q 656 1044 642 1044 q 695 1039 677 1044 q 728 1023 714 1033 q 750 999 742 1013 q 758 971 758 986 q 752 932 758 951 q 736 900 746 914 q 713 878 726 886 q 685 869 700 869 q 645 875 663 869 q 613 891 627 881 q 592 915 600 901 q 585 942 585 928 z "},"ō":{"ha":791,"x_min":26,"x_max":791,"o":"m 323 -15 q 95 60 165 -15 q 47 291 26 135 l 56 354 q 197 647 84 543 q 471 751 310 751 q 700 673 633 751 q 745 439 767 596 l 736 374 q 594 92 711 199 q 323 -15 477 -15 m 547 429 q 542 612 564 549 q 449 676 519 676 q 398 671 425 676 q 348 656 372 666 q 291 526 314 597 q 256 381 267 454 l 245 300 q 256 119 229 179 q 345 60 283 60 q 396 65 370 60 q 446 80 423 71 q 503 202 479 132 q 536 348 526 273 l 547 429 m 283 1006 l 791 1006 l 764 904 l 256 904 l 283 1006 z "},"ô":{"ha":791,"x_min":26,"x_max":767,"o":"m 323 -15 q 95 60 165 -15 q 47 291 26 135 l 56 354 q 197 647 84 543 q 471 751 310 751 q 700 673 633 751 q 745 439 767 596 l 736 374 q 594 92 711 199 q 323 -15 477 -15 m 547 429 q 542 612 564 549 q 449 676 519 676 q 398 671 425 676 q 348 656 372 666 q 291 526 314 597 q 256 381 267 454 l 245 300 q 256 119 229 179 q 345 60 283 60 q 396 65 370 60 q 446 80 423 71 q 503 202 479 132 q 536 348 526 273 l 547 429 m 732 865 l 626 858 l 511 1025 l 349 858 l 265 865 l 268 886 l 462 1139 l 612 1133 l 735 886 l 732 865 z "},"ǒ":{"ha":791,"x_min":26,"x_max":772,"o":"m 323 -15 q 95 60 165 -15 q 47 291 26 135 l 56 354 q 197 647 84 543 q 471 751 310 751 q 700 673 633 751 q 745 439 767 596 l 736 374 q 594 92 711 199 q 323 -15 477 -15 m 547 429 q 542 612 564 549 q 449 676 519 676 q 398 671 425 676 q 348 656 372 666 q 291 526 314 597 q 256 381 267 454 l 245 300 q 256 119 229 179 q 345 60 283 60 q 396 65 370 60 q 446 80 423 71 q 503 202 479 132 q 536 348 526 273 l 547 429 m 304 1126 l 411 1133 l 526 964 l 688 1133 l 772 1126 l 769 1104 l 575 851 l 425 858 l 302 1104 l 304 1126 z "},"ŏ":{"ha":791,"x_min":26,"x_max":767,"o":"m 323 -15 q 95 60 165 -15 q 47 291 26 135 l 56 354 q 197 647 84 543 q 471 751 310 751 q 700 673 633 751 q 745 439 767 596 l 736 374 q 594 92 711 199 q 323 -15 477 -15 m 547 429 q 542 612 564 549 q 449 676 519 676 q 398 671 425 676 q 348 656 372 666 q 291 526 314 597 q 256 381 267 454 l 245 300 q 256 119 229 179 q 345 60 283 60 q 396 65 370 60 q 446 80 423 71 q 503 202 479 132 q 536 348 526 273 l 547 429 m 750 1080 q 725 1000 745 1040 q 672 929 705 960 q 595 878 640 897 q 498 858 551 858 q 406 878 444 858 q 343 929 367 897 q 311 1000 320 960 q 308 1080 302 1040 l 381 1086 q 384 1056 379 1074 q 405 1021 389 1038 q 447 992 420 1004 q 515 980 473 980 q 586 992 556 980 q 636 1021 616 1004 q 666 1056 656 1038 q 678 1086 676 1074 l 750 1080 z "},"ỏ":{"ha":791,"x_min":26,"x_max":767,"o":"m 323 -15 q 95 60 165 -15 q 47 291 26 135 l 56 354 q 197 647 84 543 q 471 751 310 751 q 700 673 633 751 q 745 439 767 596 l 736 374 q 594 92 711 199 q 323 -15 477 -15 m 547 429 q 542 612 564 549 q 449 676 519 676 q 398 671 425 676 q 348 656 372 666 q 291 526 314 597 q 256 381 267 454 l 245 300 q 256 119 229 179 q 345 60 283 60 q 396 65 370 60 q 446 80 423 71 q 503 202 479 132 q 536 348 526 273 l 547 429 m 587 930 q 558 915 570 922 q 540 903 547 909 q 530 893 533 898 q 526 884 526 889 q 526 871 524 877 q 529 862 528 865 l 465 844 q 455 863 458 853 q 450 885 452 873 q 450 907 448 896 q 453 926 450 916 q 463 945 456 935 q 480 965 469 954 q 508 986 491 975 q 549 1017 538 1005 q 562 1042 560 1028 q 556 1065 563 1055 q 531 1076 550 1076 q 515 1074 522 1076 q 500 1070 507 1072 q 488 1065 494 1067 l 464 1002 l 391 1005 l 404 1095 q 449 1113 425 1105 q 502 1127 473 1121 q 565 1133 531 1133 q 655 1108 624 1133 q 680 1037 686 1084 q 650 976 675 1002 q 587 930 625 950 z "},"ỗ":{"ha":791,"x_min":26,"x_max":876,"o":"m 323 -15 q 95 60 165 -15 q 47 291 26 135 l 56 354 q 197 647 84 543 q 471 751 310 751 q 700 673 633 751 q 745 439 767 596 l 736 374 q 594 92 711 199 q 323 -15 477 -15 m 547 429 q 542 612 564 549 q 449 676 519 676 q 398 671 425 676 q 348 656 372 666 q 291 526 314 597 q 256 381 267 454 l 245 300 q 256 119 229 179 q 345 60 283 60 q 396 65 370 60 q 446 80 423 71 q 503 202 479 132 q 536 348 526 273 l 547 429 m 282 1231 q 342 1360 294 1317 q 463 1403 390 1403 q 541 1389 502 1403 q 614 1358 579 1375 q 678 1328 648 1341 q 728 1314 707 1314 q 772 1334 754 1314 q 796 1395 789 1354 l 876 1402 l 869 1353 q 813 1226 858 1272 q 697 1181 769 1181 q 622 1195 662 1181 q 544 1225 582 1208 q 473 1256 506 1242 q 420 1270 441 1270 q 376 1257 393 1270 q 352 1204 358 1244 l 277 1197 l 282 1231 m 758 865 l 652 858 l 536 1025 l 374 858 l 291 865 l 294 886 l 488 1139 l 637 1133 l 761 886 l 758 865 z "},"ố":{"ha":791,"x_min":26,"x_max":993,"o":"m 323 -15 q 95 60 165 -15 q 47 291 26 135 l 56 354 q 197 647 84 543 q 471 751 310 751 q 700 673 633 751 q 745 439 767 596 l 736 374 q 594 92 711 199 q 323 -15 477 -15 m 547 429 q 542 612 564 549 q 449 676 519 676 q 398 671 425 676 q 348 656 372 666 q 291 526 314 597 q 256 381 267 454 l 245 300 q 256 119 229 179 q 345 60 283 60 q 396 65 370 60 q 446 80 423 71 q 503 202 479 132 q 536 348 526 273 l 547 429 m 758 865 l 652 858 l 536 1025 l 374 858 l 291 865 l 294 886 l 488 1139 l 637 1133 l 761 886 l 758 865 m 726 1066 l 843 1227 l 993 1220 l 986 1175 l 800 1038 l 722 1044 l 726 1066 z "},"ồ":{"ha":791,"x_min":26,"x_max":767,"o":"m 323 -15 q 95 60 165 -15 q 47 291 26 135 l 56 354 q 197 647 84 543 q 471 751 310 751 q 700 673 633 751 q 745 439 767 596 l 736 374 q 594 92 711 199 q 323 -15 477 -15 m 547 429 q 542 612 564 549 q 449 676 519 676 q 398 671 425 676 q 348 656 372 666 q 291 526 314 597 q 256 381 267 454 l 245 300 q 256 119 229 179 q 345 60 283 60 q 396 65 370 60 q 446 80 423 71 q 503 202 479 132 q 536 348 526 273 l 547 429 m 758 865 l 652 858 l 536 1025 l 374 858 l 291 865 l 294 886 l 488 1139 l 637 1133 l 761 886 l 758 865 m 374 1044 l 287 1038 l 138 1175 l 145 1220 l 305 1227 l 378 1066 l 374 1044 z "},"ổ":{"ha":791,"x_min":26,"x_max":953,"o":"m 323 -15 q 95 60 165 -15 q 47 291 26 135 l 56 354 q 197 647 84 543 q 471 751 310 751 q 700 673 633 751 q 745 439 767 596 l 736 374 q 594 92 711 199 q 323 -15 477 -15 m 547 429 q 542 612 564 549 q 449 676 519 676 q 398 671 425 676 q 348 656 372 666 q 291 526 314 597 q 256 381 267 454 l 245 300 q 256 119 229 179 q 345 60 283 60 q 396 65 370 60 q 446 80 423 71 q 503 202 479 132 q 536 348 526 273 l 547 429 m 758 865 l 652 858 l 536 1025 l 374 858 l 291 865 l 294 886 l 488 1139 l 637 1133 l 761 886 l 758 865 m 854 1113 q 826 1098 837 1104 q 807 1086 814 1091 q 797 1076 800 1080 q 793 1067 793 1072 q 793 1054 791 1059 q 796 1044 795 1048 l 732 1026 q 722 1046 726 1036 q 717 1067 719 1056 q 717 1090 715 1078 q 721 1108 718 1099 q 730 1127 724 1118 q 747 1147 736 1137 q 775 1168 758 1158 q 816 1199 805 1187 q 829 1224 827 1211 q 824 1248 830 1238 q 798 1258 817 1258 q 782 1256 789 1258 q 768 1252 774 1255 q 755 1248 761 1250 l 731 1184 l 659 1187 l 671 1278 q 716 1296 692 1288 q 769 1309 740 1303 q 832 1315 798 1315 q 922 1291 891 1315 q 947 1219 953 1267 q 917 1158 942 1184 q 854 1113 892 1133 z "},"ọ":{"ha":791,"x_min":26,"x_max":767,"o":"m 323 -15 q 95 60 165 -15 q 47 291 26 135 l 56 354 q 197 647 84 543 q 471 751 310 751 q 700 673 633 751 q 745 439 767 596 l 736 374 q 594 92 711 199 q 323 -15 477 -15 m 547 429 q 542 612 564 549 q 449 676 519 676 q 398 671 425 676 q 348 656 372 666 q 291 526 314 597 q 256 381 267 454 l 245 300 q 256 119 229 179 q 345 60 283 60 q 396 65 370 60 q 446 80 423 71 q 503 202 479 132 q 536 348 526 273 l 547 429 m 191 -230 q 198 -186 191 -207 q 215 -151 204 -166 q 240 -126 226 -135 q 271 -117 255 -117 q 315 -123 294 -117 q 351 -140 336 -130 q 375 -166 366 -151 q 384 -197 384 -180 q 377 -240 384 -220 q 360 -276 371 -261 q 335 -301 349 -292 q 304 -310 320 -310 q 260 -303 280 -310 q 224 -286 239 -297 q 200 -261 209 -275 q 191 -230 191 -246 z "},"ơ":{"ha":760,"x_min":-1,"x_max":892,"o":"m 848 971 q 884 894 876 930 q 887 827 892 857 q 860 750 881 785 q 796 684 839 715 q 701 631 758 656 q 719 439 735 557 l 710 374 q 568 92 684 199 q 296 -15 451 -15 q 69 60 138 -15 q 21 291 -1 135 l 30 354 q 171 647 58 543 q 444 751 283 751 q 648 697 579 751 q 680 719 666 708 q 713 757 702 737 q 728 802 724 777 q 727 844 731 825 q 715 878 722 863 q 697 905 708 892 l 701 932 l 848 971 m 521 429 q 515 612 538 549 q 422 676 492 676 q 372 671 398 676 q 321 656 345 666 q 264 526 288 597 q 230 381 241 454 l 218 300 q 230 119 202 179 q 318 60 257 60 q 370 65 343 60 q 419 80 397 71 q 476 202 452 132 q 510 348 500 273 l 521 429 z "},"ṛ":{"ha":663,"x_min":23,"x_max":685,"o":"m 115 736 l 339 751 l 394 698 l 377 578 q 467 706 414 661 q 582 751 520 751 q 637 743 610 751 q 685 721 665 734 l 646 534 l 547 526 l 547 647 q 533 650 539 649 q 520 650 526 650 q 446 594 488 650 q 355 418 404 538 l 309 85 l 398 71 l 385 0 l 26 0 l 23 71 l 111 85 l 190 651 l 101 665 l 115 736 m 81 -230 q 88 -186 81 -207 q 105 -151 94 -166 q 131 -126 116 -135 q 161 -117 145 -117 q 205 -123 184 -117 q 241 -140 226 -130 q 265 -166 256 -151 q 274 -197 274 -180 q 268 -240 274 -220 q 250 -276 261 -261 q 225 -301 239 -292 q 194 -310 210 -310 q 150 -303 170 -310 q 114 -286 130 -297 q 90 -261 99 -275 q 81 -230 81 -246 z "},"ṟ":{"ha":663,"x_min":-73,"x_max":685,"o":"m 115 736 l 339 751 l 394 698 l 377 578 q 467 706 414 661 q 582 751 520 751 q 637 743 610 751 q 685 721 665 734 l 646 534 l 547 526 l 547 647 q 533 650 539 649 q 520 650 526 650 q 446 594 488 650 q 355 418 404 538 l 309 85 l 398 71 l 385 0 l 26 0 l 23 71 l 111 85 l 190 651 l 101 665 l 115 736 m -45 -127 l 463 -127 l 436 -229 l -73 -229 l -45 -127 z "},"ŗ":{"ha":663,"x_min":23,"x_max":685,"o":"m 115 736 l 339 751 l 394 698 l 377 578 q 467 706 414 661 q 582 751 520 751 q 637 743 610 751 q 685 721 665 734 l 646 534 l 547 526 l 547 647 q 533 650 539 649 q 520 650 526 650 q 446 594 488 650 q 355 418 404 538 l 309 85 l 398 71 l 385 0 l 26 0 l 23 71 l 111 85 l 190 651 l 101 665 l 115 736 m 115 -87 l 254 -87 l 249 -129 l 176 -347 l 79 -347 l 115 -87 z "},"ŕ":{"ha":663,"x_min":23,"x_max":745,"o":"m 115 736 l 339 751 l 394 698 l 377 578 q 467 706 414 661 q 582 751 520 751 q 637 743 610 751 q 685 721 665 734 l 646 534 l 547 526 l 547 647 q 533 650 539 649 q 520 650 526 650 q 446 594 488 650 q 355 418 404 538 l 309 85 l 398 71 l 385 0 l 26 0 l 23 71 l 111 85 l 190 651 l 101 665 l 115 736 m 403 886 l 562 1133 l 745 1126 l 739 1081 l 490 858 l 399 865 l 403 886 z "},"ṝ":{"ha":663,"x_min":23,"x_max":685,"o":"m 115 736 l 339 751 l 394 698 l 377 578 q 467 706 414 661 q 582 751 520 751 q 637 743 610 751 q 685 721 665 734 l 646 534 l 547 526 l 547 647 q 533 650 539 649 q 520 650 526 650 q 446 594 488 650 q 355 418 404 538 l 309 85 l 398 71 l 385 0 l 26 0 l 23 71 l 111 85 l 190 651 l 101 665 l 115 736 m 81 -230 q 88 -186 81 -207 q 105 -151 94 -166 q 131 -126 116 -135 q 161 -117 145 -117 q 205 -123 184 -117 q 241 -140 226 -130 q 265 -166 256 -151 q 274 -197 274 -180 q 268 -240 274 -220 q 250 -276 261 -261 q 225 -301 239 -292 q 194 -310 210 -310 q 150 -303 170 -310 q 114 -286 130 -297 q 90 -261 99 -275 q 81 -230 81 -246 z "},"ř":{"ha":663,"x_min":23,"x_max":709,"o":"m 115 736 l 339 751 l 394 698 l 377 578 q 467 706 414 661 q 582 751 520 751 q 637 743 610 751 q 685 721 665 734 l 646 534 l 547 526 l 547 647 q 533 650 539 649 q 520 650 526 650 q 446 594 488 650 q 355 418 404 538 l 309 85 l 398 71 l 385 0 l 26 0 l 23 71 l 111 85 l 190 651 l 101 665 l 115 736 m 241 1126 l 348 1133 l 463 964 l 625 1133 l 709 1126 l 706 1104 l 512 851 l 362 858 l 239 1104 l 241 1126 z "},"ṙ":{"ha":663,"x_min":23,"x_max":685,"o":"m 115 736 l 339 751 l 394 698 l 377 578 q 467 706 414 661 q 582 751 520 751 q 637 743 610 751 q 685 721 665 734 l 646 534 l 547 526 l 547 647 q 533 650 539 649 q 520 650 526 650 q 446 594 488 650 q 355 418 404 538 l 309 85 l 398 71 l 385 0 l 26 0 l 23 71 l 111 85 l 190 651 l 101 665 l 115 736 m 365 946 q 371 989 365 969 q 389 1025 378 1010 q 414 1050 399 1041 q 445 1059 429 1059 q 489 1053 468 1059 q 525 1036 509 1046 q 549 1010 540 1025 q 557 979 557 996 q 551 936 557 956 q 534 900 545 915 q 508 875 523 884 q 477 866 494 866 q 433 872 454 866 q 398 890 413 879 q 374 915 382 901 q 365 946 365 930 z "},"ş":{"ha":694,"x_min":49,"x_max":649,"o":"m 422 447 q 595 309 557 366 q 621 178 632 252 q 516 35 608 86 q 359 -10 452 0 l 329 -71 q 388 -86 362 -77 q 431 -110 414 -96 q 455 -144 448 -124 q 458 -193 462 -165 q 439 -241 454 -219 q 402 -278 425 -262 q 347 -301 378 -293 q 276 -310 315 -310 q 222 -305 248 -310 q 177 -294 197 -300 q 142 -278 157 -287 l 151 -215 q 186 -228 168 -222 q 227 -238 205 -234 q 268 -242 248 -242 q 295 -241 283 -242 q 315 -237 307 -239 q 319 -229 317 -233 q 323 -218 321 -224 q 327 -201 326 -211 q 326 -173 329 -185 q 314 -153 323 -161 q 288 -137 304 -144 q 245 -126 271 -131 l 227 -83 l 261 -15 q 153 -2 205 -13 q 49 33 93 11 l 65 209 l 148 209 l 169 75 q 220 64 189 68 q 285 60 250 60 q 339 63 312 60 q 391 72 367 66 q 409 106 401 86 q 420 149 417 126 q 403 226 427 193 q 271 328 379 259 q 123 450 157 399 q 98 562 90 501 q 196 700 111 649 q 427 751 282 751 q 551 738 492 751 q 649 705 610 725 l 632 528 l 550 528 l 528 663 q 477 672 505 669 q 420 676 448 676 q 371 673 396 676 q 328 664 346 669 q 310 634 318 652 q 299 598 302 616 q 313 529 292 558 q 422 447 334 500 z "},"ṣ":{"ha":694,"x_min":49,"x_max":649,"o":"m 422 447 q 595 309 557 366 q 621 178 632 252 q 516 36 608 86 q 279 -15 425 -15 q 153 -2 214 -15 q 49 33 93 11 l 65 209 l 148 209 l 169 75 q 220 64 189 68 q 285 60 250 60 q 339 63 312 60 q 391 72 367 66 q 409 106 401 86 q 420 149 417 126 q 403 226 427 193 q 271 328 379 259 q 123 450 157 399 q 98 562 90 501 q 196 700 111 649 q 427 751 282 751 q 551 738 492 751 q 649 705 610 725 l 632 528 l 550 528 l 528 663 q 477 672 505 669 q 420 676 448 676 q 371 673 396 676 q 328 664 346 669 q 310 634 318 652 q 299 598 302 616 q 313 529 292 558 q 422 447 334 500 m 185 -230 q 192 -186 185 -207 q 209 -151 198 -166 q 234 -126 220 -135 q 265 -117 249 -117 q 309 -123 288 -117 q 345 -140 330 -130 q 369 -166 360 -151 q 378 -197 378 -180 q 371 -240 378 -220 q 354 -276 365 -261 q 329 -301 343 -292 q 298 -310 314 -310 q 254 -303 274 -310 q 218 -286 233 -297 q 194 -261 203 -275 q 185 -230 185 -246 z "},"ș":{"ha":694,"x_min":49,"x_max":649,"o":"m 422 447 q 595 309 557 366 q 621 178 632 252 q 516 36 608 86 q 279 -15 425 -15 q 153 -2 214 -15 q 49 33 93 11 l 65 209 l 148 209 l 169 75 q 220 64 189 68 q 285 60 250 60 q 339 63 312 60 q 391 72 367 66 q 409 106 401 86 q 420 149 417 126 q 403 226 427 193 q 271 328 379 259 q 123 450 157 399 q 98 562 90 501 q 196 700 111 649 q 427 751 282 751 q 551 738 492 751 q 649 705 610 725 l 632 528 l 550 528 l 528 663 q 477 672 505 669 q 420 676 448 676 q 371 673 396 676 q 328 664 346 669 q 310 634 318 652 q 299 598 302 616 q 313 529 292 558 q 422 447 334 500 m 218 -87 l 358 -87 l 353 -129 l 279 -347 l 182 -347 l 218 -87 z "},"ś":{"ha":694,"x_min":49,"x_max":737,"o":"m 422 447 q 595 309 557 366 q 621 178 632 252 q 516 36 608 86 q 279 -15 425 -15 q 153 -2 214 -15 q 49 33 93 11 l 65 209 l 148 209 l 169 75 q 220 64 189 68 q 285 60 250 60 q 339 63 312 60 q 391 72 367 66 q 409 106 401 86 q 420 149 417 126 q 403 226 427 193 q 271 328 379 259 q 123 450 157 399 q 98 562 90 501 q 196 700 111 649 q 427 751 282 751 q 551 738 492 751 q 649 705 610 725 l 632 528 l 550 528 l 528 663 q 477 672 505 669 q 420 676 448 676 q 371 673 396 676 q 328 664 346 669 q 310 634 318 652 q 299 598 302 616 q 313 529 292 558 q 422 447 334 500 m 395 886 l 553 1133 l 737 1126 l 730 1081 l 482 858 l 391 865 l 395 886 z "},"ŝ":{"ha":694,"x_min":49,"x_max":664,"o":"m 422 447 q 595 309 557 366 q 621 178 632 252 q 516 36 608 86 q 279 -15 425 -15 q 153 -2 214 -15 q 49 33 93 11 l 65 209 l 148 209 l 169 75 q 220 64 189 68 q 285 60 250 60 q 339 63 312 60 q 391 72 367 66 q 409 106 401 86 q 420 149 417 126 q 403 226 427 193 q 271 328 379 259 q 123 450 157 399 q 98 562 90 501 q 196 700 111 649 q 427 751 282 751 q 551 738 492 751 q 649 705 610 725 l 632 528 l 550 528 l 528 663 q 477 672 505 669 q 420 676 448 676 q 371 673 396 676 q 328 664 346 669 q 310 634 318 652 q 299 598 302 616 q 313 529 292 558 q 422 447 334 500 m 661 865 l 555 858 l 439 1025 l 277 858 l 194 865 l 197 886 l 391 1139 l 541 1133 l 664 886 l 661 865 z "},"š":{"ha":694,"x_min":49,"x_max":701,"o":"m 422 447 q 595 309 557 366 q 621 178 632 252 q 516 36 608 86 q 279 -15 425 -15 q 153 -2 214 -15 q 49 33 93 11 l 65 209 l 148 209 l 169 75 q 220 64 189 68 q 285 60 250 60 q 339 63 312 60 q 391 72 367 66 q 409 106 401 86 q 420 149 417 126 q 403 226 427 193 q 271 328 379 259 q 123 450 157 399 q 98 562 90 501 q 196 700 111 649 q 427 751 282 751 q 551 738 492 751 q 649 705 610 725 l 632 528 l 550 528 l 528 663 q 477 672 505 669 q 420 676 448 676 q 371 673 396 676 q 328 664 346 669 q 310 634 318 652 q 299 598 302 616 q 313 529 292 558 q 422 447 334 500 m 233 1126 l 340 1133 l 454 964 l 617 1133 l 701 1126 l 698 1104 l 504 851 l 354 858 l 231 1104 l 233 1126 z "},"ṡ":{"ha":694,"x_min":49,"x_max":649,"o":"m 422 447 q 595 309 557 366 q 621 178 632 252 q 516 36 608 86 q 279 -15 425 -15 q 153 -2 214 -15 q 49 33 93 11 l 65 209 l 148 209 l 169 75 q 220 64 189 68 q 285 60 250 60 q 339 63 312 60 q 391 72 367 66 q 409 106 401 86 q 420 149 417 126 q 403 226 427 193 q 271 328 379 259 q 123 450 157 399 q 98 562 90 501 q 196 700 111 649 q 427 751 282 751 q 551 738 492 751 q 649 705 610 725 l 632 528 l 550 528 l 528 663 q 477 672 505 669 q 420 676 448 676 q 371 673 396 676 q 328 664 346 669 q 310 634 318 652 q 299 598 302 616 q 313 529 292 558 q 422 447 334 500 m 357 946 q 363 989 357 969 q 380 1025 370 1010 q 406 1050 391 1041 q 437 1059 420 1059 q 480 1053 460 1059 q 516 1036 501 1046 q 541 1010 532 1025 q 549 979 549 996 q 543 936 549 956 q 526 900 536 915 q 500 875 515 884 q 469 866 486 866 q 425 872 446 866 q 390 890 405 879 q 366 915 374 901 q 357 946 357 930 z "},"ẗ":{"ha":557,"x_min":52,"x_max":620,"o":"m 62 736 l 181 736 l 201 876 l 406 932 l 378 736 l 566 736 l 556 665 l 369 665 l 309 236 q 307 106 296 153 q 362 60 317 60 q 431 74 397 60 q 496 107 465 87 l 496 35 q 407 -1 460 12 q 297 -15 354 -15 q 137 48 180 -15 q 113 239 94 111 l 172 665 l 52 665 l 62 736 m 79 1069 q 85 1109 79 1090 q 101 1142 91 1128 q 124 1164 111 1156 q 151 1172 137 1172 q 191 1166 172 1172 q 223 1151 210 1160 q 244 1127 237 1141 q 252 1099 252 1114 q 247 1060 252 1078 q 231 1027 241 1042 q 209 1005 222 1013 q 181 997 195 997 q 141 1003 159 997 q 109 1019 123 1008 q 87 1042 95 1029 q 79 1069 79 1055 m 447 1069 q 453 1109 447 1090 q 468 1142 458 1128 q 491 1164 477 1156 q 518 1172 504 1172 q 558 1166 539 1172 q 590 1151 576 1160 q 612 1127 604 1141 q 620 1099 620 1114 q 614 1060 620 1078 q 598 1027 608 1042 q 575 1005 589 1013 q 547 997 562 997 q 507 1003 526 997 q 476 1019 489 1008 q 455 1042 463 1029 q 447 1069 447 1055 z "},"ť":{"ha":557,"x_min":52,"x_max":660,"o":"m 62 736 l 181 736 l 201 876 l 406 932 l 378 736 l 566 736 l 556 665 l 369 665 l 309 236 q 307 106 296 153 q 362 60 317 60 q 431 74 397 60 q 496 107 465 87 l 496 35 q 407 -1 460 12 q 297 -15 354 -15 q 137 48 180 -15 q 113 239 94 111 l 172 665 l 52 665 l 62 736 m 507 1044 l 660 1044 l 656 1016 l 581 785 l 471 785 l 507 1044 z "},"ţ":{"ha":557,"x_min":52,"x_max":566,"o":"m 62 736 l 181 736 l 201 876 l 406 932 l 378 736 l 566 736 l 556 665 l 369 665 l 309 236 q 307 106 296 153 q 362 60 317 60 q 431 74 397 60 q 496 107 465 87 l 496 35 q 407 -1 460 12 q 336 -13 372 -10 l 307 -71 q 366 -86 340 -77 q 409 -110 392 -96 q 433 -144 426 -124 q 436 -193 440 -165 q 418 -241 432 -219 q 380 -278 404 -262 q 325 -301 357 -293 q 254 -310 293 -310 q 201 -305 226 -310 q 156 -294 176 -300 q 120 -278 136 -287 l 129 -215 q 165 -228 146 -222 q 205 -238 183 -234 q 246 -242 227 -242 q 273 -241 261 -242 q 293 -237 285 -239 q 298 -229 296 -233 q 302 -218 300 -224 q 305 -201 304 -211 q 304 -173 307 -185 q 292 -153 302 -161 q 266 -137 283 -144 q 223 -126 249 -131 l 205 -83 l 241 -11 q 137 47 169 1 q 113 239 94 111 l 172 665 l 52 665 l 62 736 z "},"ṭ":{"ha":557,"x_min":52,"x_max":566,"o":"m 62 736 l 181 736 l 201 876 l 406 932 l 378 736 l 566 736 l 556 665 l 369 665 l 309 236 q 307 106 296 153 q 362 60 317 60 q 431 74 397 60 q 496 107 465 87 l 496 35 q 407 -1 460 12 q 297 -15 354 -15 q 137 48 180 -15 q 113 239 94 111 l 172 665 l 52 665 l 62 736 m 163 -230 q 170 -186 163 -207 q 187 -151 176 -166 q 213 -126 198 -135 q 243 -117 227 -117 q 287 -123 267 -117 q 323 -140 308 -130 q 347 -166 338 -151 q 356 -197 356 -180 q 350 -240 356 -220 q 332 -276 343 -261 q 307 -301 321 -292 q 276 -310 292 -310 q 232 -303 252 -310 q 196 -286 212 -297 q 172 -261 181 -275 q 163 -230 163 -246 z "},"ṯ":{"ha":557,"x_min":9,"x_max":566,"o":"m 62 736 l 181 736 l 201 876 l 406 932 l 378 736 l 566 736 l 556 665 l 369 665 l 309 236 q 307 106 296 153 q 362 60 317 60 q 431 74 397 60 q 496 107 465 87 l 496 35 q 407 -1 460 12 q 297 -15 354 -15 q 137 48 180 -15 q 113 239 94 111 l 172 665 l 52 665 l 62 736 m 37 -127 l 545 -127 l 518 -229 l 9 -229 l 37 -127 z "},"ț":{"ha":557,"x_min":52,"x_max":566,"o":"m 62 736 l 181 736 l 201 876 l 406 932 l 378 736 l 566 736 l 556 665 l 369 665 l 309 236 q 307 106 296 153 q 362 60 317 60 q 431 74 397 60 q 496 107 465 87 l 496 35 q 407 -1 460 12 q 297 -15 354 -15 q 137 48 180 -15 q 113 239 94 111 l 172 665 l 52 665 l 62 736 m 197 -87 l 336 -87 l 331 -129 l 258 -347 l 161 -347 l 197 -87 z "},"ở":{"ha":760,"x_min":-1,"x_max":892,"o":"m 560 930 q 532 915 543 922 q 514 903 521 909 q 503 893 507 898 q 499 884 500 889 q 499 871 498 877 q 503 862 501 865 l 438 844 q 429 863 432 853 q 423 885 425 873 q 423 907 421 896 q 427 926 424 916 q 436 945 430 935 q 454 965 443 954 q 481 986 465 975 q 523 1017 511 1005 q 535 1042 534 1028 q 530 1065 536 1055 q 505 1076 524 1076 q 488 1074 496 1076 q 474 1070 481 1072 q 462 1065 467 1067 l 437 1002 l 365 1005 l 378 1095 q 422 1113 399 1105 q 475 1127 446 1121 q 538 1133 505 1133 q 628 1108 597 1133 q 653 1037 659 1084 q 623 976 648 1002 q 560 930 598 950 m 848 971 q 884 894 876 930 q 887 827 892 857 q 860 750 881 785 q 796 684 839 715 q 701 631 758 656 q 719 439 735 557 l 710 374 q 568 92 684 199 q 296 -15 451 -15 q 69 60 138 -15 q 21 291 -1 135 l 30 354 q 171 647 58 543 q 444 751 283 751 q 648 697 579 751 q 680 719 666 708 q 713 757 702 737 q 728 802 724 777 q 727 844 731 825 q 715 878 722 863 q 697 905 708 892 l 701 932 l 848 971 m 521 429 q 515 612 538 549 q 422 676 492 676 q 372 671 398 676 q 321 656 345 666 q 264 526 288 597 q 230 381 241 454 l 218 300 q 230 119 202 179 q 318 60 257 60 q 370 65 343 60 q 419 80 397 71 q 476 202 452 132 q 510 348 500 273 l 521 429 z "},"ù":{"ha":911,"x_min":84,"x_max":830,"o":"m 547 736 l 772 751 l 827 698 l 741 85 l 830 71 l 817 0 l 593 -15 l 538 38 l 553 151 q 416 30 494 74 q 258 -15 339 -15 q 130 34 165 -15 q 109 180 95 83 l 174 651 l 84 665 l 98 736 l 322 751 l 375 684 l 313 230 q 307 111 302 149 q 348 72 313 72 q 449 122 391 72 q 569 264 507 172 l 623 651 l 534 665 l 547 736 m 556 865 l 455 858 l 269 1081 l 276 1126 l 470 1133 l 559 886 l 556 865 z "},"ú":{"ha":911,"x_min":84,"x_max":830,"o":"m 547 736 l 772 751 l 827 698 l 741 85 l 830 71 l 817 0 l 593 -15 l 538 38 l 553 151 q 416 30 494 74 q 258 -15 339 -15 q 130 34 165 -15 q 109 180 95 83 l 174 651 l 84 665 l 98 736 l 322 751 l 375 684 l 313 230 q 307 111 302 149 q 348 72 313 72 q 449 122 391 72 q 569 264 507 172 l 623 651 l 534 665 l 547 736 m 463 886 l 622 1133 l 806 1126 l 799 1081 l 551 858 l 460 865 l 463 886 z "}}}
